<?xml version="1.0" encoding="UTF-8" standalone="no"?>
<!DOCTYPE svg PUBLIC "-//W3C//DTD SVG 1.1//EN"
 "http://www.w3.org/Graphics/SVG/1.1/DTD/svg11.dtd">
<!-- Generated by graphviz version 11.0.0 (20240428.1522)
 -->
<!-- Title: dependency&#45;cruiser output Pages: 1 -->
<svg width="479pt" height="643pt"
 viewBox="0.00 0.00 479.37 642.70" xmlns="http://www.w3.org/2000/svg" xmlns:xlink="http://www.w3.org/1999/xlink">
<g id="graph0" class="graph" transform="scale(1 1) rotate(0) translate(4 638.7)">
<title>dependency&#45;cruiser output</title>
<polygon fill="white" stroke="none" points="-4,4 -4,-638.7 475.37,-638.7 475.37,4 -4,4"/>
<!-- better&#45;sqlite3 -->
<g id="node1" class="node">
<title>better&#45;sqlite3</title>
<g id="a_node1"><a xlink:title="better&#45;sqlite3">
<path fill="#ffffcc" stroke="black" d="M447.45,-633.75C447.45,-633.75 390.03,-633.75 390.03,-633.75 387.08,-633.75 384.12,-630.79 384.12,-627.83 384.12,-627.83 384.12,-621.92 384.12,-621.92 384.12,-618.96 387.08,-616 390.03,-616 390.03,-616 447.45,-616 447.45,-616 450.41,-616 453.37,-618.96 453.37,-621.92 453.37,-621.92 453.37,-627.83 453.37,-627.83 453.37,-630.79 450.41,-633.75 447.45,-633.75"/>
<text text-anchor="middle" x="418.74" y="-621.2" font-family="Helvetica,sans-Serif" font-size="9.00">better&#45;sqlite3</text>
</a>
</g>
</g>
<!-- child_process -->
<g id="node2" class="node">
<title>child_process</title>
<g id="a_node2"><a xlink:href="https://nodejs.org/api/child_process.html" xlink:title="child_process">
<path fill="#ffffcc" stroke="grey" d="M449.33,-603.75C449.33,-603.75 388.16,-603.75 388.16,-603.75 385.2,-603.75 382.24,-600.79 382.24,-597.83 382.24,-597.83 382.24,-591.92 382.24,-591.92 382.24,-588.96 385.2,-586 388.16,-586 388.16,-586 449.33,-586 449.33,-586 452.28,-586 455.24,-588.96 455.24,-591.92 455.24,-591.92 455.24,-597.83 455.24,-597.83 455.24,-600.79 452.28,-603.75 449.33,-603.75"/>
<text text-anchor="middle" x="418.74" y="-591.2" font-family="Helvetica,sans-Serif" font-size="9.00" fill="grey">child_process</text>
</a>
</g>
</g>
<!-- cloud&#45;env -->
<g id="node3" class="node">
<title>cloud&#45;env</title>
<g id="a_node3"><a xlink:title="cloud&#45;env">
<path fill="#ffffcc" stroke="black" d="M187.7,-443.75C187.7,-443.75 143.03,-443.75 143.03,-443.75 140.08,-443.75 137.12,-440.79 137.12,-437.83 137.12,-437.83 137.12,-431.92 137.12,-431.92 137.12,-428.96 140.08,-426 143.03,-426 143.03,-426 187.7,-426 187.7,-426 190.66,-426 193.62,-428.96 193.62,-431.92 193.62,-431.92 193.62,-437.83 193.62,-437.83 193.62,-440.79 190.66,-443.75 187.7,-443.75"/>
<text text-anchor="middle" x="165.37" y="-431.2" font-family="Helvetica,sans-Serif" font-size="9.00">cloud&#45;env</text>
</a>
</g>
</g>
<!-- cluster -->
<g id="node4" class="node">
<title>cluster</title>
<g id="a_node4"><a xlink:href="https://nodejs.org/api/cluster.html" xlink:title="cluster">
<path fill="#ffffcc" stroke="grey" d="M439.83,-573.75C439.83,-573.75 397.66,-573.75 397.66,-573.75 394.7,-573.75 391.74,-570.79 391.74,-567.83 391.74,-567.83 391.74,-561.92 391.74,-561.92 391.74,-558.96 394.7,-556 397.66,-556 397.66,-556 439.83,-556 439.83,-556 442.78,-556 445.74,-558.96 445.74,-561.92 445.74,-561.92 445.74,-567.83 445.74,-567.83 445.74,-570.79 442.78,-573.75 439.83,-573.75"/>
<text text-anchor="middle" x="418.74" y="-561.2" font-family="Helvetica,sans-Serif" font-size="9.00" fill="grey">cluster</text>
</a>
</g>
</g>
<!-- crypto -->
<g id="node5" class="node">
<title>crypto</title>
<g id="a_node5"><a xlink:href="https://nodejs.org/api/crypto.html" xlink:title="crypto">
<path fill="#ffffcc" stroke="grey" d="M186.45,-413.75C186.45,-413.75 144.28,-413.75 144.28,-413.75 141.33,-413.75 138.37,-410.79 138.37,-407.83 138.37,-407.83 138.37,-401.92 138.37,-401.92 138.37,-398.96 141.33,-396 144.28,-396 144.28,-396 186.45,-396 186.45,-396 189.41,-396 192.37,-398.96 192.37,-401.92 192.37,-401.92 192.37,-407.83 192.37,-407.83 192.37,-410.79 189.41,-413.75 186.45,-413.75"/>
<text text-anchor="middle" x="165.37" y="-401.2" font-family="Helvetica,sans-Serif" font-size="9.00" fill="grey">crypto</text>
</a>
</g>
</g>
<!-- data/ -->
<g id="node6" class="node">
<title>data/</title>
<g id="a_node6"><a xlink:href="data/" xlink:title="data">
<polygon fill="#ffffcc" stroke="black" points="192.37,-499.75 140.34,-499.75 138.37,-497.78 138.37,-482 190.4,-482 192.37,-483.97 192.37,-499.75"/>
<polyline fill="none" stroke="black" points="190.4,-497.78 138.37,-497.78"/>
<polyline fill="none" stroke="black" points="190.4,-497.78 190.4,-482"/>
<polyline fill="none" stroke="black" points="190.4,-497.78 192.37,-499.75"/>
<text text-anchor="start" x="156.37" y="-487.2" font-family="Helvetica,sans-Serif" font-size="9.00">data</text>
</a>
</g>
</g>
<!-- lib/ -->
<g id="node7" class="node">
<title>lib/</title>
<g id="a_node7"><a xlink:href="lib/" xlink:title="lib">
<polygon fill="#ffffcc" stroke="black" points="353.12,-457.75 301.09,-457.75 299.12,-455.78 299.12,-440 351.15,-440 353.12,-441.97 353.12,-457.75"/>
<polyline fill="none" stroke="black" points="351.15,-455.78 299.12,-455.78"/>
<polyline fill="none" stroke="black" points="351.15,-455.78 351.15,-440"/>
<polyline fill="none" stroke="black" points="351.15,-455.78 353.12,-457.75"/>
<text text-anchor="start" x="321.24" y="-445.2" font-family="Helvetica,sans-Serif" font-size="9.00">lib</text>
</a>
</g>
</g>
<!-- data/&#45;&gt;lib/ -->
<g id="edge1" class="edge">
<title>data/&#45;&gt;lib/</title>
<path fill="none" stroke="#000000" stroke-width="2" stroke-opacity="0.200000" d="M192.46,-487.02C216.99,-483.02 254.55,-475.93 286.12,-465.88 289.94,-464.66 293.9,-463.19 297.76,-461.63"/>
<polygon fill="#000000" fill-opacity="0.200000" stroke="#000000" stroke-width="2" stroke-opacity="0.200000" points="298.49,-463.61 303.19,-459.33 296.85,-459.74 298.49,-463.61"/>
</g>
<!-- sim/ -->
<g id="node8" class="node">
<title>sim/</title>
<g id="a_node8"><a xlink:href="sim/" xlink:title="sim">
<polygon fill="#ffffcc" stroke="black" points="286.12,-459.75 234.09,-459.75 232.12,-457.78 232.12,-442 284.15,-442 286.12,-443.97 286.12,-459.75"/>
<polyline fill="none" stroke="black" points="284.15,-457.78 232.12,-457.78"/>
<polyline fill="none" stroke="black" points="284.15,-457.78 284.15,-442"/>
<polyline fill="none" stroke="black" points="284.15,-457.78 286.12,-459.75"/>
<text text-anchor="start" x="251.99" y="-447.2" font-family="Helvetica,sans-Serif" font-size="9.00">sim</text>
</a>
</g>
</g>
<!-- data/&#45;&gt;sim/ -->
<g id="edge2" class="edge">
<title>data/&#45;&gt;sim/</title>
<path fill="none" stroke="#000000" stroke-width="2" stroke-opacity="0.200000" d="M181.43,-481.53C192.14,-477.28 206.75,-472.41 219.12,-466.88 221.1,-465.99 223.12,-465.03 225.14,-464.03"/>
<polygon fill="#000000" fill-opacity="0.200000" stroke="#000000" stroke-width="2" stroke-opacity="0.200000" points="225.78,-466.06 230.18,-461.47 223.88,-462.32 225.78,-466.06"/>
</g>
<!-- lib/&#45;&gt;better&#45;sqlite3 -->
<g id="edge15" class="edge">
<title>lib/&#45;&gt;better&#45;sqlite3</title>
<g id="a_edge15"><a xlink:title="not&#45;to&#45;unresolvable">
<path fill="none" stroke="red" stroke-width="2" d="M328.15,-458.22C331.77,-489.16 344.75,-587.53 366.12,-609.88 368.88,-612.76 372.16,-615.1 375.7,-617"/>
<polygon fill="red" stroke="red" stroke-width="2" points="374.68,-618.84 381.02,-619.29 376.34,-614.99 374.68,-618.84"/>
</a>
</g>
<text text-anchor="middle" x="301.79" y="-533.83" font-family="Helvetica,sans-Serif" font-size="9.00" fill="red">not&#45;to&#45;unresolvable</text>
</g>
<!-- lib/&#45;&gt;child_process -->
<g id="edge10" class="edge">
<title>lib/&#45;&gt;child_process</title>
<path fill="none" stroke="#000000" stroke-dasharray="5,2" stroke-opacity="0.200000" d="M329.29,-457.97C336.11,-486.2 357.15,-570.97 366.12,-579.88 368.78,-582.52 371.88,-584.71 375.22,-586.51"/>
<polygon fill="#000000" fill-opacity="0.200000" stroke="#000000" stroke-opacity="0.200000" points="374.15,-588.33 380.49,-588.9 375.89,-584.51 374.15,-588.33"/>
</g>
<!-- lib/&#45;&gt;cluster -->
<g id="edge11" class="edge">
<title>lib/&#45;&gt;cluster</title>
<path fill="none" stroke="#000000" stroke-dasharray="5,2" stroke-opacity="0.200000" d="M327.99,-458.2C330.36,-478.05 338.7,-524.71 366.12,-549.88 371.17,-554.51 377.57,-557.72 384.13,-559.94"/>
<polygon fill="#000000" fill-opacity="0.200000" stroke="#000000" stroke-opacity="0.200000" points="383.45,-561.93 389.8,-561.57 384.61,-557.89 383.45,-561.93"/>
</g>
<!-- fs -->
<g id="node10" class="node">
<title>fs</title>
<g id="a_node10"><a xlink:href="https://nodejs.org/api/fs.html" xlink:title="fs">
<path fill="#ffffcc" stroke="grey" d="M439.83,-363.75C439.83,-363.75 397.66,-363.75 397.66,-363.75 394.7,-363.75 391.74,-360.79 391.74,-357.83 391.74,-357.83 391.74,-351.92 391.74,-351.92 391.74,-348.96 394.7,-346 397.66,-346 397.66,-346 439.83,-346 439.83,-346 442.78,-346 445.74,-348.96 445.74,-351.92 445.74,-351.92 445.74,-357.83 445.74,-357.83 445.74,-360.79 442.78,-363.75 439.83,-363.75"/>
<text text-anchor="middle" x="418.74" y="-351.2" font-family="Helvetica,sans-Serif" font-size="9.00" fill="grey">fs</text>
</a>
</g>
</g>
<!-- lib/&#45;&gt;fs -->
<g id="edge3" class="edge">
<title>lib/&#45;&gt;fs</title>
<path fill="none" stroke="#000000" stroke-dasharray="5,2" stroke-opacity="0.200000" d="M338.39,-439.65C343.58,-434.85 349.4,-428.59 353.12,-421.88 364.66,-401.03 349.59,-387.04 366.12,-369.88 371.07,-364.73 377.67,-361.32 384.5,-359.07"/>
<polygon fill="#000000" fill-opacity="0.200000" stroke="#000000" stroke-opacity="0.200000" points="384.66,-361.21 389.88,-357.59 383.54,-357.16 384.66,-361.21"/>
</g>
<!-- http -->
<g id="node12" class="node">
<title>http</title>
<g id="a_node12"><a xlink:href="https://nodejs.org/api/http.html" xlink:title="http">
<path fill="#ffffcc" stroke="grey" d="M439.83,-302.75C439.83,-302.75 397.66,-302.75 397.66,-302.75 394.7,-302.75 391.74,-299.79 391.74,-296.83 391.74,-296.83 391.74,-290.92 391.74,-290.92 391.74,-287.96 394.7,-285 397.66,-285 397.66,-285 439.83,-285 439.83,-285 442.78,-285 445.74,-287.96 445.74,-290.92 445.74,-290.92 445.74,-296.83 445.74,-296.83 445.74,-299.79 442.78,-302.75 439.83,-302.75"/>
<text text-anchor="middle" x="418.74" y="-290.2" font-family="Helvetica,sans-Serif" font-size="9.00" fill="grey">http</text>
</a>
</g>
</g>
<!-- lib/&#45;&gt;http -->
<g id="edge6" class="edge">
<title>lib/&#45;&gt;http</title>
<path fill="none" stroke="#000000" stroke-dasharray="5,2" stroke-opacity="0.200000" d="M326.88,-439.63C326.77,-414.99 329.93,-347.05 366.12,-309.88 371.12,-304.73 377.75,-301.23 384.58,-298.86"/>
<polygon fill="#000000" fill-opacity="0.200000" stroke="#000000" stroke-opacity="0.200000" points="384.81,-300.98 389.97,-297.26 383.62,-296.95 384.81,-300.98"/>
</g>
<!-- https -->
<g id="node13" class="node">
<title>https</title>
<g id="a_node13"><a xlink:href="https://nodejs.org/api/https.html" xlink:title="https">
<path fill="#ffffcc" stroke="grey" d="M439.83,-270.75C439.83,-270.75 397.66,-270.75 397.66,-270.75 394.7,-270.75 391.74,-267.79 391.74,-264.83 391.74,-264.83 391.74,-258.92 391.74,-258.92 391.74,-255.96 394.7,-253 397.66,-253 397.66,-253 439.83,-253 439.83,-253 442.78,-253 445.74,-255.96 445.74,-258.92 445.74,-258.92 445.74,-264.83 445.74,-264.83 445.74,-267.79 442.78,-270.75 439.83,-270.75"/>
<text text-anchor="middle" x="418.74" y="-258.2" font-family="Helvetica,sans-Serif" font-size="9.00" fill="grey">https</text>
</a>
</g>
</g>
<!-- lib/&#45;&gt;https -->
<g id="edge7" class="edge">
<title>lib/&#45;&gt;https</title>
<path fill="none" stroke="#000000" stroke-dasharray="5,2" stroke-opacity="0.200000" d="M328.02,-439.93C331.35,-408.42 343.99,-303.16 366.12,-278.88 371.03,-273.49 377.68,-269.8 384.56,-267.29"/>
<polygon fill="#000000" fill-opacity="0.200000" stroke="#000000" stroke-opacity="0.200000" points="384.93,-269.37 390.03,-265.59 383.68,-265.36 384.93,-269.37"/>
</g>
<!-- nodemailer -->
<g id="node14" class="node">
<title>nodemailer</title>
<g id="a_node14"><a xlink:title="nodemailer">
<path fill="#ffffcc" stroke="black" d="M444.08,-543.75C444.08,-543.75 393.41,-543.75 393.41,-543.75 390.45,-543.75 387.49,-540.79 387.49,-537.83 387.49,-537.83 387.49,-531.92 387.49,-531.92 387.49,-528.96 390.45,-526 393.41,-526 393.41,-526 444.08,-526 444.08,-526 447.03,-526 449.99,-528.96 449.99,-531.92 449.99,-531.92 449.99,-537.83 449.99,-537.83 449.99,-540.79 447.03,-543.75 444.08,-543.75"/>
<text text-anchor="middle" x="418.74" y="-531.2" font-family="Helvetica,sans-Serif" font-size="9.00">nodemailer</text>
</a>
</g>
</g>
<!-- lib/&#45;&gt;nodemailer -->
<g id="edge4" class="edge">
<title>lib/&#45;&gt;nodemailer</title>
<g id="a_edge4"><a xlink:title="not&#45;to&#45;unresolvable">
<path fill="none" stroke="red" stroke-width="2" d="M329.69,-458.23C334.37,-473.45 345.71,-503.52 366.12,-519.88 369.9,-522.9 374.26,-525.32 378.82,-527.25"/>
<polygon fill="red" stroke="red" stroke-width="2" points="377.95,-529.17 384.31,-529.2 379.36,-525.21 377.95,-529.17"/>
</a>
</g>
<text text-anchor="middle" x="309.12" y="-491.8" font-family="Helvetica,sans-Serif" font-size="9.00" fill="red">not&#45;to&#45;unresolvable</text>
</g>
<!-- path -->
<g id="node15" class="node">
<title>path</title>
<g id="a_node15"><a xlink:href="https://nodejs.org/api/path.html" xlink:title="path">
<path fill="#ffffcc" stroke="grey" d="M439.83,-333.75C439.83,-333.75 397.66,-333.75 397.66,-333.75 394.7,-333.75 391.74,-330.79 391.74,-327.83 391.74,-327.83 391.74,-321.92 391.74,-321.92 391.74,-318.96 394.7,-316 397.66,-316 397.66,-316 439.83,-316 439.83,-316 442.78,-316 445.74,-318.96 445.74,-321.92 445.74,-321.92 445.74,-327.83 445.74,-327.83 445.74,-330.79 442.78,-333.75 439.83,-333.75"/>
<text text-anchor="middle" x="418.74" y="-321.2" font-family="Helvetica,sans-Serif" font-size="9.00" fill="grey">path</text>
</a>
</g>
</g>
<!-- lib/&#45;&gt;path -->
<g id="edge5" class="edge">
<title>lib/&#45;&gt;path</title>
<path fill="none" stroke="#000000" stroke-dasharray="5,2" stroke-opacity="0.200000" d="M329.27,-439.65C334.97,-416 351.04,-354.06 366.12,-339.88 371.16,-335.13 377.61,-331.88 384.24,-329.65"/>
<polygon fill="#000000" fill-opacity="0.200000" stroke="#000000" stroke-opacity="0.200000" points="384.78,-331.68 389.98,-328.02 383.63,-327.64 384.78,-331.68"/>
</g>
<!-- url -->
<g id="node16" class="node">
<title>url</title>
<g id="a_node16"><a xlink:href="https://nodejs.org/api/url.html" xlink:title="url">
<path fill="#ffffcc" stroke="grey" d="M439.83,-513.75C439.83,-513.75 397.66,-513.75 397.66,-513.75 394.7,-513.75 391.74,-510.79 391.74,-507.83 391.74,-507.83 391.74,-501.92 391.74,-501.92 391.74,-498.96 394.7,-496 397.66,-496 397.66,-496 439.83,-496 439.83,-496 442.78,-496 445.74,-498.96 445.74,-501.92 445.74,-501.92 445.74,-507.83 445.74,-507.83 445.74,-510.79 442.78,-513.75 439.83,-513.75"/>
<text text-anchor="middle" x="418.74" y="-501.2" font-family="Helvetica,sans-Serif" font-size="9.00" fill="grey">url</text>
</a>
</g>
</g>
<!-- lib/&#45;&gt;url -->
<g id="edge8" class="edge">
<title>lib/&#45;&gt;url</title>
<path fill="none" stroke="#000000" stroke-dasharray="5,2" stroke-opacity="0.200000" d="M333.53,-458.05C340.52,-467.38 352.52,-481.6 366.12,-489.88 371.74,-493.3 378.18,-495.97 384.56,-498.05"/>
<polygon fill="#000000" fill-opacity="0.200000" stroke="#000000" stroke-opacity="0.200000" points="383.62,-499.96 389.97,-499.65 384.81,-495.93 383.62,-499.96"/>
</g>
<!-- pg -->
<g id="node17" class="node">
<title>pg</title>
<g id="a_node17"><a xlink:title="pg">
<path fill="#ffffcc" stroke="black" d="M439.83,-483.75C439.83,-483.75 397.66,-483.75 397.66,-483.75 394.7,-483.75 391.74,-480.79 391.74,-477.83 391.74,-477.83 391.74,-471.92 391.74,-471.92 391.74,-468.96 394.7,-466 397.66,-466 397.66,-466 439.83,-466 439.83,-466 442.78,-466 445.74,-468.96 445.74,-471.92 445.74,-471.92 445.74,-477.83 445.74,-477.83 445.74,-480.79 442.78,-483.75 439.83,-483.75"/>
<text text-anchor="middle" x="418.74" y="-471.2" font-family="Helvetica,sans-Serif" font-size="9.00">pg</text>
</a>
</g>
</g>
<!-- lib/&#45;&gt;pg -->
<g id="edge9" class="edge">
<title>lib/&#45;&gt;pg</title>
<g id="a_edge9"><a xlink:title="not&#45;to&#45;unresolvable">
<path fill="none" stroke="red" stroke-width="2" d="M353.33,-456.4C362.55,-459.04 373.06,-462.06 382.88,-464.87"/>
<polygon fill="red" stroke="red" stroke-width="2" points="382.02,-466.81 388.37,-466.45 383.18,-462.77 382.02,-466.81"/>
</a>
</g>
<text text-anchor="middle" x="332.36" y="-462.98" font-family="Helvetica,sans-Serif" font-size="9.00" fill="red">not&#45;to&#45;unresolvable</text>
</g>
<!-- net -->
<g id="node18" class="node">
<title>net</title>
<g id="a_node18"><a xlink:href="https://nodejs.org/api/net.html" xlink:title="net">
<path fill="#ffffcc" stroke="grey" d="M439.83,-236.75C439.83,-236.75 397.66,-236.75 397.66,-236.75 394.7,-236.75 391.74,-233.79 391.74,-230.83 391.74,-230.83 391.74,-224.92 391.74,-224.92 391.74,-221.96 394.7,-219 397.66,-219 397.66,-219 439.83,-219 439.83,-219 442.78,-219 445.74,-221.96 445.74,-224.92 445.74,-224.92 445.74,-230.83 445.74,-230.83 445.74,-233.79 442.78,-236.75 439.83,-236.75"/>
<text text-anchor="middle" x="418.74" y="-224.2" font-family="Helvetica,sans-Serif" font-size="9.00" fill="grey">net</text>
</a>
</g>
</g>
<!-- lib/&#45;&gt;net -->
<g id="edge12" class="edge">
<title>lib/&#45;&gt;net</title>
<path fill="none" stroke="#000000" stroke-dasharray="5,2" stroke-opacity="0.200000" d="M327.7,-439.79C330.16,-404.48 340.67,-276.81 366.12,-246.88 370.9,-241.25 377.49,-237.29 384.37,-234.51"/>
<polygon fill="#000000" fill-opacity="0.200000" stroke="#000000" stroke-opacity="0.200000" points="384.89,-236.55 389.86,-232.59 383.5,-232.58 384.89,-236.55"/>
</g>
<!-- node&#45;oom&#45;heapdump -->
<g id="node19" class="node">
<title>node&#45;oom&#45;heapdump</title>
<g id="a_node19"><a xlink:title="node&#45;oom&#45;heapdump">
<path fill="#ffffcc" stroke="black" d="M465.45,-197.75C465.45,-197.75 372.03,-197.75 372.03,-197.75 369.08,-197.75 366.12,-194.79 366.12,-191.83 366.12,-191.83 366.12,-185.92 366.12,-185.92 366.12,-182.96 369.08,-180 372.03,-180 372.03,-180 465.45,-180 465.45,-180 468.41,-180 471.37,-182.96 471.37,-185.92 471.37,-185.92 471.37,-191.83 471.37,-191.83 471.37,-194.79 468.41,-197.75 465.45,-197.75"/>
<text text-anchor="middle" x="418.74" y="-185.2" font-family="Helvetica,sans-Serif" font-size="9.00">node&#45;oom&#45;heapdump</text>
</a>
</g>
</g>
<!-- lib/&#45;&gt;node&#45;oom&#45;heapdump -->
<g id="edge13" class="edge">
<title>lib/&#45;&gt;node&#45;oom&#45;heapdump</title>
<g id="a_edge13"><a xlink:title="not&#45;to&#45;unresolvable">
<path fill="none" stroke="red" stroke-width="2" d="M327.51,-439.7C329.34,-400.78 338.17,-249.66 366.12,-212.88 369.26,-208.74 373.28,-205.29 377.7,-202.42"/>
<polygon fill="red" stroke="red" stroke-width="2" points="378.55,-204.35 382.77,-199.6 376.5,-200.69 378.55,-204.35"/>
</a>
</g>
<text text-anchor="middle" x="298.5" y="-307.54" font-family="Helvetica,sans-Serif" font-size="9.00" fill="red">not&#45;to&#45;unresolvable</text>
</g>
<!-- repl -->
<g id="node20" class="node">
<title>repl</title>
<g id="a_node20"><a xlink:href="https://nodejs.org/api/repl.html" xlink:title="repl">
<path fill="#ffffcc" stroke="grey" d="M439.83,-453.75C439.83,-453.75 397.66,-453.75 397.66,-453.75 394.7,-453.75 391.74,-450.79 391.74,-447.83 391.74,-447.83 391.74,-441.92 391.74,-441.92 391.74,-438.96 394.7,-436 397.66,-436 397.66,-436 439.83,-436 439.83,-436 442.78,-436 445.74,-438.96 445.74,-441.92 445.74,-441.92 445.74,-447.83 445.74,-447.83 445.74,-450.79 442.78,-453.75 439.83,-453.75"/>
<text text-anchor="middle" x="418.74" y="-441.2" font-family="Helvetica,sans-Serif" font-size="9.00" fill="grey">repl</text>
</a>
</g>
</g>
<!-- lib/&#45;&gt;repl -->
<g id="edge14" class="edge">
<title>lib/&#45;&gt;repl</title>
<path fill="none" stroke="#000000" stroke-dasharray="5,2" stroke-opacity="0.200000" d="M353.33,-447.72C362.92,-447.29 373.91,-446.81 384.06,-446.36"/>
<polygon fill="#000000" fill-opacity="0.200000" stroke="#000000" stroke-opacity="0.200000" points="383.86,-448.47 389.76,-446.11 383.68,-444.28 383.86,-448.47"/>
</g>
<!-- sql&#45;template&#45;strings -->
<g id="node21" class="node">
<title>sql&#45;template&#45;strings</title>
<g id="a_node21"><a xlink:title="sql&#45;template&#45;strings">
<path fill="#ffffcc" stroke="black" d="M460.95,-423.75C460.95,-423.75 376.53,-423.75 376.53,-423.75 373.58,-423.75 370.62,-420.79 370.62,-417.83 370.62,-417.83 370.62,-411.92 370.62,-411.92 370.62,-408.96 373.58,-406 376.53,-406 376.53,-406 460.95,-406 460.95,-406 463.91,-406 466.87,-408.96 466.87,-411.92 466.87,-411.92 466.87,-417.83 466.87,-417.83 466.87,-420.79 463.91,-423.75 460.95,-423.75"/>
<text text-anchor="middle" x="418.74" y="-411.2" font-family="Helvetica,sans-Serif" font-size="9.00">sql&#45;template&#45;strings</text>
</a>
</g>
</g>
<!-- lib/&#45;&gt;sql&#45;template&#45;strings -->
<g id="edge16" class="edge">
<title>lib/&#45;&gt;sql&#45;template&#45;strings</title>
<g id="a_edge16"><a xlink:title="not&#45;to&#45;unresolvable">
<path fill="none" stroke="red" stroke-width="2" d="M344.7,-439.52C351.3,-436.22 358.95,-432.64 366.12,-429.88 368.65,-428.9 371.27,-427.95 373.93,-427.04"/>
<polygon fill="red" stroke="red" stroke-width="2" points="374.55,-429.04 379.61,-425.19 373.25,-425.05 374.55,-429.04"/>
</a>
</g>
<text text-anchor="middle" x="326.43" y="-421.3" font-family="Helvetica,sans-Serif" font-size="9.00" fill="red">not&#45;to&#45;unresolvable</text>
</g>
<!-- mysql2 -->
<g id="node22" class="node">
<title>mysql2</title>
<g id="a_node22"><a xlink:title="mysql2">
<path fill="#ffffcc" stroke="black" d="M439.83,-393.75C439.83,-393.75 397.66,-393.75 397.66,-393.75 394.7,-393.75 391.74,-390.79 391.74,-387.83 391.74,-387.83 391.74,-381.92 391.74,-381.92 391.74,-378.96 394.7,-376 397.66,-376 397.66,-376 439.83,-376 439.83,-376 442.78,-376 445.74,-378.96 445.74,-381.92 445.74,-381.92 445.74,-387.83 445.74,-387.83 445.74,-390.79 442.78,-393.75 439.83,-393.75"/>
<text text-anchor="middle" x="418.74" y="-381.2" font-family="Helvetica,sans-Serif" font-size="9.00">mysql2</text>
</a>
</g>
</g>
<!-- lib/&#45;&gt;mysql2 -->
<g id="edge17" class="edge">
<title>lib/&#45;&gt;mysql2</title>
<g id="a_edge17"><a xlink:title="not&#45;to&#45;unresolvable">
<path fill="none" stroke="red" stroke-width="2" d="M337.08,-439.62C342.18,-434.62 348.31,-428.19 353.12,-421.88 359.99,-412.83 357.14,-406.84 366.12,-399.88 370.97,-396.11 376.75,-393.29 382.64,-391.17"/>
<polygon fill="red" stroke="red" stroke-width="2" points="383.25,-393.18 388.38,-389.43 382.03,-389.16 383.25,-393.18"/>
</a>
</g>
<text text-anchor="middle" x="318.38" y="-403.55" font-family="Helvetica,sans-Serif" font-size="9.00" fill="red">not&#45;to&#45;unresolvable</text>
</g>
<!-- sim/&#45;&gt;data/ -->
<g id="edge42" class="edge">
<title>sim/&#45;&gt;data/</title>
<path fill="none" stroke="#000000" stroke-width="2" stroke-opacity="0.200000" d="M250.57,-460.23C242.87,-466.47 230.47,-473.79 219.12,-478.88 213.35,-481.46 207.09,-483.9 200.97,-485.99"/>
<polygon fill="#000000" fill-opacity="0.200000" stroke="#000000" stroke-width="2" stroke-opacity="0.200000" points="200.72,-483.87 195.64,-487.7 202,-487.87 200.72,-483.87"/>
</g>
<!-- sim/&#45;&gt;lib/ -->
<g id="edge39" class="edge">
<title>sim/&#45;&gt;lib/</title>
<path fill="none" stroke="#000000" stroke-width="2" stroke-opacity="0.200000" d="M286.56,-450.06C287.7,-450.03 288.86,-449.99 290.02,-449.95"/>
<polygon fill="#000000" fill-opacity="0.200000" stroke="#000000" stroke-width="2" stroke-opacity="0.200000" points="289.96,-452.06 295.89,-449.77 289.83,-447.86 289.96,-452.06"/>
</g>
<!-- sim/&#45;&gt;fs -->
<g id="edge40" class="edge">
<title>sim/&#45;&gt;fs</title>
<path fill="none" stroke="#000000" stroke-dasharray="5,2" stroke-opacity="0.200000" d="M276.72,-441.63C296.27,-430.28 329.12,-409.7 353.12,-386.88 360.01,-380.32 358.27,-375.25 366.12,-369.88 371.6,-366.12 378.03,-363.29 384.46,-361.17"/>
<polygon fill="#000000" fill-opacity="0.200000" stroke="#000000" stroke-opacity="0.200000" points="384.77,-363.27 389.93,-359.56 383.58,-359.24 384.77,-363.27"/>
</g>
<!-- sim/&#45;&gt;path -->
<g id="edge41" class="edge">
<title>sim/&#45;&gt;path</title>
<path fill="none" stroke="#000000" stroke-dasharray="5,2" stroke-opacity="0.200000" d="M263.79,-441.77C269.67,-428.02 282.27,-401.66 299.12,-383.88 323.62,-358.01 333.76,-354.79 366.12,-339.88 371.84,-337.24 378.14,-334.94 384.32,-333"/>
<polygon fill="#000000" fill-opacity="0.200000" stroke="#000000" stroke-opacity="0.200000" points="384.85,-335.03 390.01,-331.31 383.66,-331.01 384.85,-335.03"/>
</g>
<!-- dns -->
<g id="node9" class="node">
<title>dns</title>
<g id="a_node9"><a xlink:href="https://nodejs.org/api/dns.html" xlink:title="dns">
<path fill="#ffffcc" stroke="grey" d="M186.45,-331.75C186.45,-331.75 144.28,-331.75 144.28,-331.75 141.33,-331.75 138.37,-328.79 138.37,-325.83 138.37,-325.83 138.37,-319.92 138.37,-319.92 138.37,-316.96 141.33,-314 144.28,-314 144.28,-314 186.45,-314 186.45,-314 189.41,-314 192.37,-316.96 192.37,-319.92 192.37,-319.92 192.37,-325.83 192.37,-325.83 192.37,-328.79 189.41,-331.75 186.45,-331.75"/>
<text text-anchor="middle" x="165.37" y="-319.2" font-family="Helvetica,sans-Serif" font-size="9.00" fill="grey">dns</text>
</a>
</g>
</g>
<!-- githubhook -->
<g id="node11" class="node">
<title>githubhook</title>
<g id="a_node11"><a xlink:title="githubhook">
<path fill="#ffffcc" stroke="black" d="M190.33,-301.75C190.33,-301.75 140.41,-301.75 140.41,-301.75 137.45,-301.75 134.49,-298.79 134.49,-295.83 134.49,-295.83 134.49,-289.92 134.49,-289.92 134.49,-286.96 137.45,-284 140.41,-284 140.41,-284 190.33,-284 190.33,-284 193.28,-284 196.24,-286.96 196.24,-289.92 196.24,-289.92 196.24,-295.83 196.24,-295.83 196.24,-298.79 193.28,-301.75 190.33,-301.75"/>
<text text-anchor="middle" x="165.37" y="-289.2" font-family="Helvetica,sans-Serif" font-size="9.00">githubhook</text>
</a>
</g>
</g>
<!-- node&#45;static -->
<g id="node23" class="node">
<title>node&#45;static</title>
<g id="a_node23"><a xlink:title="node&#45;static">
<path fill="#ffffcc" stroke="black" d="M189.95,-167.75C189.95,-167.75 140.78,-167.75 140.78,-167.75 137.83,-167.75 134.87,-164.79 134.87,-161.83 134.87,-161.83 134.87,-155.92 134.87,-155.92 134.87,-152.96 137.83,-150 140.78,-150 140.78,-150 189.95,-150 189.95,-150 192.91,-150 195.87,-152.96 195.87,-155.92 195.87,-155.92 195.87,-161.83 195.87,-161.83 195.87,-164.79 192.91,-167.75 189.95,-167.75"/>
<text text-anchor="middle" x="165.37" y="-155.2" font-family="Helvetica,sans-Serif" font-size="9.00">node&#45;static</text>
</a>
</g>
</g>
<!-- permessage&#45;deflate -->
<g id="node24" class="node">
<title>permessage&#45;deflate</title>
<g id="a_node24"><a xlink:title="permessage&#45;deflate">
<path fill="#ffffcc" stroke="black" d="M208.33,-137.75C208.33,-137.75 122.41,-137.75 122.41,-137.75 119.45,-137.75 116.49,-134.79 116.49,-131.83 116.49,-131.83 116.49,-125.92 116.49,-125.92 116.49,-122.96 119.45,-120 122.41,-120 122.41,-120 208.33,-120 208.33,-120 211.28,-120 214.24,-122.96 214.24,-125.92 214.24,-125.92 214.24,-131.83 214.24,-131.83 214.24,-134.79 211.28,-137.75 208.33,-137.75"/>
<text text-anchor="middle" x="165.37" y="-125.2" font-family="Helvetica,sans-Serif" font-size="9.00">permessage&#45;deflate</text>
</a>
</g>
</g>
<!-- preact -->
<g id="node25" class="node">
<title>preact</title>
<g id="a_node25"><a xlink:title="preact">
<path fill="#ffffcc" stroke="black" d="M186.45,-107.75C186.45,-107.75 144.28,-107.75 144.28,-107.75 141.33,-107.75 138.37,-104.79 138.37,-101.83 138.37,-101.83 138.37,-95.92 138.37,-95.92 138.37,-92.96 141.33,-90 144.28,-90 144.28,-90 186.45,-90 186.45,-90 189.41,-90 192.37,-92.96 192.37,-95.92 192.37,-95.92 192.37,-101.83 192.37,-101.83 192.37,-104.79 189.41,-107.75 186.45,-107.75"/>
<text text-anchor="middle" x="165.37" y="-95.2" font-family="Helvetica,sans-Serif" font-size="9.00">preact</text>
</a>
</g>
</g>
<!-- preact&#45;render&#45;to&#45;string -->
<g id="node26" class="node">
<title>preact&#45;render&#45;to&#45;string</title>
<g id="a_node26"><a xlink:title="preact&#45;render&#45;to&#45;string">
<path fill="#ffffcc" stroke="black" d="M213.2,-77.75C213.2,-77.75 117.53,-77.75 117.53,-77.75 114.58,-77.75 111.62,-74.79 111.62,-71.83 111.62,-71.83 111.62,-65.92 111.62,-65.92 111.62,-62.96 114.58,-60 117.53,-60 117.53,-60 213.2,-60 213.2,-60 216.16,-60 219.12,-62.96 219.12,-65.92 219.12,-65.92 219.12,-71.83 219.12,-71.83 219.12,-74.79 216.16,-77.75 213.2,-77.75"/>
<text text-anchor="middle" x="165.37" y="-65.2" font-family="Helvetica,sans-Serif" font-size="9.00">preact&#45;render&#45;to&#45;string</text>
</a>
</g>
</g>
<!-- server/ -->
<g id="node27" class="node">
<title>server/</title>
<g id="a_node27"><a xlink:href="server/" xlink:title="no&#45;orphans">
<polygon fill="#ccffcc" stroke="orange" points="98.62,-301.75 46.59,-301.75 44.62,-299.78 44.62,-284 96.65,-284 98.62,-285.97 98.62,-301.75"/>
<polyline fill="none" stroke="orange" points="96.65,-299.78 44.62,-299.78"/>
<polyline fill="none" stroke="orange" points="96.65,-299.78 96.65,-284"/>
<polyline fill="none" stroke="orange" points="96.65,-299.78 98.62,-301.75"/>
<text text-anchor="start" x="58.87" y="-289.2" font-family="Helvetica,sans-Serif" font-size="9.00" fill="orange">server</text>
</a>
</g>
</g>
<!-- server/&#45;&gt;better&#45;sqlite3 -->
<g id="edge21" class="edge">
<title>server/&#45;&gt;better&#45;sqlite3</title>
<g id="a_edge21"><a xlink:title="not&#45;to&#45;unresolvable">
<path fill="none" stroke="red" stroke-width="2" d="M72.63,-302.13C72.9,-345.17 76.15,-525.34 111.62,-565.88 177.45,-641.11 307.65,-638.49 375.06,-631.2"/>
<polygon fill="red" stroke="red" stroke-width="2" points="375.02,-633.32 380.74,-630.54 374.54,-629.15 375.02,-633.32"/>
</a>
</g>
<text text-anchor="middle" x="99.09" y="-581.87" font-family="Helvetica,sans-Serif" font-size="9.00" fill="red">not&#45;to&#45;unresolvable</text>
</g>
<!-- server/&#45;&gt;child_process -->
<g id="edge20" class="edge">
<title>server/&#45;&gt;child_process</title>
<path fill="none" stroke="#000000" stroke-dasharray="5,2" stroke-opacity="0.200000" d="M72.82,-302.18C73.86,-341.63 79.92,-494.52 111.62,-527.88 180.36,-600.22 307.76,-603.29 374.46,-599.22"/>
<polygon fill="#000000" fill-opacity="0.200000" stroke="#000000" stroke-opacity="0.200000" points="374.54,-601.31 380.39,-598.82 374.26,-597.12 374.54,-601.31"/>
</g>
<!-- server/&#45;&gt;cloud&#45;env -->
<g id="edge32" class="edge">
<title>server/&#45;&gt;cloud&#45;env</title>
<g id="a_edge32"><a xlink:title="not&#45;to&#45;unresolvable">
<path fill="none" stroke="red" stroke-width="2" d="M72.62,-302.05C73.15,-325.25 77.84,-386.79 111.62,-419.88 116.25,-424.41 122.14,-427.59 128.31,-429.82"/>
<polygon fill="red" stroke="red" stroke-width="2" points="127.53,-431.78 133.88,-431.46 128.71,-427.75 127.53,-431.78"/>
</a>
</g>
<text text-anchor="middle" x="44.64" y="-365.1" font-family="Helvetica,sans-Serif" font-size="9.00" fill="red">not&#45;to&#45;unresolvable</text>
</g>
<!-- server/&#45;&gt;crypto -->
<g id="edge28" class="edge">
<title>server/&#45;&gt;crypto</title>
<path fill="none" stroke="#000000" stroke-dasharray="5,2" stroke-opacity="0.200000" d="M73.88,-302.04C76.91,-320.67 86.35,-363.19 111.62,-386.88 117.02,-391.94 123.9,-395.58 130.9,-398.2"/>
<polygon fill="#000000" fill-opacity="0.200000" stroke="#000000" stroke-opacity="0.200000" points="130.09,-400.15 136.45,-400.03 131.4,-396.16 130.09,-400.15"/>
</g>
<!-- server/&#45;&gt;data/ -->
<g id="edge30" class="edge">
<title>server/&#45;&gt;data/</title>
<path fill="none" stroke="#000000" stroke-width="2" stroke-opacity="0.200000" d="M73.41,-301.88C76.45,-334.62 88.44,-446.85 111.62,-472.88 116.37,-478.21 122.77,-481.96 129.47,-484.61"/>
<polygon fill="#000000" fill-opacity="0.200000" stroke="#000000" stroke-width="2" stroke-opacity="0.200000" points="128.78,-486.59 135.14,-486.46 130.08,-482.6 128.78,-486.59"/>
</g>
<!-- server/&#45;&gt;lib/ -->
<g id="edge18" class="edge">
<title>server/&#45;&gt;lib/</title>
<path fill="none" stroke="#000000" stroke-width="2" stroke-opacity="0.200000" d="M72.82,-302.24C73.83,-339.86 79.71,-479.28 111.62,-505.88 171.75,-556 218.3,-520.98 286.12,-481.88 294.65,-476.96 303.11,-470.1 309.96,-463.91"/>
<polygon fill="#000000" fill-opacity="0.200000" stroke="#000000" stroke-width="2" stroke-opacity="0.200000" points="311.08,-465.75 314.01,-460.11 308.2,-462.68 311.08,-465.75"/>
</g>
<!-- server/&#45;&gt;sim/ -->
<g id="edge19" class="edge">
<title>server/&#45;&gt;sim/</title>
<path fill="none" stroke="#000000" stroke-width="2" stroke-opacity="0.200000" d="M73.47,-302.23C76.51,-333.15 87.9,-431.2 111.62,-449.88 142.85,-474.47 190.56,-469.41 222.98,-461.73"/>
<polygon fill="#000000" fill-opacity="0.200000" stroke="#000000" stroke-width="2" stroke-opacity="0.200000" points="223.46,-463.77 228.76,-460.26 222.43,-459.7 223.46,-463.77"/>
</g>
<!-- server/&#45;&gt;dns -->
<g id="edge25" class="edge">
<title>server/&#45;&gt;dns</title>
<path fill="none" stroke="#000000" stroke-dasharray="5,2" stroke-opacity="0.200000" d="M95.59,-302.11C100.83,-304.1 106.39,-306.13 111.62,-307.88 117.85,-309.96 124.56,-312 131.03,-313.89"/>
<polygon fill="#000000" fill-opacity="0.200000" stroke="#000000" stroke-opacity="0.200000" points="130.13,-315.81 136.47,-315.44 131.28,-311.78 130.13,-315.81"/>
</g>
<!-- server/&#45;&gt;fs -->
<g id="edge33" class="edge">
<title>server/&#45;&gt;fs</title>
<path fill="none" stroke="#000000" stroke-dasharray="5,2" stroke-opacity="0.200000" d="M75.6,-302.12C80.58,-315.84 92.02,-341.13 111.62,-351.88 199.88,-400.28 325.1,-378.7 384.29,-364.2"/>
<polygon fill="#000000" fill-opacity="0.200000" stroke="#000000" stroke-opacity="0.200000" points="384.74,-366.25 390.04,-362.75 383.71,-362.18 384.74,-366.25"/>
</g>
<!-- server/&#45;&gt;githubhook -->
<g id="edge29" class="edge">
<title>server/&#45;&gt;githubhook</title>
<g id="a_edge29"><a xlink:title="not&#45;to&#45;unresolvable">
<path fill="none" stroke="red" stroke-width="2" d="M98.66,-292.88C106.93,-292.88 116.26,-292.88 125.23,-292.88"/>
<polygon fill="red" stroke="red" stroke-width="2" points="125.01,-294.98 131.01,-292.88 125.01,-290.78 125.01,-294.98"/>
</a>
</g>
<text text-anchor="middle" x="76.58" y="-294.07" font-family="Helvetica,sans-Serif" font-size="9.00" fill="red">not&#45;to&#45;unresolvable</text>
</g>
<!-- server/&#45;&gt;http -->
<g id="edge34" class="edge">
<title>server/&#45;&gt;http</title>
<path fill="none" stroke="#000000" stroke-dasharray="5,2" stroke-opacity="0.200000" d="M92.45,-283.64C98.47,-281.27 105.2,-279.07 111.62,-277.88 209.27,-259.74 327.23,-276.55 383.99,-286.99"/>
<polygon fill="#000000" fill-opacity="0.200000" stroke="#000000" stroke-opacity="0.200000" points="383.49,-289.03 389.77,-288.08 384.26,-284.91 383.49,-289.03"/>
</g>
<!-- server/&#45;&gt;https -->
<g id="edge35" class="edge">
<title>server/&#45;&gt;https</title>
<path fill="none" stroke="#000000" stroke-dasharray="5,2" stroke-opacity="0.200000" d="M82.3,-283.7C89.7,-277.35 100.48,-269.43 111.62,-265.88 206.59,-235.53 326.74,-247.5 384.18,-256.08"/>
<polygon fill="#000000" fill-opacity="0.200000" stroke="#000000" stroke-opacity="0.200000" points="383.78,-258.14 390.03,-256.98 384.42,-253.99 383.78,-258.14"/>
</g>
<!-- server/&#45;&gt;path -->
<g id="edge22" class="edge">
<title>server/&#45;&gt;path</title>
<path fill="none" stroke="#000000" stroke-dasharray="5,2" stroke-opacity="0.200000" d="M77.45,-302.23C83.68,-313.13 95.63,-330.57 111.62,-337.88 159.36,-359.67 315.36,-340.15 384.38,-330.05"/>
<polygon fill="#000000" fill-opacity="0.200000" stroke="#000000" stroke-opacity="0.200000" points="384.44,-332.16 390.07,-329.21 383.83,-328.01 384.44,-332.16"/>
</g>
<!-- server/&#45;&gt;net -->
<g id="edge26" class="edge">
<title>server/&#45;&gt;net</title>
<path fill="none" stroke="#000000" stroke-dasharray="5,2" stroke-opacity="0.200000" d="M76.88,-283.68C82.82,-272.06 94.8,-252.53 111.62,-243.88 201.01,-197.86 325.18,-211.05 384.11,-221.12"/>
<polygon fill="#000000" fill-opacity="0.200000" stroke="#000000" stroke-opacity="0.200000" points="383.55,-223.15 389.82,-222.12 384.28,-219.01 383.55,-223.15"/>
</g>
<!-- server/&#45;&gt;node&#45;oom&#45;heapdump -->
<g id="edge31" class="edge">
<title>server/&#45;&gt;node&#45;oom&#45;heapdump</title>
<g id="a_edge31"><a xlink:title="not&#45;to&#45;unresolvable">
<path fill="none" stroke="red" stroke-width="2" d="M73.98,-283.54C77.09,-265.93 86.49,-228.04 111.62,-210.88 150.17,-184.54 279.39,-183.95 357.09,-186.2"/>
<polygon fill="red" stroke="red" stroke-width="2" points="356.74,-188.29 362.8,-186.38 356.87,-184.09 356.74,-188.29"/>
</a>
</g>
<text text-anchor="middle" x="176.64" y="-179.5" font-family="Helvetica,sans-Serif" font-size="9.00" fill="red">not&#45;to&#45;unresolvable</text>
</g>
<!-- server/&#45;&gt;node&#45;static -->
<g id="edge36" class="edge">
<title>server/&#45;&gt;node&#45;static</title>
<g id="a_edge36"><a xlink:title="not&#45;to&#45;unresolvable">
<path fill="none" stroke="red" stroke-width="2" d="M73.05,-283.63C74.56,-261.93 81.34,-207.29 111.62,-176.88 115.79,-172.68 120.98,-169.47 126.46,-167"/>
<polygon fill="red" stroke="red" stroke-width="2" points="126.93,-169.07 131.79,-164.97 125.43,-165.14 126.93,-169.07"/>
</a>
</g>
<text text-anchor="middle" x="47.12" y="-208.8" font-family="Helvetica,sans-Serif" font-size="9.00" fill="red">not&#45;to&#45;unresolvable</text>
</g>
<!-- server/&#45;&gt;permessage&#45;deflate -->
<g id="edge37" class="edge">
<title>server/&#45;&gt;permessage&#45;deflate</title>
<g id="a_edge37"><a xlink:title="not&#45;to&#45;unresolvable">
<path fill="none" stroke="red" stroke-width="2" d="M72.12,-283.69C71.27,-257.85 72.52,-183.81 111.62,-143.88 111.75,-143.74 111.89,-143.6 112.02,-143.47"/>
<polygon fill="red" stroke="red" stroke-width="2" points="112.93,-145.42 116.39,-140.08 110.36,-142.1 112.93,-145.42"/>
</a>
</g>
<text text-anchor="middle" x="39.75" y="-198.53" font-family="Helvetica,sans-Serif" font-size="9.00" fill="red">not&#45;to&#45;unresolvable</text>
</g>
<!-- server/&#45;&gt;preact -->
<g id="edge23" class="edge">
<title>server/&#45;&gt;preact</title>
<g id="a_edge23"><a xlink:title="not&#45;to&#45;unresolvable">
<path fill="none" stroke="red" stroke-width="2" d="M73.37,-283.88C76.29,-251.18 87.88,-139.14 111.62,-113.88 116.43,-108.75 122.85,-105.34 129.56,-103.07"/>
<polygon fill="red" stroke="red" stroke-width="2" points="129.93,-105.14 135.18,-101.56 128.84,-101.09 129.93,-105.14"/>
</a>
</g>
<text text-anchor="middle" x="125.79" y="-189.88" font-family="Helvetica,sans-Serif" font-size="9.00" fill="red">not&#45;to&#45;unresolvable</text>
</g>
<!-- server/&#45;&gt;preact&#45;render&#45;to&#45;string -->
<g id="edge24" class="edge">
<title>server/&#45;&gt;preact&#45;render&#45;to&#45;string</title>
<g id="a_edge24"><a xlink:title="not&#45;to&#45;unresolvable">
<path fill="none" stroke="red" stroke-width="2" d="M73.06,-283.91C75.04,-247.88 84.14,-114.02 111.62,-83.88 111.75,-83.73 111.88,-83.59 112.01,-83.46"/>
<polygon fill="red" stroke="red" stroke-width="2" points="112.94,-85.4 116.26,-79.98 110.28,-82.15 112.94,-85.4"/>
</a>
</g>
<text text-anchor="middle" x="43.38" y="-170.69" font-family="Helvetica,sans-Serif" font-size="9.00" fill="red">not&#45;to&#45;unresolvable</text>
</g>
<!-- source&#45;map&#45;support -->
<g id="node28" class="node">
<title>source&#45;map&#45;support</title>
<g id="a_node28"><a xlink:title="source&#45;map&#45;support">
<path fill="#ffffcc" stroke="black" d="M208.7,-47.75C208.7,-47.75 122.03,-47.75 122.03,-47.75 119.08,-47.75 116.12,-44.79 116.12,-41.83 116.12,-41.83 116.12,-35.92 116.12,-35.92 116.12,-32.96 119.08,-30 122.03,-30 122.03,-30 208.7,-30 208.7,-30 211.66,-30 214.62,-32.96 214.62,-35.92 214.62,-35.92 214.62,-41.83 214.62,-41.83 214.62,-44.79 211.66,-47.75 208.7,-47.75"/>
<text text-anchor="middle" x="165.37" y="-35.2" font-family="Helvetica,sans-Serif" font-size="9.00">source&#45;map&#45;support</text>
</a>
</g>
</g>
<!-- server/&#45;&gt;source&#45;map&#45;support -->
<g id="edge27" class="edge">
<title>server/&#45;&gt;source&#45;map&#45;support</title>
<g id="a_edge27"><a xlink:title="not&#45;to&#45;unresolvable">
<path fill="none" stroke="red" stroke-width="2" d="M72.84,-283.73C73.99,-244.25 80.44,-88.88 111.62,-53.88 111.74,-53.73 111.87,-53.59 112,-53.45"/>
<polygon fill="red" stroke="red" stroke-width="2" points="112.95,-55.4 116.21,-49.94 110.26,-52.17 112.95,-55.4"/>
</a>
</g>
<text text-anchor="middle" x="41.55" y="-155.75" font-family="Helvetica,sans-Serif" font-size="9.00" fill="red">not&#45;to&#45;unresolvable</text>
</g>
<!-- sockjs -->
<g id="node29" class="node">
<title>sockjs</title>
<g id="a_node29"><a xlink:title="sockjs">
<path fill="#ffffcc" stroke="black" d="M186.45,-17.75C186.45,-17.75 144.28,-17.75 144.28,-17.75 141.33,-17.75 138.37,-14.79 138.37,-11.83 138.37,-11.83 138.37,-5.92 138.37,-5.92 138.37,-2.96 141.33,0 144.28,0 144.28,0 186.45,0 186.45,0 189.41,0 192.37,-2.96 192.37,-5.92 192.37,-5.92 192.37,-11.83 192.37,-11.83 192.37,-14.79 189.41,-17.75 186.45,-17.75"/>
<text text-anchor="middle" x="165.37" y="-5.2" font-family="Helvetica,sans-Serif" font-size="9.00">sockjs</text>
</a>
</g>
</g>
<!-- server/&#45;&gt;sockjs -->
<g id="edge38" class="edge">
<title>server/&#45;&gt;sockjs</title>
<g id="a_edge38"><a xlink:title="not&#45;to&#45;unresolvable">
<path fill="none" stroke="red" stroke-width="2" d="M72.66,-283.75C73.02,-241.35 76.66,-63.83 111.62,-23.88 116.29,-18.53 122.71,-15.03 129.47,-12.75"/>
<polygon fill="red" stroke="red" stroke-width="2" points="129.92,-14.81 135.18,-11.24 128.84,-10.75 129.92,-14.81"/>
</a>
</g>
<text text-anchor="middle" x="40.26" y="-136.02" font-family="Helvetica,sans-Serif" font-size="9.00" fill="red">not&#45;to&#45;unresolvable</text>
</g>
</g>
</svg>
