<?xml version="1.0" encoding="UTF-8" standalone="no"?>
<!DOCTYPE svg PUBLIC "-//W3C//DTD SVG 1.1//EN"
 "http://www.w3.org/Graphics/SVG/1.1/DTD/svg11.dtd">
<!-- Generated by graphviz version 11.0.0 (20240428.1522)
 -->
<!-- Title: dependency&#45;cruiser output Pages: 1 -->
<svg width="263pt" height="62pt"
 viewBox="0.00 0.00 263.00 61.74" xmlns="http://www.w3.org/2000/svg" xmlns:xlink="http://www.w3.org/1999/xlink">
<g id="graph0" class="graph" transform="scale(1 1) rotate(0) translate(4 57.74)">
<title>dependency&#45;cruiser output</title>
<polygon fill="white" stroke="none" points="-4,4 -4,-57.74 259,-57.74 259,4 -4,4"/>
<!-- data/ -->
<g id="node1" class="node">
<title>data/</title>
<g id="a_node1"><a xlink:href="data/" xlink:title="data">
<polygon fill="#ffffcc" stroke="black" points="121,-53.74 68.97,-53.74 67,-51.77 67,-35.99 119.03,-35.99 121,-37.96 121,-53.74"/>
<polyline fill="none" stroke="black" points="119.03,-51.77 67,-51.77"/>
<polyline fill="none" stroke="black" points="119.03,-51.77 119.03,-35.99"/>
<polyline fill="none" stroke="black" points="119.03,-51.77 121,-53.74"/>
<text text-anchor="start" x="85" y="-41.19" font-family="Helvetica,sans-Serif" font-size="9.00">data</text>
</a>
</g>
</g>
<!-- lib/ -->
<g id="node2" class="node">
<title>lib/</title>
<g id="a_node2"><a xlink:href="lib/" xlink:title="lib">
<polygon fill="#ffffcc" stroke="black" points="255,-27.74 202.97,-27.74 201,-25.77 201,-9.99 253.03,-9.99 255,-11.96 255,-27.74"/>
<polyline fill="none" stroke="black" points="253.03,-25.77 201,-25.77"/>
<polyline fill="none" stroke="black" points="253.03,-25.77 253.03,-9.99"/>
<polyline fill="none" stroke="black" points="253.03,-25.77 255,-27.74"/>
<text text-anchor="start" x="223.12" y="-15.19" font-family="Helvetica,sans-Serif" font-size="9.00">lib</text>
</a>
</g>
</g>
<!-- data/&#45;&gt;lib/ -->
<g id="edge1" class="edge">
<title>data/&#45;&gt;lib/</title>
<path fill="none" stroke="#000000" stroke-width="2" stroke-opacity="0.200000" d="M121.37,-43.5C140.16,-42.11 165.9,-39.33 188,-33.86 191.14,-33.09 194.37,-32.12 197.57,-31.07"/>
<polygon fill="#000000" fill-opacity="0.200000" stroke="#000000" stroke-width="2" stroke-opacity="0.200000" points="198.06,-33.12 203,-29.12 196.65,-29.17 198.06,-33.12"/>
</g>
<!-- sim/ -->
<g id="node3" class="node">
<title>sim/</title>
<g id="a_node3"><a xlink:href="sim/" xlink:title="sim">
<polygon fill="#ffffcc" stroke="black" points="188,-27.74 135.97,-27.74 134,-25.77 134,-9.99 186.03,-9.99 188,-11.96 188,-27.74"/>
<polyline fill="none" stroke="black" points="186.03,-25.77 134,-25.77"/>
<polyline fill="none" stroke="black" points="186.03,-25.77 186.03,-9.99"/>
<polyline fill="none" stroke="black" points="186.03,-25.77 188,-27.74"/>
<text text-anchor="start" x="153.88" y="-15.19" font-family="Helvetica,sans-Serif" font-size="9.00">sim</text>
</a>
</g>
</g>
<!-- data/&#45;&gt;sim/ -->
<g id="edge2" class="edge">
<title>data/&#45;&gt;sim/</title>
<path fill="none" stroke="#000000" stroke-width="2" stroke-opacity="0.200000" d="M108.78,-35.59C113.76,-33.16 119.61,-30.57 125.55,-28.15"/>
<polygon fill="#000000" fill-opacity="0.200000" stroke="#000000" stroke-width="2" stroke-opacity="0.200000" points="126,-30.23 130.82,-26.09 124.47,-26.32 126,-30.23"/>
</g>
<!-- sim/&#45;&gt;data/ -->
<g id="edge7" class="edge">
<title>sim/&#45;&gt;data/</title>
<path fill="none" stroke="#000000" stroke-width="2" stroke-opacity="0.200000" d="M146.06,-28.21C141.23,-30.57 135.58,-33.07 129.84,-35.42"/>
<polygon fill="#000000" fill-opacity="0.200000" stroke="#000000" stroke-width="2" stroke-opacity="0.200000" points="129.07,-33.46 124.26,-37.61 130.61,-37.37 129.07,-33.46"/>
</g>
<!-- sim/&#45;&gt;lib/ -->
<g id="edge6" class="edge">
<title>sim/&#45;&gt;lib/</title>
<path fill="none" stroke="#000000" stroke-width="2" stroke-opacity="0.200000" d="M188.44,-18.86C189.58,-18.86 190.74,-18.86 191.9,-18.86"/>
<polygon fill="#000000" fill-opacity="0.200000" stroke="#000000" stroke-width="2" stroke-opacity="0.200000" points="191.77,-20.96 197.77,-18.86 191.77,-16.76 191.77,-20.96"/>
</g>
<!-- server/ -->
<g id="node4" class="node">
<title>server/</title>
<g id="a_node4"><a xlink:href="server/" xlink:title="no&#45;orphans">
<polygon fill="#ccffcc" stroke="orange" points="54,-25.74 1.97,-25.74 0,-23.77 0,-7.99 52.03,-7.99 54,-9.96 54,-25.74"/>
<polyline fill="none" stroke="orange" points="52.03,-23.77 0,-23.77"/>
<polyline fill="none" stroke="orange" points="52.03,-23.77 52.03,-7.99"/>
<polyline fill="none" stroke="orange" points="52.03,-23.77 54,-25.74"/>
<text text-anchor="start" x="14.25" y="-13.19" font-family="Helvetica,sans-Serif" font-size="9.00" fill="orange">server</text>
</a>
</g>
</g>
<!-- server/&#45;&gt;data/ -->
<g id="edge5" class="edge">
<title>server/&#45;&gt;data/</title>
<path fill="none" stroke="#000000" stroke-width="2" stroke-opacity="0.200000" d="M49.64,-26.19C54.08,-28.1 58.81,-30.14 63.47,-32.14"/>
<polygon fill="#000000" fill-opacity="0.200000" stroke="#000000" stroke-width="2" stroke-opacity="0.200000" points="62.55,-34.03 68.89,-34.48 64.21,-30.18 62.55,-34.03"/>
</g>
<!-- server/&#45;&gt;lib/ -->
<g id="edge3" class="edge">
<title>server/&#45;&gt;lib/</title>
<path fill="none" stroke="#000000" stroke-width="2" stroke-opacity="0.200000" d="M54.27,-10.52C86.15,-3.79 141.42,4.79 188,-3.86 191.61,-4.53 195.32,-5.53 198.94,-6.69"/>
<polygon fill="#000000" fill-opacity="0.200000" stroke="#000000" stroke-width="2" stroke-opacity="0.200000" points="197.96,-8.56 204.32,-8.61 199.38,-4.61 197.96,-8.56"/>
</g>
<!-- server/&#45;&gt;sim/ -->
<g id="edge4" class="edge">
<title>server/&#45;&gt;sim/</title>
<path fill="none" stroke="#000000" stroke-width="2" stroke-opacity="0.200000" d="M54.39,-17.26C74.63,-17.57 102.75,-18 124.88,-18.33"/>
<polygon fill="#000000" fill-opacity="0.200000" stroke="#000000" stroke-width="2" stroke-opacity="0.200000" points="124.59,-20.43 130.62,-18.42 124.66,-16.23 124.59,-20.43"/>
</g>
</g>
</svg>
