<?xml version="1.0" encoding="UTF-8" standalone="no"?>
<!DOCTYPE svg PUBLIC "-//W3C//DTD SVG 1.1//EN"
 "http://www.w3.org/Graphics/SVG/1.1/DTD/svg11.dtd">
<!-- Generated by graphviz version 11.0.0 (20240428.1522)
 -->
<!-- Title: graphname Pages: 1 -->
<svg width="924pt" height="914pt"
 viewBox="0.00 0.00 924.00 913.50" xmlns="http://www.w3.org/2000/svg" xmlns:xlink="http://www.w3.org/1999/xlink">
<g id="graph0" class="graph" transform="scale(1 1) rotate(0) translate(4 909.5)">
<title>graphname</title>
<polygon fill="white" stroke="none" points="-4,4 -4,-909.5 920,-909.5 920,4 -4,4"/>
<g id="clust2" class="cluster">
<title>cluster_1</title>
<polygon fill="none" stroke="black" points="752,-154 752,-231.5 822,-231.5 822,-154 752,-154"/>
<text text-anchor="middle" x="787" y="-214.2" font-family="Times,serif" font-size="14.00">data</text>
</g>
<g id="clust3" class="cluster">
<title>cluster_2</title>
<polygon fill="none" stroke="black" points="772,-523.5 772,-747 908,-747 908,-523.5 772,-523.5"/>
<text text-anchor="middle" x="840" y="-729.7" font-family="Times,serif" font-size="14.00">lib</text>
</g>
<g id="clust4" class="cluster">
<title>cluster_3</title>
<polygon fill="none" stroke="black" points="8,-669.5 8,-897.5 254,-897.5 254,-669.5 8,-669.5"/>
<text text-anchor="middle" x="131" y="-880.2" font-family="Times,serif" font-size="14.00">server</text>
</g>
<g id="clust5" class="cluster">
<title>cluster_4</title>
<polygon fill="none" stroke="black" points="262,-8 262,-747 744,-747 744,-8 262,-8"/>
<text text-anchor="middle" x="503" y="-729.7" font-family="Times,serif" font-size="14.00">sim</text>
</g>
<!-- server/index.ts -->
<g id="node1" class="node">
<title>server/index.ts</title>
<polygon fill="orange" stroke="black" points="82.62,-828.5 82.62,-864.5 141.38,-864.5 141.38,-828.5 82.62,-828.5"/>
<text text-anchor="middle" x="112" y="-841.45" font-family="Times,serif" font-size="14.00">index.ts</text>
</g>
<!-- server/sockets.ts -->
<g id="node2" class="node">
<title>server/sockets.ts</title>
<polygon fill="none" stroke="black" points="15.75,-755.5 15.75,-791.5 84.25,-791.5 84.25,-755.5 15.75,-755.5"/>
<text text-anchor="middle" x="50" y="-768.45" font-family="Times,serif" font-size="14.00">sockets.ts</text>
</g>
<!-- server/index.ts&#45;&gt;server/sockets.ts -->
<g id="edge1" class="edge">
<title>server/index.ts&#45;&gt;server/sockets.ts</title>
<path fill="none" stroke="orange" d="M96.99,-828.31C89.6,-819.85 80.55,-809.48 72.37,-800.11"/>
<polygon fill="orange" stroke="orange" points="75.08,-797.9 65.87,-792.67 69.81,-802.5 75.08,-797.9"/>
</g>
<!-- server/team&#45;validator&#45;async.ts -->
<g id="node3" class="node">
<title>server/team&#45;validator&#45;async.ts</title>
<polygon fill="none" stroke="black" points="102.25,-755.5 102.25,-791.5 245.75,-791.5 245.75,-755.5 102.25,-755.5"/>
<text text-anchor="middle" x="174" y="-768.45" font-family="Times,serif" font-size="14.00">team&#45;validator&#45;async.ts</text>
</g>
<!-- server/index.ts&#45;&gt;server/team&#45;validator&#45;async.ts -->
<g id="edge2" class="edge">
<title>server/index.ts&#45;&gt;server/team&#45;validator&#45;async.ts</title>
<path fill="none" stroke="orange" d="M127.01,-828.31C134.4,-819.85 143.45,-809.48 151.63,-800.11"/>
<polygon fill="orange" stroke="orange" points="154.19,-802.5 158.13,-792.67 148.92,-797.9 154.19,-802.5"/>
</g>
<!-- server/ip&#45;tools.ts -->
<g id="node4" class="node">
<title>server/ip&#45;tools.ts</title>
<polygon fill="none" stroke="black" points="16,-678 16,-714 86,-714 86,-678 16,-678"/>
<text text-anchor="middle" x="51" y="-690.95" font-family="Times,serif" font-size="14.00">ip&#45;tools.ts</text>
</g>
<!-- server/sockets.ts&#45;&gt;server/ip&#45;tools.ts -->
<g id="edge3" class="edge">
<title>server/sockets.ts&#45;&gt;server/ip&#45;tools.ts</title>
<path fill="none" stroke="#d659c3" d="M50.23,-755.37C50.34,-746.55 50.49,-735.57 50.62,-725.51"/>
<polygon fill="#d659c3" stroke="#d659c3" points="54.12,-725.88 50.75,-715.84 47.12,-725.79 54.12,-725.88"/>
</g>
<!-- sim/battle.ts -->
<g id="node5" class="node">
<title>sim/battle.ts</title>
<polygon fill="none" stroke="black" points="519.62,-678 519.62,-714 578.38,-714 578.38,-678 519.62,-678"/>
<text text-anchor="middle" x="549" y="-690.95" font-family="Times,serif" font-size="14.00">battle.ts</text>
</g>
<!-- server/sockets.ts&#45;&gt;sim/battle.ts -->
<g id="edge4" class="edge">
<title>server/sockets.ts&#45;&gt;sim/battle.ts</title>
<path fill="none" stroke="#d659c3" d="M84.41,-757.33C87.28,-756.42 90.17,-755.63 93,-755 164.69,-739.16 185.02,-755.01 258,-747 347.91,-737.13 452.12,-717.11 508.21,-705.63"/>
<polygon fill="#d659c3" stroke="#d659c3" points="508.86,-709.07 517.94,-703.62 507.44,-702.21 508.86,-709.07"/>
</g>
<!-- sim/team&#45;validator.ts -->
<g id="node23" class="node">
<title>sim/team&#45;validator.ts</title>
<polygon fill="none" stroke="black" points="628.25,-532 628.25,-568 735.75,-568 735.75,-532 628.25,-532"/>
<text text-anchor="middle" x="682" y="-544.95" font-family="Times,serif" font-size="14.00">team&#45;validator.ts</text>
</g>
<!-- server/team&#45;validator&#45;async.ts&#45;&gt;sim/team&#45;validator.ts -->
<g id="edge51" class="edge">
<title>server/team&#45;validator&#45;async.ts&#45;&gt;sim/team&#45;validator.ts</title>
<path fill="none" stroke="#a01580" d="M245.96,-772.99C347.28,-772.83 526.39,-769.26 587,-747 660.47,-720.01 692.96,-711.48 728,-641.5 735.36,-626.8 733.72,-619.92 728,-604.5 724.18,-594.21 717.41,-584.57 710.2,-576.38"/>
<polygon fill="#a01580" stroke="#a01580" points="712.81,-574.05 703.39,-569.21 707.74,-578.87 712.81,-574.05"/>
</g>
<!-- lib/process&#45;manager.ts -->
<g id="node24" class="node">
<title>lib/process&#45;manager.ts</title>
<polygon fill="none" stroke="black" points="779.88,-678 779.88,-714 900.12,-714 900.12,-678 779.88,-678"/>
<text text-anchor="middle" x="840" y="-690.95" font-family="Times,serif" font-size="14.00">process&#45;manager.ts</text>
</g>
<!-- server/team&#45;validator&#45;async.ts&#45;&gt;lib/process&#45;manager.ts -->
<g id="edge52" class="edge">
<title>server/team&#45;validator&#45;async.ts&#45;&gt;lib/process&#45;manager.ts</title>
<path fill="none" stroke="#a01580" d="M246.17,-771.59C393.25,-769.42 717.89,-762.87 766,-747 782.59,-741.53 798.91,-731.19 811.98,-721.33"/>
<polygon fill="#a01580" stroke="#a01580" points="814.01,-724.18 819.7,-715.24 809.68,-718.69 814.01,-724.18"/>
</g>
<!-- sim/dex.ts -->
<g id="node6" class="node">
<title>sim/dex.ts</title>
<polygon fill="none" stroke="black" points="443,-313 443,-349 497,-349 497,-313 443,-313"/>
<text text-anchor="middle" x="469.62" y="-325.95" font-family="Times,serif" font-size="14.00">dex.ts</text>
</g>
<!-- sim/battle.ts&#45;&gt;sim/dex.ts -->
<g id="edge5" class="edge">
<title>sim/battle.ts&#45;&gt;sim/dex.ts</title>
<path fill="none" stroke="#968bca" d="M519.28,-683.76C473.51,-664.29 391,-619.66 391,-551 391,-551 391,-551 391,-476 391,-433.9 397.69,-421.81 419,-385.5 424.99,-375.29 433.29,-365.49 441.45,-357.13"/>
<polygon fill="#968bca" stroke="#968bca" points="443.69,-359.84 448.39,-350.35 438.79,-354.84 443.69,-359.84"/>
</g>
<!-- sim/teams.ts -->
<g id="node7" class="node">
<title>sim/teams.ts</title>
<polygon fill="none" stroke="black" points="581.5,-459 581.5,-495 642.5,-495 642.5,-459 581.5,-459"/>
<text text-anchor="middle" x="612" y="-471.95" font-family="Times,serif" font-size="14.00">teams.ts</text>
</g>
<!-- sim/battle.ts&#45;&gt;sim/teams.ts -->
<g id="edge6" class="edge">
<title>sim/battle.ts&#45;&gt;sim/teams.ts</title>
<path fill="none" stroke="#968bca" d="M558.29,-677.55C563.46,-667.28 569.71,-653.9 574,-641.5 582.54,-616.8 597.77,-546.44 606.12,-506.54"/>
<polygon fill="#968bca" stroke="#968bca" points="609.51,-507.44 608.12,-496.93 602.65,-506.01 609.51,-507.44"/>
</g>
<!-- sim/field.ts -->
<g id="node8" class="node">
<title>sim/field.ts</title>
<polygon fill="none" stroke="black" points="476,-605 476,-641 530,-641 530,-605 476,-605"/>
<text text-anchor="middle" x="502.75" y="-617.95" font-family="Times,serif" font-size="14.00">field.ts</text>
</g>
<!-- sim/battle.ts&#45;&gt;sim/field.ts -->
<g id="edge7" class="edge">
<title>sim/battle.ts&#45;&gt;sim/field.ts</title>
<path fill="none" stroke="#968bca" d="M537.86,-677.81C532.55,-669.62 526.08,-659.62 520.16,-650.48"/>
<polygon fill="#968bca" stroke="#968bca" points="523.23,-648.79 514.86,-642.3 517.36,-652.59 523.23,-648.79"/>
</g>
<!-- sim/pokemon.ts -->
<g id="node9" class="node">
<title>sim/pokemon.ts</title>
<polygon fill="none" stroke="black" points="430.12,-532 430.12,-568 509.88,-568 509.88,-532 430.12,-532"/>
<text text-anchor="middle" x="470" y="-544.95" font-family="Times,serif" font-size="14.00">pokemon.ts</text>
</g>
<!-- sim/battle.ts&#45;&gt;sim/pokemon.ts -->
<g id="edge8" class="edge">
<title>sim/battle.ts&#45;&gt;sim/pokemon.ts</title>
<path fill="none" stroke="#968bca" d="M519.51,-684.34C500.79,-675.86 478.09,-661.98 467,-641.5 456.76,-622.59 458.32,-598.04 461.99,-579.28"/>
<polygon fill="#968bca" stroke="#968bca" points="465.38,-580.19 464.2,-569.66 458.56,-578.62 465.38,-580.19"/>
</g>
<!-- sim/prng.ts -->
<g id="node10" class="node">
<title>sim/prng.ts</title>
<polygon fill="none" stroke="black" points="617,-386 617,-422 671,-422 671,-386 617,-386"/>
<text text-anchor="middle" x="643.75" y="-398.95" font-family="Times,serif" font-size="14.00">prng.ts</text>
</g>
<!-- sim/battle.ts&#45;&gt;sim/prng.ts -->
<g id="edge9" class="edge">
<title>sim/battle.ts&#45;&gt;sim/prng.ts</title>
<path fill="none" stroke="#968bca" d="M569.32,-677.57C573.63,-674.52 578.3,-671.64 583,-669.5 636.78,-644.98 675.87,-687.48 713,-641.5 768.51,-572.76 629.33,-583.52 619,-568.5 607.67,-552.02 610.6,-541.65 619,-523.5 627.08,-506.05 643.92,-512.95 652,-495.5 661.01,-476.03 658.19,-451.71 653.57,-433.18"/>
<polygon fill="#968bca" stroke="#968bca" points="656.97,-432.35 650.87,-423.68 650.23,-434.26 656.97,-432.35"/>
</g>
<!-- sim/side.ts -->
<g id="node11" class="node">
<title>sim/side.ts</title>
<polygon fill="none" stroke="black" points="489,-386 489,-422 543,-422 543,-386 489,-386"/>
<text text-anchor="middle" x="515.75" y="-398.95" font-family="Times,serif" font-size="14.00">side.ts</text>
</g>
<!-- sim/battle.ts&#45;&gt;sim/side.ts -->
<g id="edge10" class="edge">
<title>sim/battle.ts&#45;&gt;sim/side.ts</title>
<path fill="none" stroke="#968bca" d="M548.07,-677.58C551.58,-637.71 567.03,-537.25 543,-458.5 540.15,-449.16 535.07,-439.98 529.96,-431.93"/>
<polygon fill="#968bca" stroke="#968bca" points="532.92,-430.07 524.47,-423.67 527.09,-433.94 532.92,-430.07"/>
</g>
<!-- sim/state.ts -->
<g id="node12" class="node">
<title>sim/state.ts</title>
<polygon fill="none" stroke="black" points="489,-459 489,-495 543,-495 543,-459 489,-459"/>
<text text-anchor="middle" x="515.75" y="-471.95" font-family="Times,serif" font-size="14.00">state.ts</text>
</g>
<!-- sim/battle.ts&#45;&gt;sim/state.ts -->
<g id="edge11" class="edge">
<title>sim/battle.ts&#45;&gt;sim/state.ts</title>
<path fill="none" stroke="#968bca" d="M540.72,-677.6C536.72,-659.35 533.7,-629.84 530,-604.5 525.07,-570.71 517.82,-532.14 514.7,-506.56"/>
<polygon fill="#968bca" stroke="#968bca" points="518.19,-506.22 513.69,-496.63 511.22,-506.93 518.19,-506.22"/>
</g>
<!-- sim/battle&#45;queue.ts -->
<g id="node13" class="node">
<title>sim/battle&#45;queue.ts</title>
<polygon fill="none" stroke="black" points="608.25,-605 608.25,-641 703.75,-641 703.75,-605 608.25,-605"/>
<text text-anchor="middle" x="656" y="-617.95" font-family="Times,serif" font-size="14.00">battle&#45;queue.ts</text>
</g>
<!-- sim/battle.ts&#45;&gt;sim/battle&#45;queue.ts -->
<g id="edge12" class="edge">
<title>sim/battle.ts&#45;&gt;sim/battle&#45;queue.ts</title>
<path fill="none" stroke="#968bca" d="M569.28,-677.63C582.07,-668.52 598.92,-657.23 614.4,-647.36"/>
<polygon fill="#968bca" stroke="#968bca" points="615.94,-650.53 622.54,-642.24 612.21,-644.61 615.94,-650.53"/>
</g>
<!-- sim/battle&#45;actions.ts -->
<g id="node14" class="node">
<title>sim/battle&#45;actions.ts</title>
<polygon fill="none" stroke="black" points="270.25,-532 270.25,-568 371.75,-568 371.75,-532 270.25,-532"/>
<text text-anchor="middle" x="321" y="-544.95" font-family="Times,serif" font-size="14.00">battle&#45;actions.ts</text>
</g>
<!-- sim/battle.ts&#45;&gt;sim/battle&#45;actions.ts -->
<g id="edge13" class="edge">
<title>sim/battle.ts&#45;&gt;sim/battle&#45;actions.ts</title>
<path fill="none" stroke="#968bca" d="M519.38,-690.97C484.63,-685.04 426.6,-671.26 386,-641.5 363.52,-625.02 345.75,-598.42 334.51,-578.31"/>
<polygon fill="#968bca" stroke="#968bca" points="337.62,-576.69 329.81,-569.53 331.45,-580 337.62,-576.69"/>
</g>
<!-- sim/dex&#45;data.ts -->
<g id="node15" class="node">
<title>sim/dex&#45;data.ts</title>
<polygon fill="none" stroke="black" points="470.38,-16.5 470.38,-52.5 545.62,-52.5 545.62,-16.5 470.38,-16.5"/>
<text text-anchor="middle" x="508" y="-29.45" font-family="Times,serif" font-size="14.00">dex&#45;data.ts</text>
</g>
<!-- sim/dex.ts&#45;&gt;sim/dex&#45;data.ts -->
<g id="edge14" class="edge">
<title>sim/dex.ts&#45;&gt;sim/dex&#45;data.ts</title>
<path fill="none" stroke="#64d361" d="M497.32,-322.7C535.31,-310.85 602.33,-283.36 628,-231.5 643.28,-200.63 641.28,-185.78 628,-154 611.26,-113.95 573.67,-80.55 544.99,-59.53"/>
<polygon fill="#64d361" stroke="#64d361" points="547.06,-56.7 536.88,-53.76 543,-62.4 547.06,-56.7"/>
</g>
<!-- sim/dex&#45;conditions.ts -->
<g id="node16" class="node">
<title>sim/dex&#45;conditions.ts</title>
<polygon fill="none" stroke="black" points="379.5,-162.5 379.5,-198.5 488.5,-198.5 488.5,-162.5 379.5,-162.5"/>
<text text-anchor="middle" x="434" y="-175.45" font-family="Times,serif" font-size="14.00">dex&#45;conditions.ts</text>
</g>
<!-- sim/dex.ts&#45;&gt;sim/dex&#45;conditions.ts -->
<g id="edge15" class="edge">
<title>sim/dex.ts&#45;&gt;sim/dex&#45;conditions.ts</title>
<path fill="none" stroke="#64d361" d="M465.8,-312.67C459.68,-287.41 448.23,-240.18 440.87,-209.82"/>
<polygon fill="#64d361" stroke="#64d361" points="444.29,-209.08 438.53,-200.19 437.48,-210.73 444.29,-209.08"/>
</g>
<!-- sim/dex&#45;moves.ts -->
<g id="node17" class="node">
<title>sim/dex&#45;moves.ts</title>
<polygon fill="none" stroke="black" points="269.62,-89.5 269.62,-125.5 358.38,-125.5 358.38,-89.5 269.62,-89.5"/>
<text text-anchor="middle" x="314" y="-102.45" font-family="Times,serif" font-size="14.00">dex&#45;moves.ts</text>
</g>
<!-- sim/dex.ts&#45;&gt;sim/dex&#45;moves.ts -->
<g id="edge16" class="edge">
<title>sim/dex.ts&#45;&gt;sim/dex&#45;moves.ts</title>
<path fill="none" stroke="#64d361" d="M442.7,-328.59C408.75,-325.23 351.87,-313.97 324,-276.5 293.76,-235.85 299.9,-173.19 307.01,-136.99"/>
<polygon fill="#64d361" stroke="#64d361" points="310.42,-137.79 309.09,-127.27 303.57,-136.32 310.42,-137.79"/>
</g>
<!-- sim/dex&#45;items.ts -->
<g id="node18" class="node">
<title>sim/dex&#45;items.ts</title>
<polygon fill="none" stroke="black" points="466.62,-240 466.62,-276 549.38,-276 549.38,-240 466.62,-240"/>
<text text-anchor="middle" x="508" y="-252.95" font-family="Times,serif" font-size="14.00">dex&#45;items.ts</text>
</g>
<!-- sim/dex.ts&#45;&gt;sim/dex&#45;items.ts -->
<g id="edge17" class="edge">
<title>sim/dex.ts&#45;&gt;sim/dex&#45;items.ts</title>
<path fill="none" stroke="#64d361" d="M479.2,-312.81C483.49,-304.79 488.71,-295.05 493.51,-286.07"/>
<polygon fill="#64d361" stroke="#64d361" points="496.54,-287.83 498.17,-277.36 490.37,-284.53 496.54,-287.83"/>
</g>
<!-- sim/dex&#45;abilities.ts -->
<g id="node19" class="node">
<title>sim/dex&#45;abilities.ts</title>
<polygon fill="none" stroke="black" points="333.25,-240 333.25,-276 428.75,-276 428.75,-240 333.25,-240"/>
<text text-anchor="middle" x="381" y="-252.95" font-family="Times,serif" font-size="14.00">dex&#45;abilities.ts</text>
</g>
<!-- sim/dex.ts&#45;&gt;sim/dex&#45;abilities.ts -->
<g id="edge18" class="edge">
<title>sim/dex.ts&#45;&gt;sim/dex&#45;abilities.ts</title>
<path fill="none" stroke="#64d361" d="M448.46,-312.81C437.39,-303.98 423.71,-293.07 411.57,-283.39"/>
<polygon fill="#64d361" stroke="#64d361" points="413.84,-280.72 403.84,-277.22 409.47,-286.19 413.84,-280.72"/>
</g>
<!-- sim/dex&#45;species.ts -->
<g id="node20" class="node">
<title>sim/dex&#45;species.ts</title>
<polygon fill="none" stroke="black" points="527.12,-162.5 527.12,-198.5 618.88,-198.5 618.88,-162.5 527.12,-162.5"/>
<text text-anchor="middle" x="573" y="-175.45" font-family="Times,serif" font-size="14.00">dex&#45;species.ts</text>
</g>
<!-- sim/dex.ts&#45;&gt;sim/dex&#45;species.ts -->
<g id="edge19" class="edge">
<title>sim/dex.ts&#45;&gt;sim/dex&#45;species.ts</title>
<path fill="none" stroke="#64d361" d="M497.14,-320.69C517.25,-312.34 543.56,-298.03 558,-276.5 571.07,-257 574.31,-230.26 574.57,-210.12"/>
<polygon fill="#64d361" stroke="#64d361" points="578.08,-210.3 574.44,-200.35 571.08,-210.4 578.08,-210.3"/>
</g>
<!-- sim/dex&#45;formats.ts -->
<g id="node21" class="node">
<title>sim/dex&#45;formats.ts</title>
<polygon fill="none" stroke="black" points="641.62,-240 641.62,-276 736.38,-276 736.38,-240 641.62,-240"/>
<text text-anchor="middle" x="689" y="-252.95" font-family="Times,serif" font-size="14.00">dex&#45;formats.ts</text>
</g>
<!-- sim/dex.ts&#45;&gt;sim/dex&#45;formats.ts -->
<g id="edge20" class="edge">
<title>sim/dex.ts&#45;&gt;sim/dex&#45;formats.ts</title>
<path fill="none" stroke="#64d361" d="M497.29,-321.15C530.41,-310.41 587.18,-292.01 630.37,-278.01"/>
<polygon fill="#64d361" stroke="#64d361" points="631.44,-281.34 639.88,-274.93 629.29,-274.68 631.44,-281.34"/>
</g>
<!-- sim/teams.ts&#45;&gt;sim/dex.ts -->
<g id="edge32" class="edge">
<title>sim/teams.ts&#45;&gt;sim/dex.ts</title>
<path fill="none" stroke="#e1c9d9" d="M603.39,-458.83C593.07,-439.43 574.34,-407.68 552,-385.5 538.84,-372.43 522,-360.79 507.01,-351.73"/>
<polygon fill="#e1c9d9" stroke="#e1c9d9" points="509.19,-348.95 498.79,-346.92 505.66,-354.99 509.19,-348.95"/>
</g>
<!-- sim/teams.ts&#45;&gt;sim/prng.ts -->
<g id="edge33" class="edge">
<title>sim/teams.ts&#45;&gt;sim/prng.ts</title>
<path fill="none" stroke="#e1c9d9" d="M619.75,-458.81C623.32,-450.88 627.66,-441.26 631.67,-432.36"/>
<polygon fill="#e1c9d9" stroke="#e1c9d9" points="634.78,-433.96 635.7,-423.41 628.4,-431.09 634.78,-433.96"/>
</g>
<!-- sim/field.ts&#45;&gt;sim/dex.ts -->
<g id="edge36" class="edge">
<title>sim/field.ts&#45;&gt;sim/dex.ts</title>
<path fill="none" stroke="#d92056" d="M475.54,-612.25C456.47,-603.86 432.49,-589.72 421,-568.5 383.67,-499.57 426.99,-405.2 453.08,-359.3"/>
<polygon fill="#d92056" stroke="#d92056" points="456.02,-361.2 458.05,-350.8 449.98,-357.66 456.02,-361.2"/>
</g>
<!-- sim/field.ts&#45;&gt;sim/pokemon.ts -->
<g id="edge35" class="edge">
<title>sim/field.ts&#45;&gt;sim/pokemon.ts</title>
<path fill="none" stroke="#d92056" d="M495.01,-604.81C491.32,-596.88 486.85,-587.26 482.72,-578.36"/>
<polygon fill="#d92056" stroke="#d92056" points="485.94,-576.99 478.55,-569.4 479.59,-579.94 485.94,-576.99"/>
</g>
<!-- sim/field.ts&#45;&gt;sim/state.ts -->
<g id="edge34" class="edge">
<title>sim/field.ts&#45;&gt;sim/state.ts</title>
<path fill="none" stroke="#d92056" d="M501.66,-604.94C504.08,-594.57 508.18,-580.97 510,-568.5 512.9,-548.71 510.66,-543.49 510,-523.5 509.82,-517.96 509.51,-512.04 509.34,-506.37"/>
<polygon fill="#d92056" stroke="#d92056" points="512.85,-506.77 509.3,-496.79 505.85,-506.8 512.85,-506.77"/>
</g>
<!-- sim/pokemon.ts&#45;&gt;sim/dex.ts -->
<g id="edge44" class="edge">
<title>sim/pokemon.ts&#45;&gt;sim/dex.ts</title>
<path fill="none" stroke="#610bc4" d="M468.78,-531.66C468.11,-521.2 467.34,-507.59 467,-495.5 465.63,-446.63 465.63,-434.37 467,-385.5 467.22,-377.47 467.64,-368.77 468.09,-360.77"/>
<polygon fill="#610bc4" stroke="#610bc4" points="471.58,-361.04 468.69,-350.85 464.59,-360.62 471.58,-361.04"/>
</g>
<!-- sim/pokemon.ts&#45;&gt;sim/state.ts -->
<g id="edge43" class="edge">
<title>sim/pokemon.ts&#45;&gt;sim/state.ts</title>
<path fill="none" stroke="#610bc4" d="M475.26,-531.81C479.76,-523.53 486.09,-513.41 492.49,-504.19"/>
<polygon fill="#610bc4" stroke="#610bc4" points="495.2,-506.41 498.22,-496.26 489.53,-502.32 495.2,-506.41"/>
</g>
<!-- sim/side.ts&#45;&gt;sim/battle.ts -->
<g id="edge45" class="edge">
<title>sim/side.ts&#45;&gt;sim/battle.ts</title>
<path fill="none" stroke="#401951" d="M539.59,-422.41C548.38,-432.26 556.95,-445.22 561,-458.5 583.06,-530.79 571.85,-621.38 560.46,-666.59"/>
<polygon fill="#401951" stroke="#401951" points="557.12,-665.55 557.83,-676.12 563.86,-667.41 557.12,-665.55"/>
</g>
<!-- sim/side.ts&#45;&gt;sim/dex.ts -->
<g id="edge48" class="edge">
<title>sim/side.ts&#45;&gt;sim/dex.ts</title>
<path fill="none" stroke="#401951" d="M504.86,-385.81C499.55,-377.62 493.08,-367.62 487.16,-358.48"/>
<polygon fill="#401951" stroke="#401951" points="490.23,-356.79 481.86,-350.3 484.36,-360.59 490.23,-356.79"/>
</g>
<!-- sim/side.ts&#45;&gt;sim/pokemon.ts -->
<g id="edge46" class="edge">
<title>sim/side.ts&#45;&gt;sim/pokemon.ts</title>
<path fill="none" stroke="#401951" d="M501.33,-422.13C493.65,-432.09 484.85,-445.25 480,-458.5 472.72,-478.37 470.32,-502.21 469.69,-520.44"/>
<polygon fill="#401951" stroke="#401951" points="466.19,-520.2 469.52,-530.25 473.19,-520.32 466.19,-520.2"/>
</g>
<!-- sim/side.ts&#45;&gt;sim/state.ts -->
<g id="edge47" class="edge">
<title>sim/side.ts&#45;&gt;sim/state.ts</title>
<path fill="none" stroke="#401951" d="M521.86,-422.03C522.67,-429.68 522.93,-438.92 522.63,-447.58"/>
<polygon fill="#401951" stroke="#401951" points="519.15,-447.09 521.98,-457.3 526.14,-447.56 519.15,-447.09"/>
</g>
<!-- sim/state.ts&#45;&gt;sim/battle.ts -->
<g id="edge37" class="edge">
<title>sim/state.ts&#45;&gt;sim/battle.ts</title>
<path fill="none" stroke="#4f7db8" d="M525.48,-495.12C533.38,-519.38 542.26,-565.18 548,-604.5 551.01,-625.09 553.56,-648.43 554.12,-666.25"/>
<polygon fill="#4f7db8" stroke="#4f7db8" points="550.62,-666.1 554.15,-676.09 557.62,-666.08 550.62,-666.1"/>
</g>
<!-- sim/state.ts&#45;&gt;sim/dex.ts -->
<g id="edge38" class="edge">
<title>sim/state.ts&#45;&gt;sim/dex.ts</title>
<path fill="none" stroke="#4f7db8" d="M501.33,-458.87C493.65,-448.91 484.85,-435.75 480,-422.5 472.72,-402.63 470.32,-378.79 469.69,-360.56"/>
<polygon fill="#4f7db8" stroke="#4f7db8" points="473.19,-360.68 469.52,-350.75 466.19,-360.8 473.19,-360.68"/>
</g>
<!-- sim/state.ts&#45;&gt;sim/field.ts -->
<g id="edge39" class="edge">
<title>sim/state.ts&#45;&gt;sim/field.ts</title>
<path fill="none" stroke="#4f7db8" d="M525.53,-495.27C527.03,-503.77 527.69,-514.16 528,-523.5 528.66,-543.49 530.9,-548.71 528,-568.5 526.75,-577.07 524.42,-586.18 521.53,-594.41"/>
<polygon fill="#4f7db8" stroke="#4f7db8" points="518.35,-592.95 517.87,-603.53 524.84,-595.56 518.35,-592.95"/>
</g>
<!-- sim/state.ts&#45;&gt;sim/pokemon.ts -->
<g id="edge40" class="edge">
<title>sim/state.ts&#45;&gt;sim/pokemon.ts</title>
<path fill="none" stroke="#4f7db8" d="M510.83,-495.03C506.35,-503.29 500.03,-513.4 493.63,-522.63"/>
<polygon fill="#4f7db8" stroke="#4f7db8" points="490.91,-520.43 487.9,-530.59 496.59,-524.52 490.91,-520.43"/>
</g>
<!-- sim/state.ts&#45;&gt;sim/prng.ts -->
<g id="edge41" class="edge">
<title>sim/state.ts&#45;&gt;sim/prng.ts</title>
<path fill="none" stroke="#4f7db8" d="M543.46,-460.77C561.93,-450.52 586.52,-436.88 606.75,-425.66"/>
<polygon fill="#4f7db8" stroke="#4f7db8" points="608.22,-428.85 615.26,-420.94 604.82,-422.73 608.22,-428.85"/>
</g>
<!-- sim/state.ts&#45;&gt;sim/side.ts -->
<g id="edge42" class="edge">
<title>sim/state.ts&#45;&gt;sim/side.ts</title>
<path fill="none" stroke="#4f7db8" d="M510.12,-458.81C509.32,-451.14 509.07,-441.89 509.38,-433.24"/>
<polygon fill="#4f7db8" stroke="#4f7db8" points="512.85,-433.75 510.04,-423.54 505.87,-433.28 512.85,-433.75"/>
</g>
<!-- sim/battle&#45;queue.ts&#45;&gt;sim/battle.ts -->
<g id="edge49" class="edge">
<title>sim/battle&#45;queue.ts&#45;&gt;sim/battle.ts</title>
<path fill="none" stroke="#22f14d" d="M635.72,-641.37C622.34,-650.9 604.52,-662.82 588.46,-672.99"/>
<polygon fill="#22f14d" stroke="#22f14d" points="586.66,-669.99 580.04,-678.26 590.37,-675.93 586.66,-669.99"/>
</g>
<!-- sim/battle&#45;actions.ts&#45;&gt;sim/dex.ts -->
<g id="edge50" class="edge">
<title>sim/battle&#45;actions.ts&#45;&gt;sim/dex.ts</title>
<path fill="none" stroke="#1821e7" d="M324.2,-531.68C330.84,-499.7 348.72,-430.58 386,-385.5 398.59,-370.27 416.68,-357.98 432.85,-349.04"/>
<polygon fill="#1821e7" stroke="#1821e7" points="434.05,-352.36 441.27,-344.61 430.79,-346.17 434.05,-352.36"/>
</g>
<!-- sim/dex&#45;conditions.ts&#45;&gt;sim/dex&#45;data.ts -->
<g id="edge21" class="edge">
<title>sim/dex&#45;conditions.ts&#45;&gt;sim/dex&#45;data.ts</title>
<path fill="none" stroke="#994bfd" d="M442.93,-162.13C455.59,-137.48 478.91,-92.1 493.92,-62.89"/>
<polygon fill="#994bfd" stroke="#994bfd" points="496.89,-64.77 498.35,-54.28 490.67,-61.57 496.89,-64.77"/>
</g>
<!-- sim/dex&#45;conditions.ts&#45;&gt;sim/dex&#45;moves.ts -->
<g id="edge22" class="edge">
<title>sim/dex&#45;conditions.ts&#45;&gt;sim/dex&#45;moves.ts</title>
<path fill="none" stroke="#994bfd" d="M404.64,-162.13C389.1,-152.93 369.8,-141.52 353.02,-131.58"/>
<polygon fill="#994bfd" stroke="#994bfd" points="355.16,-128.79 344.77,-126.71 351.59,-134.81 355.16,-128.79"/>
</g>
<!-- sim/dex&#45;moves.ts&#45;&gt;sim/dex&#45;data.ts -->
<g id="edge23" class="edge">
<title>sim/dex&#45;moves.ts&#45;&gt;sim/dex&#45;data.ts</title>
<path fill="none" stroke="#402fd4" d="M358.51,-90.21C388.63,-79.19 428.41,-64.63 459.37,-53.3"/>
<polygon fill="#402fd4" stroke="#402fd4" points="460.31,-56.68 468.49,-49.96 457.9,-50.11 460.31,-56.68"/>
</g>
<!-- sim/dex&#45;items.ts&#45;&gt;sim/dex&#45;data.ts -->
<g id="edge25" class="edge">
<title>sim/dex&#45;items.ts&#45;&gt;sim/dex&#45;data.ts</title>
<path fill="none" stroke="#b07c94" d="M508,-239.62C508,-201.61 508,-110.78 508,-64.17"/>
<polygon fill="#b07c94" stroke="#b07c94" points="511.5,-64.31 508,-54.31 504.5,-64.31 511.5,-64.31"/>
</g>
<!-- sim/dex&#45;items.ts&#45;&gt;sim/dex&#45;conditions.ts -->
<g id="edge24" class="edge">
<title>sim/dex&#45;items.ts&#45;&gt;sim/dex&#45;conditions.ts</title>
<path fill="none" stroke="#b07c94" d="M491.21,-239.87C481.63,-230.09 469.43,-217.65 458.77,-206.77"/>
<polygon fill="#b07c94" stroke="#b07c94" points="461.54,-204.6 452.04,-199.91 456.54,-209.5 461.54,-204.6"/>
</g>
<!-- sim/dex&#45;abilities.ts&#45;&gt;sim/dex&#45;data.ts -->
<g id="edge27" class="edge">
<title>sim/dex&#45;abilities.ts&#45;&gt;sim/dex&#45;data.ts</title>
<path fill="none" stroke="#102b8a" d="M373.23,-239.7C372.31,-237 371.51,-234.21 371,-231.5 364.6,-197.66 356.68,-185.33 371,-154 390.2,-112.01 432.43,-79.21 464.97,-58.87"/>
<polygon fill="#102b8a" stroke="#102b8a" points="466.69,-61.92 473.43,-53.74 463.06,-55.93 466.69,-61.92"/>
</g>
<!-- sim/dex&#45;abilities.ts&#45;&gt;sim/dex&#45;conditions.ts -->
<g id="edge26" class="edge">
<title>sim/dex&#45;abilities.ts&#45;&gt;sim/dex&#45;conditions.ts</title>
<path fill="none" stroke="#102b8a" d="M393.03,-239.87C399.62,-230.47 407.94,-218.62 415.36,-208.06"/>
<polygon fill="#102b8a" stroke="#102b8a" points="418.09,-210.26 420.97,-200.06 412.36,-206.24 418.09,-210.26"/>
</g>
<!-- sim/dex&#45;species.ts&#45;&gt;sim/dex&#45;data.ts -->
<g id="edge28" class="edge">
<title>sim/dex&#45;species.ts&#45;&gt;sim/dex&#45;data.ts</title>
<path fill="none" stroke="#3791bf" d="M565.16,-162.13C554.08,-137.59 533.73,-92.5 520.54,-63.28"/>
<polygon fill="#3791bf" stroke="#3791bf" points="523.8,-61.99 516.49,-54.31 517.42,-64.87 523.8,-61.99"/>
</g>
<!-- sim/dex&#45;formats.ts&#45;&gt;sim/dex&#45;data.ts -->
<g id="edge29" class="edge">
<title>sim/dex&#45;formats.ts&#45;&gt;sim/dex&#45;data.ts</title>
<path fill="none" stroke="#70d02c" d="M689.09,-239.64C688.34,-206.27 682.04,-132.59 643,-89 620.88,-64.3 585.85,-50.85 557.01,-43.62"/>
<polygon fill="#70d02c" stroke="#70d02c" points="557.91,-40.24 547.38,-41.4 556.34,-47.06 557.91,-40.24"/>
</g>
<!-- sim/dex&#45;formats.ts&#45;&gt;sim/dex&#45;conditions.ts -->
<g id="edge30" class="edge">
<title>sim/dex&#45;formats.ts&#45;&gt;sim/dex&#45;conditions.ts</title>
<path fill="none" stroke="#70d02c" d="M641.4,-250.86C594.89,-244.71 529.45,-235.58 518,-231.5 500.03,-225.1 481.65,-214.68 466.69,-205.01"/>
<polygon fill="#70d02c" stroke="#70d02c" points="468.9,-202.28 458.64,-199.65 465.02,-208.1 468.9,-202.28"/>
</g>
<!-- data/tags.ts -->
<g id="node22" class="node">
<title>data/tags.ts</title>
<polygon fill="none" stroke="black" points="760,-162.5 760,-198.5 814,-198.5 814,-162.5 760,-162.5"/>
<text text-anchor="middle" x="786.75" y="-175.45" font-family="Times,serif" font-size="14.00">tags.ts</text>
</g>
<!-- sim/dex&#45;formats.ts&#45;&gt;data/tags.ts -->
<g id="edge31" class="edge">
<title>sim/dex&#45;formats.ts&#45;&gt;data/tags.ts</title>
<path fill="none" stroke="#70d02c" d="M735.68,-239.51C740.02,-237.1 744.2,-234.43 748,-231.5 756.48,-224.94 764.15,-216.14 770.4,-207.75"/>
<polygon fill="#70d02c" stroke="#70d02c" points="773.08,-210.03 775.95,-199.83 767.35,-206.01 773.08,-210.03"/>
</g>
<!-- sim/team&#45;validator.ts&#45;&gt;sim/dex.ts -->
<g id="edge53" class="edge">
<title>sim/team&#45;validator.ts&#45;&gt;sim/dex.ts</title>
<path fill="none" stroke="#4a6cb5" d="M687.93,-531.74C697.9,-499.25 713.8,-428.44 680,-385.5 659.03,-358.85 563.46,-343.2 508.75,-336.28"/>
<polygon fill="#4a6cb5" stroke="#4a6cb5" points="509.27,-332.82 498.92,-335.08 508.42,-339.76 509.27,-332.82"/>
</g>
<!-- sim/team&#45;validator.ts&#45;&gt;sim/teams.ts -->
<g id="edge55" class="edge">
<title>sim/team&#45;validator.ts&#45;&gt;sim/teams.ts</title>
<path fill="none" stroke="#4a6cb5" d="M665.05,-531.81C656.54,-523.18 646.07,-512.56 636.68,-503.03"/>
<polygon fill="#4a6cb5" stroke="#4a6cb5" points="639.36,-500.77 629.85,-496.11 634.38,-505.68 639.36,-500.77"/>
</g>
<!-- sim/team&#45;validator.ts&#45;&gt;sim/prng.ts -->
<g id="edge56" class="edge">
<title>sim/team&#45;validator.ts&#45;&gt;sim/prng.ts</title>
<path fill="none" stroke="#4a6cb5" d="M680.39,-531.71C678.39,-513.29 674.3,-483.41 667,-458.5 664.5,-449.96 661,-440.97 657.48,-432.85"/>
<polygon fill="#4a6cb5" stroke="#4a6cb5" points="660.7,-431.48 653.39,-423.82 654.33,-434.37 660.7,-431.48"/>
</g>
<!-- sim/team&#45;validator.ts&#45;&gt;sim/dex&#45;formats.ts -->
<g id="edge57" class="edge">
<title>sim/team&#45;validator.ts&#45;&gt;sim/dex&#45;formats.ts</title>
<path fill="none" stroke="#4a6cb5" d="M690.72,-531.66C695.38,-521.42 700.63,-508.05 703,-495.5 717.01,-421.46 703.8,-332.27 695.15,-287.53"/>
<polygon fill="#4a6cb5" stroke="#4a6cb5" points="698.61,-286.99 693.21,-277.88 691.75,-288.37 698.61,-286.99"/>
</g>
<!-- sim/team&#45;validator.ts&#45;&gt;data/tags.ts -->
<g id="edge54" class="edge">
<title>sim/team&#45;validator.ts&#45;&gt;data/tags.ts</title>
<path fill="none" stroke="#4a6cb5" d="M702.64,-531.8C730.04,-506.9 775,-457.97 775,-405 775,-405 775,-405 775,-330 775,-288.17 779.79,-239.93 783.32,-210.07"/>
<polygon fill="#4a6cb5" stroke="#4a6cb5" points="786.77,-210.69 784.5,-200.34 779.82,-209.84 786.77,-210.69"/>
</g>
<!-- lib/streams.ts -->
<g id="node25" class="node">
<title>lib/streams.ts</title>
<polygon fill="none" stroke="black" points="791.62,-532 791.62,-568 862.38,-568 862.38,-532 791.62,-532"/>
<text text-anchor="middle" x="827" y="-544.95" font-family="Times,serif" font-size="14.00">streams.ts</text>
</g>
<!-- lib/process&#45;manager.ts&#45;&gt;lib/streams.ts -->
<g id="edge58" class="edge">
<title>lib/process&#45;manager.ts&#45;&gt;lib/streams.ts</title>
<path fill="none" stroke="#1ff3b0" d="M831.69,-677.62C827.26,-667.36 822.26,-653.99 820,-641.5 816.29,-620.99 818.28,-597.52 821.08,-579.62"/>
<polygon fill="#1ff3b0" stroke="#1ff3b0" points="824.49,-580.43 822.76,-569.97 817.59,-579.22 824.49,-580.43"/>
</g>
<!-- lib/fs.ts -->
<g id="node26" class="node">
<title>lib/fs.ts</title>
<polygon fill="none" stroke="black" points="829,-605 829,-641 883,-641 883,-605 829,-605"/>
<text text-anchor="middle" x="855.75" y="-617.95" font-family="Times,serif" font-size="14.00">fs.ts</text>
</g>
<!-- lib/process&#45;manager.ts&#45;&gt;lib/fs.ts -->
<g id="edge59" class="edge">
<title>lib/process&#45;manager.ts&#45;&gt;lib/fs.ts</title>
<path fill="none" stroke="#1ff3b0" d="M843.87,-677.81C845.6,-670.14 847.69,-660.89 849.64,-652.24"/>
<polygon fill="#1ff3b0" stroke="#1ff3b0" points="853.05,-653.03 851.83,-642.51 846.22,-651.49 853.05,-653.03"/>
</g>
<!-- lib/fs.ts&#45;&gt;lib/streams.ts -->
<g id="edge60" class="edge">
<title>lib/fs.ts&#45;&gt;lib/streams.ts</title>
<path fill="none" stroke="#1cdf90" d="M848.98,-604.81C845.77,-596.96 841.9,-587.47 838.3,-578.66"/>
<polygon fill="#1cdf90" stroke="#1cdf90" points="841.55,-577.36 834.53,-569.43 835.07,-580.01 841.55,-577.36"/>
</g>
</g>
</svg>
