<?xml version="1.0" encoding="UTF-8" standalone="no"?>
<!DOCTYPE svg PUBLIC "-//W3C//DTD SVG 1.1//EN"
 "http://www.w3.org/Graphics/SVG/1.1/DTD/svg11.dtd">
<!-- Generated by graphviz version 11.0.0 (20240428.1522)
 -->
<!-- Title: dependency&#45;cruiser output Pages: 1 -->
<svg width="415pt" height="310pt"
 viewBox="0.00 0.00 415.00 309.95" xmlns="http://www.w3.org/2000/svg" xmlns:xlink="http://www.w3.org/1999/xlink">
<g id="graph0" class="graph" transform="scale(1 1) rotate(0) translate(4 305.95)">
<title>dependency&#45;cruiser output</title>
<polygon fill="white" stroke="none" points="-4,4 -4,-305.95 411,-305.95 411,4 -4,4"/>
<g id="clust1" class="cluster">
<title>cluster_server</title>
<path fill="#ffffff" stroke="black" stroke-width="2" d="M20,-70.94C20,-70.94 333,-70.94 333,-70.94 339,-70.94 345,-76.94 345,-82.94 345,-82.94 345,-214.94 345,-214.94 345,-220.94 339,-226.94 333,-226.94 333,-226.94 20,-226.94 20,-226.94 14,-226.94 8,-220.94 8,-214.94 8,-214.94 8,-82.94 8,-82.94 8,-76.94 14,-70.94 20,-70.94"/>
<text text-anchor="middle" x="176.5" y="-214.39" font-family="Helvetica,sans-Serif" font-weight="bold" font-size="9.00">server</text>
</g>
<!-- data -->
<g id="node1" class="node">
<title>data</title>
<g id="a_node1"><a xlink:href="data" xlink:title="data">
<polygon fill="#ffffcc" stroke="black" points="407,-62.82 354.97,-62.82 353,-60.85 353,-45.07 405.03,-45.07 407,-47.04 407,-62.82"/>
<polyline fill="none" stroke="black" points="405.03,-60.85 353,-60.85"/>
<polyline fill="none" stroke="black" points="405.03,-60.85 405.03,-45.07"/>
<polyline fill="none" stroke="black" points="405.03,-60.85 407,-62.82"/>
<text text-anchor="middle" x="380" y="-50.27" font-family="Helvetica,sans-Serif" font-size="9.00">data</text>
</a>
</g>
</g>
<!-- lib -->
<g id="node2" class="node">
<title>lib</title>
<g id="a_node2"><a xlink:href="lib" xlink:title="lib">
<polygon fill="#ffffcc" stroke="black" points="407,-159.82 354.97,-159.82 353,-157.85 353,-142.07 405.03,-142.07 407,-144.04 407,-159.82"/>
<polyline fill="none" stroke="black" points="405.03,-157.85 353,-157.85"/>
<polyline fill="none" stroke="black" points="405.03,-157.85 405.03,-142.07"/>
<polyline fill="none" stroke="black" points="405.03,-157.85 407,-159.82"/>
<text text-anchor="middle" x="380" y="-147.27" font-family="Helvetica,sans-Serif" font-size="9.00">lib</text>
</a>
</g>
</g>
<!-- server/artemis -->
<g id="node3" class="node">
<title>server/artemis</title>
<g id="a_node3"><a xlink:href="server/artemis" xlink:title="artemis">
<polygon fill="#ffffcc" stroke="black" points="234.38,-126.82 182.35,-126.82 180.38,-124.85 180.38,-109.07 232.4,-109.07 234.38,-111.04 234.38,-126.82"/>
<polyline fill="none" stroke="black" points="232.4,-124.85 180.38,-124.85"/>
<polyline fill="none" stroke="black" points="232.4,-124.85 232.4,-109.07"/>
<polyline fill="none" stroke="black" points="232.4,-124.85 234.38,-126.82"/>
<text text-anchor="start" x="192.38" y="-114.27" font-family="Helvetica,sans-Serif" font-size="9.00">artemis</text>
</a>
</g>
</g>
<!-- server/artemis&#45;&gt;lib -->
<g id="edge1" class="edge">
<title>server/artemis&#45;&gt;lib</title>
<path fill="none" stroke="#000000" stroke-width="2" stroke-opacity="0.200000" d="M234.66,-123.03C263.97,-128.7 311.51,-137.89 343.96,-144.17"/>
<polygon fill="#000000" fill-opacity="0.200000" stroke="#000000" stroke-width="2" stroke-opacity="0.200000" points="343.42,-146.2 349.71,-145.28 344.22,-142.08 343.42,-146.2"/>
</g>
<!-- sim -->
<g id="node4" class="node">
<title>sim</title>
<g id="a_node4"><a xlink:href="sim" xlink:title="sim">
<polygon fill="#ffffcc" stroke="black" points="327.88,-62.82 275.85,-62.82 273.88,-60.85 273.88,-45.07 325.9,-45.07 327.88,-47.04 327.88,-62.82"/>
<polyline fill="none" stroke="black" points="325.9,-60.85 273.88,-60.85"/>
<polyline fill="none" stroke="black" points="325.9,-60.85 325.9,-45.07"/>
<polyline fill="none" stroke="black" points="325.9,-60.85 327.88,-62.82"/>
<text text-anchor="middle" x="300.88" y="-50.27" font-family="Helvetica,sans-Serif" font-size="9.00">sim</text>
</a>
</g>
</g>
<!-- server/artemis&#45;&gt;sim -->
<g id="edge2" class="edge">
<title>server/artemis&#45;&gt;sim</title>
<path fill="none" stroke="#000000" stroke-width="2" stroke-opacity="0.200000" d="M234.77,-112.9C240.95,-110.69 247.08,-107.51 251.75,-102.94 263.62,-91.34 253.16,-79.81 264.75,-67.94 265.21,-67.47 265.7,-67.01 266.2,-66.56"/>
<polygon fill="#000000" fill-opacity="0.200000" stroke="#000000" stroke-width="2" stroke-opacity="0.200000" points="267.16,-68.45 270.91,-63.32 264.78,-64.99 267.16,-68.45"/>
</g>
<!-- sim&#45;&gt;data -->
<g id="edge26" class="edge">
<title>sim&#45;&gt;data</title>
<path fill="none" stroke="#000000" stroke-width="2" stroke-opacity="0.200000" d="M327.99,-53.94C333.08,-53.94 338.5,-53.94 343.83,-53.94"/>
<polygon fill="#000000" fill-opacity="0.200000" stroke="#000000" stroke-width="2" stroke-opacity="0.200000" points="343.63,-56.04 349.63,-53.94 343.63,-51.84 343.63,-56.04"/>
</g>
<!-- sim&#45;&gt;lib -->
<g id="edge25" class="edge">
<title>sim&#45;&gt;lib</title>
<path fill="none" stroke="#000000" stroke-width="2" stroke-opacity="0.200000" d="M328,-58.47C334.14,-60.54 340.27,-63.55 345,-67.94 363.66,-85.26 372.36,-114.31 376.2,-133.05"/>
<polygon fill="#000000" fill-opacity="0.200000" stroke="#000000" stroke-width="2" stroke-opacity="0.200000" points="374.11,-133.28 377.25,-138.81 378.24,-132.53 374.11,-133.28"/>
</g>
<!-- server/chat&#45;commands -->
<g id="node5" class="node">
<title>server/chat&#45;commands</title>
<g id="a_node5"><a xlink:href="server/chat-commands" xlink:title="chat&#45;commands">
<polygon fill="#ffffcc" stroke="black" points="248,-96.82 168.72,-96.82 166.75,-94.85 166.75,-79.07 246.03,-79.07 248,-81.04 248,-96.82"/>
<polyline fill="none" stroke="black" points="246.03,-94.85 166.75,-94.85"/>
<polyline fill="none" stroke="black" points="246.03,-94.85 246.03,-79.07"/>
<polyline fill="none" stroke="black" points="246.03,-94.85 248,-96.82"/>
<text text-anchor="start" x="174.75" y="-84.27" font-family="Helvetica,sans-Serif" font-size="9.00">chat&#45;commands</text>
</a>
</g>
</g>
<!-- server/chat&#45;commands&#45;&gt;lib -->
<g id="edge3" class="edge">
<title>server/chat&#45;commands&#45;&gt;lib</title>
<path fill="none" stroke="#000000" stroke-width="2" stroke-opacity="0.200000" d="M248.32,-95.06C276.32,-100.99 314.11,-110.92 345,-125.94 350.75,-128.74 356.54,-132.54 361.67,-136.33"/>
<polygon fill="#000000" fill-opacity="0.200000" stroke="#000000" stroke-width="2" stroke-opacity="0.200000" points="360.22,-137.86 366.24,-139.9 362.8,-134.55 360.22,-137.86"/>
</g>
<!-- server/chat.ts -->
<g id="node6" class="node">
<title>server/chat.ts</title>
<g id="a_node6"><a xlink:href="server/chat.ts" xlink:title="chat.ts">
<path fill="#ddfeff" stroke="black" d="M137.58,-170.82C137.58,-170.82 95.42,-170.82 95.42,-170.82 92.46,-170.82 89.5,-167.86 89.5,-164.9 89.5,-164.9 89.5,-158.98 89.5,-158.98 89.5,-156.03 92.46,-153.07 95.42,-153.07 95.42,-153.07 137.58,-153.07 137.58,-153.07 140.54,-153.07 143.5,-156.03 143.5,-158.98 143.5,-158.98 143.5,-164.9 143.5,-164.9 143.5,-167.86 140.54,-170.82 137.58,-170.82"/>
<text text-anchor="start" x="103.38" y="-158.27" font-family="Helvetica,sans-Serif" font-size="9.00">chat.ts</text>
</a>
</g>
</g>
<!-- server/chat.ts&#45;&gt;lib -->
<g id="edge4" class="edge">
<title>server/chat.ts&#45;&gt;lib</title>
<path fill="none" stroke="#000000" stroke-width="2" stroke-opacity="0.200000" d="M143.56,-171.21C145.97,-172.84 148.18,-174.74 150,-176.94 165.43,-195.66 143.92,-214.97 163,-229.94 194.82,-254.9 311.22,-252.18 345,-229.94 365.5,-216.45 373.69,-187.72 376.93,-168.88"/>
<polygon fill="#000000" fill-opacity="0.200000" stroke="#000000" stroke-width="2" stroke-opacity="0.200000" points="378.99,-169.3 377.77,-163.06 374.83,-168.69 378.99,-169.3"/>
</g>
<!-- server/chat.ts&#45;&gt;server/artemis -->
<g id="edge6" class="edge">
<title>server/chat.ts&#45;&gt;server/artemis</title>
<path fill="none" stroke="#000000" stroke-width="2" stroke-opacity="0.200000" d="M140.51,-152.7C143.82,-150.99 147.08,-149.06 150,-146.94 156.87,-141.96 155.89,-137.58 163,-132.94 165.77,-131.14 168.77,-129.53 171.87,-128.09"/>
<polygon fill="#000000" fill-opacity="0.200000" stroke="#000000" stroke-width="2" stroke-opacity="0.200000" points="172.62,-130.05 177.38,-125.84 171.03,-126.17 172.62,-130.05"/>
</g>
<!-- server/chat.ts&#45;&gt;sim -->
<g id="edge5" class="edge">
<title>server/chat.ts&#45;&gt;sim</title>
<path fill="none" stroke="#000000" stroke-width="2" stroke-opacity="0.200000" d="M143.71,-152.79C146.09,-151.14 148.26,-149.21 150,-146.94 170.37,-120.48 138.97,-96.13 163,-72.94 177.13,-59.32 229.12,-55.35 264.79,-54.26"/>
<polygon fill="#000000" fill-opacity="0.200000" stroke="#000000" stroke-width="2" stroke-opacity="0.200000" points="264.51,-56.36 270.45,-54.11 264.4,-52.17 264.51,-56.36"/>
</g>
<!-- server/private&#45;messages -->
<g id="node7" class="node">
<title>server/private&#45;messages</title>
<g id="a_node7"><a xlink:href="server/private-messages" xlink:title="private&#45;messages">
<polygon fill="#ffffcc" stroke="black" points="251.75,-186.82 164.97,-186.82 163,-184.85 163,-169.07 249.78,-169.07 251.75,-171.04 251.75,-186.82"/>
<polyline fill="none" stroke="black" points="249.78,-184.85 163,-184.85"/>
<polyline fill="none" stroke="black" points="249.78,-184.85 249.78,-169.07"/>
<polyline fill="none" stroke="black" points="249.78,-184.85 251.75,-186.82"/>
<text text-anchor="start" x="171" y="-174.27" font-family="Helvetica,sans-Serif" font-size="9.00">private&#45;messages</text>
</a>
</g>
</g>
<!-- server/chat.ts&#45;&gt;server/private&#45;messages -->
<g id="edge7" class="edge">
<title>server/chat.ts&#45;&gt;server/private&#45;messages</title>
<path fill="none" stroke="#000000" stroke-width="2" stroke-opacity="0.200000" d="M143.68,-166.66C146.93,-167.24 150.34,-167.86 153.81,-168.48"/>
<polygon fill="#000000" fill-opacity="0.200000" stroke="#000000" stroke-width="2" stroke-opacity="0.200000" points="153.28,-170.52 159.56,-169.52 154.03,-166.39 153.28,-170.52"/>
</g>
<!-- server/private&#45;messages&#45;&gt;lib -->
<g id="edge14" class="edge">
<title>server/private&#45;messages&#45;&gt;lib</title>
<path fill="none" stroke="#000000" stroke-width="2" stroke-opacity="0.200000" d="M251.87,-171.06C280.44,-166.54 317.31,-160.71 343.98,-156.48"/>
<polygon fill="#000000" fill-opacity="0.200000" stroke="#000000" stroke-width="2" stroke-opacity="0.200000" points="344.02,-158.6 349.62,-155.59 343.36,-154.46 344.02,-158.6"/>
</g>
<!-- server/index.ts -->
<g id="node8" class="node">
<title>server/index.ts</title>
<g id="a_node8"><a xlink:href="server/index.ts" xlink:title="index.ts">
<path fill="#ddfeff" stroke="black" d="M64.08,-155.82C64.08,-155.82 21.92,-155.82 21.92,-155.82 18.96,-155.82 16,-152.86 16,-149.9 16,-149.9 16,-143.98 16,-143.98 16,-141.03 18.96,-138.07 21.92,-138.07 21.92,-138.07 64.08,-138.07 64.08,-138.07 67.04,-138.07 70,-141.03 70,-143.98 70,-143.98 70,-149.9 70,-149.9 70,-152.86 67.04,-155.82 64.08,-155.82"/>
<text text-anchor="start" x="27.25" y="-143.27" font-family="Helvetica,sans-Serif" font-size="9.00">index.ts</text>
</a>
</g>
</g>
<!-- server/index.ts&#45;&gt;lib -->
<g id="edge8" class="edge">
<title>server/index.ts&#45;&gt;lib</title>
<path fill="none" stroke="#000000" stroke-width="2" stroke-opacity="0.200000" d="M48.8,-156.25C62.46,-181.5 104.37,-250.8 163,-271.94 239.09,-299.38 280.58,-321.86 345,-272.94 361.59,-260.34 372.25,-199.55 376.67,-168.82"/>
<polygon fill="#000000" fill-opacity="0.200000" stroke="#000000" stroke-width="2" stroke-opacity="0.200000" points="378.73,-169.22 377.47,-162.99 374.57,-168.65 378.73,-169.22"/>
</g>
<!-- server/index.ts&#45;&gt;sim -->
<g id="edge9" class="edge">
<title>server/index.ts&#45;&gt;sim</title>
<path fill="none" stroke="#000000" stroke-width="2" stroke-opacity="0.200000" d="M48.61,-137.65C55.11,-125.17 67.87,-102.73 83,-86.94 113.2,-55.42 121.42,-43.24 163,-29.94 200.57,-17.93 213.36,-20.9 251.75,-29.94 260.79,-32.07 270.07,-36.17 278.04,-40.38"/>
<polygon fill="#000000" fill-opacity="0.200000" stroke="#000000" stroke-width="2" stroke-opacity="0.200000" points="276.9,-42.15 283.16,-43.26 278.96,-38.49 276.9,-42.15"/>
</g>
<!-- server/index.ts&#45;&gt;server/chat.ts -->
<g id="edge10" class="edge">
<title>server/index.ts&#45;&gt;server/chat.ts</title>
<path fill="none" stroke="#000000" stroke-width="2" stroke-opacity="0.200000" d="M70.22,-152.44C73.62,-153.16 77.14,-153.9 80.66,-154.63"/>
<polygon fill="#000000" fill-opacity="0.200000" stroke="#000000" stroke-width="2" stroke-opacity="0.200000" points="80.02,-156.65 86.32,-155.82 80.88,-152.53 80.02,-156.65"/>
</g>
<!-- server/rooms.ts -->
<g id="node9" class="node">
<title>server/rooms.ts</title>
<g id="a_node9"><a xlink:href="server/rooms.ts" xlink:title="rooms.ts">
<path fill="#ddfeff" stroke="black" d="M137.58,-110.82C137.58,-110.82 95.42,-110.82 95.42,-110.82 92.46,-110.82 89.5,-107.86 89.5,-104.9 89.5,-104.9 89.5,-98.98 89.5,-98.98 89.5,-96.03 92.46,-93.07 95.42,-93.07 95.42,-93.07 137.58,-93.07 137.58,-93.07 140.54,-93.07 143.5,-96.03 143.5,-98.98 143.5,-98.98 143.5,-104.9 143.5,-104.9 143.5,-107.86 140.54,-110.82 137.58,-110.82"/>
<text text-anchor="start" x="99.25" y="-98.27" font-family="Helvetica,sans-Serif" font-size="9.00">rooms.ts</text>
</a>
</g>
</g>
<!-- server/index.ts&#45;&gt;server/rooms.ts -->
<g id="edge11" class="edge">
<title>server/index.ts&#45;&gt;server/rooms.ts</title>
<path fill="none" stroke="#000000" stroke-width="2" stroke-opacity="0.200000" d="M54.79,-137.59C62.37,-131.29 72.91,-123.04 83,-116.94 83.82,-116.44 84.67,-115.95 85.53,-115.46"/>
<polygon fill="#000000" fill-opacity="0.200000" stroke="#000000" stroke-width="2" stroke-opacity="0.200000" points="86.46,-117.35 90.79,-112.7 84.51,-113.63 86.46,-117.35"/>
</g>
<!-- server/tournaments -->
<g id="node10" class="node">
<title>server/tournaments</title>
<g id="a_node10"><a xlink:href="server/tournaments" xlink:title="tournaments">
<polygon fill="#ffffcc" stroke="black" points="150,-140.82 84.97,-140.82 83,-138.85 83,-123.07 148.03,-123.07 150,-125.04 150,-140.82"/>
<polyline fill="none" stroke="black" points="148.03,-138.85 83,-138.85"/>
<polyline fill="none" stroke="black" points="148.03,-138.85 148.03,-123.07"/>
<polyline fill="none" stroke="black" points="148.03,-138.85 150,-140.82"/>
<text text-anchor="start" x="91" y="-128.27" font-family="Helvetica,sans-Serif" font-size="9.00">tournaments</text>
</a>
</g>
</g>
<!-- server/index.ts&#45;&gt;server/tournaments -->
<g id="edge12" class="edge">
<title>server/index.ts&#45;&gt;server/tournaments</title>
<path fill="none" stroke="#000000" stroke-width="2" stroke-opacity="0.200000" d="M70.22,-141.44C71.51,-141.17 72.83,-140.9 74.15,-140.62"/>
<polygon fill="#000000" fill-opacity="0.200000" stroke="#000000" stroke-width="2" stroke-opacity="0.200000" points="74.56,-142.68 80,-139.39 73.69,-138.57 74.56,-142.68"/>
</g>
<!-- server/users.ts -->
<g id="node11" class="node">
<title>server/users.ts</title>
<g id="a_node11"><a xlink:href="server/users.ts" xlink:title="users.ts">
<path fill="#ddfeff" stroke="black" d="M137.58,-200.82C137.58,-200.82 95.42,-200.82 95.42,-200.82 92.46,-200.82 89.5,-197.86 89.5,-194.9 89.5,-194.9 89.5,-188.98 89.5,-188.98 89.5,-186.03 92.46,-183.07 95.42,-183.07 95.42,-183.07 137.58,-183.07 137.58,-183.07 140.54,-183.07 143.5,-186.03 143.5,-188.98 143.5,-188.98 143.5,-194.9 143.5,-194.9 143.5,-197.86 140.54,-200.82 137.58,-200.82"/>
<text text-anchor="start" x="100.75" y="-188.27" font-family="Helvetica,sans-Serif" font-size="9.00">users.ts</text>
</a>
</g>
</g>
<!-- server/index.ts&#45;&gt;server/users.ts -->
<g id="edge13" class="edge">
<title>server/index.ts&#45;&gt;server/users.ts</title>
<path fill="none" stroke="#000000" stroke-width="2" stroke-opacity="0.200000" d="M54.79,-156.3C62.37,-162.6 72.91,-170.84 83,-176.94 83.82,-177.44 84.67,-177.93 85.53,-178.42"/>
<polygon fill="#000000" fill-opacity="0.200000" stroke="#000000" stroke-width="2" stroke-opacity="0.200000" points="84.51,-180.26 90.79,-181.19 86.46,-176.54 84.51,-180.26"/>
</g>
<!-- server/rooms.ts&#45;&gt;lib -->
<g id="edge18" class="edge">
<title>server/rooms.ts&#45;&gt;lib</title>
<path fill="none" stroke="#000000" stroke-width="2" stroke-opacity="0.200000" d="M120.11,-92.76C125.25,-76.59 138.39,-43.5 163,-29.94 233.93,9.14 283.22,13.43 345,-38.94 355.53,-47.87 349.14,-55.7 353,-68.94 359.56,-91.44 367.85,-117.17 373.28,-133.72"/>
<polygon fill="#000000" fill-opacity="0.200000" stroke="#000000" stroke-width="2" stroke-opacity="0.200000" points="371.15,-133.97 375.03,-139.01 375.14,-132.65 371.15,-133.97"/>
</g>
<!-- server/rooms.ts&#45;&gt;server/chat&#45;commands -->
<g id="edge19" class="edge">
<title>server/rooms.ts&#45;&gt;server/chat&#45;commands</title>
<path fill="none" stroke="#000000" stroke-width="2" stroke-opacity="0.200000" d="M143.68,-97.82C148.16,-97.11 152.94,-96.36 157.79,-95.6"/>
<polygon fill="#000000" fill-opacity="0.200000" stroke="#000000" stroke-width="2" stroke-opacity="0.200000" points="157.95,-97.7 163.55,-94.69 157.29,-93.55 157.95,-97.7"/>
</g>
<!-- server/room&#45;battle.ts -->
<g id="node12" class="node">
<title>server/room&#45;battle.ts</title>
<g id="a_node12"><a xlink:href="server/room-battle.ts" xlink:title="room&#45;battle.ts">
<path fill="#ddfeff" stroke="black" d="M237.21,-156.82C237.21,-156.82 177.54,-156.82 177.54,-156.82 174.58,-156.82 171.62,-153.86 171.62,-150.9 171.62,-150.9 171.62,-144.98 171.62,-144.98 171.62,-142.03 174.58,-139.07 177.54,-139.07 177.54,-139.07 237.21,-139.07 237.21,-139.07 240.17,-139.07 243.12,-142.03 243.12,-144.98 243.12,-144.98 243.12,-150.9 243.12,-150.9 243.12,-153.86 240.17,-156.82 237.21,-156.82"/>
<text text-anchor="start" x="179.62" y="-144.27" font-family="Helvetica,sans-Serif" font-size="9.00">room&#45;battle.ts</text>
</a>
</g>
</g>
<!-- server/rooms.ts&#45;&gt;server/room&#45;battle.ts -->
<g id="edge20" class="edge">
<title>server/rooms.ts&#45;&gt;server/room&#45;battle.ts</title>
<path fill="none" stroke="#000000" stroke-width="2" stroke-opacity="0.200000" d="M140.98,-111.19C144.15,-112.89 147.25,-114.81 150,-116.94 157.24,-122.56 155.49,-127.69 163,-132.94 163.78,-133.49 164.59,-134.02 165.41,-134.53"/>
<polygon fill="#000000" fill-opacity="0.200000" stroke="#000000" stroke-width="2" stroke-opacity="0.200000" points="164.25,-136.29 170.53,-137.25 166.22,-132.58 164.25,-136.29"/>
</g>
<!-- server/room&#45;game.ts -->
<g id="node13" class="node">
<title>server/room&#45;game.ts</title>
<g id="a_node13"><a xlink:href="server/room-game.ts" xlink:title="room&#45;game.ts">
<path fill="#ddfeff" stroke="black" d="M331.08,-200.82C331.08,-200.82 270.67,-200.82 270.67,-200.82 267.71,-200.82 264.75,-197.86 264.75,-194.9 264.75,-194.9 264.75,-188.98 264.75,-188.98 264.75,-186.03 267.71,-183.07 270.67,-183.07 270.67,-183.07 331.08,-183.07 331.08,-183.07 334.04,-183.07 337,-186.03 337,-188.98 337,-188.98 337,-194.9 337,-194.9 337,-197.86 334.04,-200.82 331.08,-200.82"/>
<text text-anchor="start" x="272.75" y="-188.27" font-family="Helvetica,sans-Serif" font-size="9.00">room&#45;game.ts</text>
</a>
</g>
</g>
<!-- server/rooms.ts&#45;&gt;server/room&#45;game.ts -->
<g id="edge21" class="edge">
<title>server/rooms.ts&#45;&gt;server/room&#45;game.ts</title>
<path fill="none" stroke="#000000" stroke-width="2" stroke-opacity="0.200000" d="M143.72,-111.08C146.1,-112.74 148.26,-114.67 150,-116.94 170.85,-144.14 136.81,-170.85 163,-192.94 176.61,-204.42 221.16,-202.12 255.78,-198.24"/>
<polygon fill="#000000" fill-opacity="0.200000" stroke="#000000" stroke-width="2" stroke-opacity="0.200000" points="255.63,-200.37 261.34,-197.58 255.13,-196.2 255.63,-200.37"/>
</g>
<!-- server/tournaments&#45;&gt;lib -->
<g id="edge22" class="edge">
<title>server/tournaments&#45;&gt;lib</title>
<path fill="none" stroke="#000000" stroke-width="2" stroke-opacity="0.200000" d="M143.57,-141.2C145.98,-142.83 148.19,-144.73 150,-146.94 165.66,-166.02 144.07,-185.1 163,-200.94 194.04,-226.91 309.73,-226.79 345,-206.94 359.5,-198.79 368.53,-181.67 373.6,-168.5"/>
<polygon fill="#000000" fill-opacity="0.200000" stroke="#000000" stroke-width="2" stroke-opacity="0.200000" points="375.52,-169.38 375.51,-163.02 371.55,-168 375.52,-169.38"/>
</g>
<!-- server/tournaments&#45;&gt;sim -->
<g id="edge23" class="edge">
<title>server/tournaments&#45;&gt;sim</title>
<path fill="none" stroke="#000000" stroke-width="2" stroke-opacity="0.200000" d="M143.67,-122.76C146.06,-121.12 148.24,-119.19 150,-116.94 168.72,-93.07 139.6,-69.24 163,-49.94 191.8,-26.2 236.75,-33.08 267.22,-41.96"/>
<polygon fill="#000000" fill-opacity="0.200000" stroke="#000000" stroke-width="2" stroke-opacity="0.200000" points="266.54,-43.95 272.9,-43.72 267.79,-39.94 266.54,-43.95"/>
</g>
<!-- server/users.ts&#45;&gt;lib -->
<g id="edge24" class="edge">
<title>server/users.ts&#45;&gt;lib</title>
<path fill="none" stroke="#000000" stroke-width="2" stroke-opacity="0.200000" d="M121.77,-201.26C128.42,-214.5 142.64,-238.25 163,-247.94 236.04,-282.71 279.02,-294.73 345,-247.94 370.23,-230.05 376.88,-191.91 378.55,-169.15"/>
<polygon fill="#000000" fill-opacity="0.200000" stroke="#000000" stroke-width="2" stroke-opacity="0.200000" points="380.64,-169.3 378.85,-163.2 376.45,-169.08 380.64,-169.3"/>
</g>
<!-- server/room&#45;battle.ts&#45;&gt;lib -->
<g id="edge15" class="edge">
<title>server/room&#45;battle.ts&#45;&gt;lib</title>
<path fill="none" stroke="#000000" stroke-width="2" stroke-opacity="0.200000" d="M243.32,-148.56C272.74,-149.07 314.61,-149.81 344.04,-150.33"/>
<polygon fill="#000000" fill-opacity="0.200000" stroke="#000000" stroke-width="2" stroke-opacity="0.200000" points="343.69,-152.42 349.72,-150.43 343.76,-148.22 343.69,-152.42"/>
</g>
<!-- server/room&#45;battle.ts&#45;&gt;sim -->
<g id="edge16" class="edge">
<title>server/room&#45;battle.ts&#45;&gt;sim</title>
<path fill="none" stroke="#000000" stroke-width="2" stroke-opacity="0.200000" d="M243.6,-139.55C246.65,-137.76 249.44,-135.58 251.75,-132.94 271.12,-110.75 245.9,-90.58 264.75,-67.94 265.28,-67.3 265.85,-66.69 266.44,-66.11"/>
<polygon fill="#000000" fill-opacity="0.200000" stroke="#000000" stroke-width="2" stroke-opacity="0.200000" points="267.62,-67.85 271.26,-62.63 265.17,-64.44 267.62,-67.85"/>
</g>
<!-- server/room&#45;battle.ts&#45;&gt;server/room&#45;game.ts -->
<g id="edge17" class="edge">
<title>server/room&#45;battle.ts&#45;&gt;server/room&#45;game.ts</title>
<path fill="none" stroke="#000000" stroke-width="2" stroke-opacity="0.200000" d="M238.1,-157.29C242.74,-159.02 247.42,-160.92 251.75,-162.94 260.99,-167.27 270.71,-172.9 278.98,-178.05"/>
<polygon fill="#000000" fill-opacity="0.200000" stroke="#000000" stroke-width="2" stroke-opacity="0.200000" points="277.66,-179.69 283.85,-181.15 279.92,-176.15 277.66,-179.69"/>
</g>
</g>
</svg>
