<?xml version="1.0" encoding="UTF-8" standalone="no"?>
<!DOCTYPE svg PUBLIC "-//W3C//DTD SVG 1.1//EN"
 "http://www.w3.org/Graphics/SVG/1.1/DTD/svg11.dtd">
<!-- Generated by graphviz version 11.0.0 (20240428.1522)
 -->
<!-- Title: graphname Pages: 1 -->
<svg width="896pt" height="841pt"
 viewBox="0.00 0.00 896.00 840.50" xmlns="http://www.w3.org/2000/svg" xmlns:xlink="http://www.w3.org/1999/xlink">
<g id="graph0" class="graph" transform="scale(1 1) rotate(0) translate(4 836.5)">
<title>graphname</title>
<polygon fill="white" stroke="none" points="-4,4 -4,-836.5 892,-836.5 892,4 -4,4"/>
<g id="clust2" class="cluster">
<title>cluster_1</title>
<polygon fill="none" stroke="black" points="714,-154 714,-231.5 784,-231.5 784,-154 714,-154"/>
<text text-anchor="middle" x="749" y="-214.2" font-family="Times,serif" font-size="14.00">data</text>
</g>
<g id="clust3" class="cluster">
<title>cluster_2</title>
<polygon fill="none" stroke="black" points="744,-450.5 744,-674 880,-674 880,-450.5 744,-450.5"/>
<text text-anchor="middle" x="812" y="-656.7" font-family="Times,serif" font-size="14.00">lib</text>
</g>
<g id="clust4" class="cluster">
<title>cluster_3</title>
<polygon fill="none" stroke="black" points="8,-596.5 8,-824.5 254,-824.5 254,-596.5 8,-596.5"/>
<text text-anchor="middle" x="131" y="-807.2" font-family="Times,serif" font-size="14.00">server</text>
</g>
<g id="clust5" class="cluster">
<title>cluster_4</title>
<polygon fill="none" stroke="black" points="262,-8 262,-674 706,-674 706,-8 262,-8"/>
<text text-anchor="middle" x="484" y="-656.7" font-family="Times,serif" font-size="14.00">sim</text>
</g>
<!-- sim/dex.ts -->
<g id="node1" class="node">
<title>sim/dex.ts</title>
<polygon fill="green" stroke="black" points="424,-313 424,-349 478,-349 478,-313 424,-313"/>
<text text-anchor="middle" x="450.62" y="-325.95" font-family="Times,serif" font-size="14.00">dex.ts</text>
</g>
<!-- sim/dex&#45;formats.ts -->
<g id="node7" class="node">
<title>sim/dex&#45;formats.ts</title>
<polygon fill="none" stroke="black" points="603.62,-240 603.62,-276 698.38,-276 698.38,-240 603.62,-240"/>
<text text-anchor="middle" x="651" y="-252.95" font-family="Times,serif" font-size="14.00">dex&#45;formats.ts</text>
</g>
<!-- sim/dex.ts&#45;&gt;sim/dex&#45;formats.ts -->
<g id="edge20" class="edge">
<title>sim/dex.ts&#45;&gt;sim/dex&#45;formats.ts</title>
<path fill="none" stroke="green" d="M478.39,-320.28C507.6,-309.91 554.75,-293.17 592.39,-279.81"/>
<polygon fill="green" stroke="green" points="593.55,-283.11 601.81,-276.46 591.21,-276.51 593.55,-283.11"/>
</g>
<!-- sim/dex&#45;conditions.ts -->
<g id="node9" class="node">
<title>sim/dex&#45;conditions.ts</title>
<polygon fill="none" stroke="black" points="400.5,-162.5 400.5,-198.5 509.5,-198.5 509.5,-162.5 400.5,-162.5"/>
<text text-anchor="middle" x="455" y="-175.45" font-family="Times,serif" font-size="14.00">dex&#45;conditions.ts</text>
</g>
<!-- sim/dex.ts&#45;&gt;sim/dex&#45;conditions.ts -->
<g id="edge15" class="edge">
<title>sim/dex.ts&#45;&gt;sim/dex&#45;conditions.ts</title>
<path fill="none" stroke="green" d="M446.94,-312.77C444.69,-302.34 442.13,-288.73 441,-276.5 439.48,-260.13 439.06,-255.83 441,-239.5 442.16,-229.74 444.39,-219.24 446.73,-209.89"/>
<polygon fill="green" stroke="green" points="450.1,-210.84 449.29,-200.28 443.33,-209.04 450.1,-210.84"/>
</g>
<!-- sim/dex&#45;items.ts -->
<g id="node13" class="node">
<title>sim/dex&#45;items.ts</title>
<polygon fill="none" stroke="black" points="329.62,-240 329.62,-276 412.38,-276 412.38,-240 329.62,-240"/>
<text text-anchor="middle" x="371" y="-252.95" font-family="Times,serif" font-size="14.00">dex&#45;items.ts</text>
</g>
<!-- sim/dex.ts&#45;&gt;sim/dex&#45;items.ts -->
<g id="edge17" class="edge">
<title>sim/dex.ts&#45;&gt;sim/dex&#45;items.ts</title>
<path fill="none" stroke="green" d="M431.63,-312.81C421.78,-304.07 409.63,-293.28 398.8,-283.67"/>
<polygon fill="green" stroke="green" points="401.4,-281.3 391.6,-277.28 396.75,-286.54 401.4,-281.3"/>
</g>
<!-- sim/dex&#45;abilities.ts -->
<g id="node14" class="node">
<title>sim/dex&#45;abilities.ts</title>
<polygon fill="none" stroke="black" points="450.25,-240 450.25,-276 545.75,-276 545.75,-240 450.25,-240"/>
<text text-anchor="middle" x="498" y="-252.95" font-family="Times,serif" font-size="14.00">dex&#45;abilities.ts</text>
</g>
<!-- sim/dex.ts&#45;&gt;sim/dex&#45;abilities.ts -->
<g id="edge18" class="edge">
<title>sim/dex.ts&#45;&gt;sim/dex&#45;abilities.ts</title>
<path fill="none" stroke="green" d="M462.38,-312.81C467.8,-304.62 474.42,-294.62 480.47,-285.48"/>
<polygon fill="green" stroke="green" points="483.29,-287.56 485.89,-277.29 477.45,-283.7 483.29,-287.56"/>
</g>
<!-- sim/dex&#45;moves.ts -->
<g id="node16" class="node">
<title>sim/dex&#45;moves.ts</title>
<polygon fill="none" stroke="black" points="489.62,-89.5 489.62,-125.5 578.38,-125.5 578.38,-89.5 489.62,-89.5"/>
<text text-anchor="middle" x="534" y="-102.45" font-family="Times,serif" font-size="14.00">dex&#45;moves.ts</text>
</g>
<!-- sim/dex.ts&#45;&gt;sim/dex&#45;moves.ts -->
<g id="edge16" class="edge">
<title>sim/dex.ts&#45;&gt;sim/dex&#45;moves.ts</title>
<path fill="none" stroke="green" d="M478.18,-324.39C503.04,-317.67 538.4,-303.71 555,-276.5 581.45,-233.14 562.63,-171.77 547.6,-136.46"/>
<polygon fill="green" stroke="green" points="550.8,-135.06 543.53,-127.35 544.41,-137.91 550.8,-135.06"/>
</g>
<!-- sim/dex&#45;species.ts -->
<g id="node19" class="node">
<title>sim/dex&#45;species.ts</title>
<polygon fill="none" stroke="black" points="270.12,-162.5 270.12,-198.5 361.88,-198.5 361.88,-162.5 270.12,-162.5"/>
<text text-anchor="middle" x="316" y="-175.45" font-family="Times,serif" font-size="14.00">dex&#45;species.ts</text>
</g>
<!-- sim/dex.ts&#45;&gt;sim/dex&#45;species.ts -->
<g id="edge19" class="edge">
<title>sim/dex.ts&#45;&gt;sim/dex&#45;species.ts</title>
<path fill="none" stroke="green" d="M423.61,-327.2C393,-322.47 344.64,-309.85 321,-276.5 307.43,-257.35 307.39,-230.19 310.03,-209.81"/>
<polygon fill="green" stroke="green" points="313.44,-210.63 311.58,-200.2 306.53,-209.52 313.44,-210.63"/>
</g>
<!-- sim/dex&#45;data.ts -->
<g id="node24" class="node">
<title>sim/dex&#45;data.ts</title>
<polygon fill="none" stroke="black" points="433.38,-16.5 433.38,-52.5 508.62,-52.5 508.62,-16.5 433.38,-16.5"/>
<text text-anchor="middle" x="471" y="-29.45" font-family="Times,serif" font-size="14.00">dex&#45;data.ts</text>
</g>
<!-- sim/dex.ts&#45;&gt;sim/dex&#45;data.ts -->
<g id="edge14" class="edge">
<title>sim/dex.ts&#45;&gt;sim/dex&#45;data.ts</title>
<path fill="none" stroke="green" d="M478.04,-325.14C504.86,-318.81 544.91,-305 566,-276.5 606.17,-222.21 582.32,-193.37 587,-126 588.14,-109.6 595.86,-102.85 587,-89 572.17,-65.84 544.49,-52.56 519.89,-45.03"/>
<polygon fill="green" stroke="green" points="520.89,-41.67 510.32,-42.36 519.01,-48.42 520.89,-41.67"/>
</g>
<!-- sim/battle.ts -->
<g id="node2" class="node">
<title>sim/battle.ts</title>
<polygon fill="green" stroke="black" points="347.62,-605 347.62,-641 406.38,-641 406.38,-605 347.62,-605"/>
<text text-anchor="middle" x="377" y="-617.95" font-family="Times,serif" font-size="14.00">battle.ts</text>
</g>
<!-- sim/battle.ts&#45;&gt;sim/dex.ts -->
<g id="edge5" class="edge">
<title>sim/battle.ts&#45;&gt;sim/dex.ts</title>
<path fill="none" stroke="green" d="M347.49,-608.36C331.4,-599.36 312.65,-585.99 302,-568.5 259.42,-498.58 232.57,-451.51 281,-385.5 310.92,-344.72 371.95,-334.2 412.16,-331.93"/>
<polygon fill="green" stroke="green" points="412.29,-335.43 422.15,-331.53 412.01,-328.44 412.29,-335.43"/>
</g>
<!-- sim/state.ts -->
<g id="node3" class="node">
<title>sim/state.ts</title>
<polygon fill="green" stroke="black" points="350,-532 350,-568 404,-568 404,-532 350,-532"/>
<text text-anchor="middle" x="376.75" y="-544.95" font-family="Times,serif" font-size="14.00">state.ts</text>
</g>
<!-- sim/battle.ts&#45;&gt;sim/state.ts -->
<g id="edge11" class="edge">
<title>sim/battle.ts&#45;&gt;sim/state.ts</title>
<path fill="none" stroke="green" d="M371.12,-604.81C370.32,-597.14 370.07,-587.89 370.38,-579.24"/>
<polygon fill="green" stroke="green" points="373.85,-579.75 371.04,-569.54 366.87,-579.28 373.85,-579.75"/>
</g>
<!-- sim/side.ts -->
<g id="node4" class="node">
<title>sim/side.ts</title>
<polygon fill="green" stroke="black" points="310,-459 310,-495 364,-495 364,-459 310,-459"/>
<text text-anchor="middle" x="336.75" y="-471.95" font-family="Times,serif" font-size="14.00">side.ts</text>
</g>
<!-- sim/battle.ts&#45;&gt;sim/side.ts -->
<g id="edge10" class="edge">
<title>sim/battle.ts&#45;&gt;sim/side.ts</title>
<path fill="none" stroke="green" d="M349.5,-604.72C339.17,-595.11 328.95,-582.31 324,-568.5 316.83,-548.49 318.34,-524.38 322.7,-506.08"/>
<polygon fill="green" stroke="green" points="325.99,-507.29 325.4,-496.71 319.27,-505.35 325.99,-507.29"/>
</g>
<!-- sim/field.ts -->
<g id="node6" class="node">
<title>sim/field.ts</title>
<polygon fill="none" stroke="black" points="382,-459 382,-495 436,-495 436,-459 382,-459"/>
<text text-anchor="middle" x="408.75" y="-471.95" font-family="Times,serif" font-size="14.00">field.ts</text>
</g>
<!-- sim/battle.ts&#45;&gt;sim/field.ts -->
<g id="edge7" class="edge">
<title>sim/battle.ts&#45;&gt;sim/field.ts</title>
<path fill="none" stroke="green" d="M361.43,-604.66C346.85,-586.2 328.96,-556.29 341,-531.5 347.75,-517.61 360.04,-506.25 372.34,-497.62"/>
<polygon fill="green" stroke="green" points="373.91,-500.78 380.38,-492.39 370.09,-494.91 373.91,-500.78"/>
</g>
<!-- sim/pokemon.ts -->
<g id="node8" class="node">
<title>sim/pokemon.ts</title>
<polygon fill="none" stroke="black" points="470.12,-386 470.12,-422 549.88,-422 549.88,-386 470.12,-386"/>
<text text-anchor="middle" x="510" y="-398.95" font-family="Times,serif" font-size="14.00">pokemon.ts</text>
</g>
<!-- sim/battle.ts&#45;&gt;sim/pokemon.ts -->
<g id="edge8" class="edge">
<title>sim/battle.ts&#45;&gt;sim/pokemon.ts</title>
<path fill="none" stroke="green" d="M389.95,-604.74C397.27,-594.53 406.27,-581.15 413,-568.5 421.33,-552.83 417.04,-545.45 428,-531.5 444.92,-509.97 461.57,-517.41 478,-495.5 491.74,-477.17 499.95,-452.43 504.61,-433.45"/>
<polygon fill="green" stroke="green" points="507.97,-434.48 506.74,-423.96 501.13,-432.95 507.97,-434.48"/>
</g>
<!-- sim/teams.ts -->
<g id="node10" class="node">
<title>sim/teams.ts</title>
<polygon fill="none" stroke="black" points="596.5,-532 596.5,-568 657.5,-568 657.5,-532 596.5,-532"/>
<text text-anchor="middle" x="627" y="-544.95" font-family="Times,serif" font-size="14.00">teams.ts</text>
</g>
<!-- sim/battle.ts&#45;&gt;sim/teams.ts -->
<g id="edge6" class="edge">
<title>sim/battle.ts&#45;&gt;sim/teams.ts</title>
<path fill="none" stroke="green" d="M406.64,-613.75C444.05,-603.31 510.34,-584.74 567,-568.5 572.93,-566.8 579.19,-564.99 585.34,-563.21"/>
<polygon fill="green" stroke="green" points="586.11,-566.63 594.73,-560.47 584.15,-559.91 586.11,-566.63"/>
</g>
<!-- sim/battle&#45;queue.ts -->
<g id="node17" class="node">
<title>sim/battle&#45;queue.ts</title>
<polygon fill="none" stroke="black" points="462.25,-532 462.25,-568 557.75,-568 557.75,-532 462.25,-532"/>
<text text-anchor="middle" x="510" y="-544.95" font-family="Times,serif" font-size="14.00">battle&#45;queue.ts</text>
</g>
<!-- sim/battle.ts&#45;&gt;sim/battle&#45;queue.ts -->
<g id="edge12" class="edge">
<title>sim/battle.ts&#45;&gt;sim/battle&#45;queue.ts</title>
<path fill="none" stroke="green" d="M403.64,-604.63C420.15,-595.31 441.74,-583.7 461.2,-573.67"/>
<polygon fill="green" stroke="green" points="462.78,-576.79 470.09,-569.12 459.59,-570.56 462.78,-576.79"/>
</g>
<!-- sim/battle&#45;actions.ts -->
<g id="node18" class="node">
<title>sim/battle&#45;actions.ts</title>
<polygon fill="none" stroke="black" points="290.25,-386 290.25,-422 391.75,-422 391.75,-386 290.25,-386"/>
<text text-anchor="middle" x="341" y="-398.95" font-family="Times,serif" font-size="14.00">battle&#45;actions.ts</text>
</g>
<!-- sim/battle.ts&#45;&gt;sim/battle&#45;actions.ts -->
<g id="edge13" class="edge">
<title>sim/battle.ts&#45;&gt;sim/battle&#45;actions.ts</title>
<path fill="none" stroke="green" d="M354.92,-604.71C343.95,-595.1 331.3,-582.3 323,-568.5 305.54,-539.46 305.94,-529.02 301,-495.5 298.08,-475.71 293.94,-469.21 301,-450.5 303.69,-443.36 308.07,-436.61 312.97,-430.61"/>
<polygon fill="green" stroke="green" points="315.27,-433.28 319.36,-423.51 310.07,-428.6 315.27,-433.28"/>
</g>
<!-- sim/prng.ts -->
<g id="node23" class="node">
<title>sim/prng.ts</title>
<polygon fill="none" stroke="black" points="532,-459 532,-495 586,-495 586,-459 532,-459"/>
<text text-anchor="middle" x="558.75" y="-471.95" font-family="Times,serif" font-size="14.00">prng.ts</text>
</g>
<!-- sim/battle.ts&#45;&gt;sim/prng.ts -->
<g id="edge9" class="edge">
<title>sim/battle.ts&#45;&gt;sim/prng.ts</title>
<path fill="none" stroke="green" d="M394.77,-604.85C404.95,-594.67 417.7,-581.29 428,-568.5 440.45,-553.04 438.11,-544.62 453,-531.5 472.98,-513.9 499.79,-500.44 521.44,-491.42"/>
<polygon fill="green" stroke="green" points="522.53,-494.76 530.52,-487.8 519.93,-488.26 522.53,-494.76"/>
</g>
<!-- sim/state.ts&#45;&gt;sim/dex.ts -->
<g id="edge38" class="edge">
<title>sim/state.ts&#45;&gt;sim/dex.ts</title>
<path fill="none" stroke="green" d="M404.46,-535.1C419.28,-526.01 436.28,-512.64 445,-495.5 456.58,-472.73 454.85,-401.23 452.8,-360.72"/>
<polygon fill="green" stroke="green" points="456.29,-360.54 452.25,-350.75 449.3,-360.93 456.29,-360.54"/>
</g>
<!-- sim/state.ts&#45;&gt;sim/battle.ts -->
<g id="edge37" class="edge">
<title>sim/state.ts&#45;&gt;sim/battle.ts</title>
<path fill="none" stroke="green" d="M382.86,-568.03C383.67,-575.68 383.93,-584.92 383.63,-593.58"/>
<polygon fill="green" stroke="green" points="380.15,-593.09 382.98,-603.3 387.14,-593.56 380.15,-593.09"/>
</g>
<!-- sim/state.ts&#45;&gt;sim/side.ts -->
<g id="edge42" class="edge">
<title>sim/state.ts&#45;&gt;sim/side.ts</title>
<path fill="none" stroke="green" d="M361.44,-531.81C356.08,-523.79 350.36,-514.05 345.67,-505.07"/>
<polygon fill="green" stroke="green" points="348.96,-503.81 341.4,-496.39 342.67,-506.9 348.96,-503.81"/>
</g>
<!-- sim/state.ts&#45;&gt;sim/field.ts -->
<g id="edge39" class="edge">
<title>sim/state.ts&#45;&gt;sim/field.ts</title>
<path fill="none" stroke="green" d="M378.87,-531.81C381.64,-523.79 385.8,-514.05 390.22,-505.07"/>
<polygon fill="green" stroke="green" points="393.24,-506.86 394.76,-496.37 387.03,-503.62 393.24,-506.86"/>
</g>
<!-- sim/state.ts&#45;&gt;sim/pokemon.ts -->
<g id="edge40" class="edge">
<title>sim/state.ts&#45;&gt;sim/pokemon.ts</title>
<path fill="none" stroke="green" d="M403.97,-531.54C419.11,-522.38 437.42,-510.03 451,-495.5 460.41,-485.43 476.51,-454.9 489.83,-432.07"/>
<polygon fill="green" stroke="green" points="492.82,-433.9 494.95,-423.52 486.81,-430.3 492.82,-433.9"/>
</g>
<!-- sim/state.ts&#45;&gt;sim/prng.ts -->
<g id="edge41" class="edge">
<title>sim/state.ts&#45;&gt;sim/prng.ts</title>
<path fill="none" stroke="green" d="M404.25,-538.37C435.21,-526.29 485.95,-506.5 520.84,-492.89"/>
<polygon fill="green" stroke="green" points="522.11,-496.15 530.16,-489.25 519.57,-489.63 522.11,-496.15"/>
</g>
<!-- sim/side.ts&#45;&gt;sim/dex.ts -->
<g id="edge48" class="edge">
<title>sim/side.ts&#45;&gt;sim/dex.ts</title>
<path fill="none" stroke="green" d="M362.06,-458.62C374.76,-448.97 389.82,-436.18 401,-422.5 412.83,-408.02 411.98,-401.88 421,-385.5 425.69,-376.97 430.86,-367.72 435.56,-359.33"/>
<polygon fill="green" stroke="green" points="438.61,-361.06 440.46,-350.63 432.51,-357.63 438.61,-361.06"/>
</g>
<!-- sim/side.ts&#45;&gt;sim/battle.ts -->
<g id="edge45" class="edge">
<title>sim/side.ts&#45;&gt;sim/battle.ts</title>
<path fill="none" stroke="green" d="M339.08,-495.26C337.39,-513.91 333.3,-544.22 342,-568.5 345.56,-578.43 351.84,-587.83 358.2,-595.9"/>
<polygon fill="green" stroke="green" points="355.49,-598.12 364.58,-603.56 360.87,-593.64 355.49,-598.12"/>
</g>
<!-- sim/side.ts&#45;&gt;sim/state.ts -->
<g id="edge47" class="edge">
<title>sim/side.ts&#45;&gt;sim/state.ts</title>
<path fill="none" stroke="green" d="M352.46,-495.03C357.81,-503.03 363.54,-512.77 368.23,-521.75"/>
<polygon fill="green" stroke="green" points="364.96,-523.03 372.53,-530.46 371.24,-519.94 364.96,-523.03"/>
</g>
<!-- sim/side.ts&#45;&gt;sim/pokemon.ts -->
<g id="edge46" class="edge">
<title>sim/side.ts&#45;&gt;sim/pokemon.ts</title>
<path fill="none" stroke="green" d="M359.21,-458.75C363.63,-455.75 368.35,-452.85 373,-450.5 400.2,-436.74 432.48,-425.78 458.87,-418.07"/>
<polygon fill="green" stroke="green" points="459.67,-421.48 468.33,-415.38 457.75,-414.75 459.67,-421.48"/>
</g>
<!-- sim/team&#45;validator.ts -->
<g id="node5" class="node">
<title>sim/team&#45;validator.ts</title>
<polygon fill="green" stroke="black" points="581.25,-605 581.25,-641 688.75,-641 688.75,-605 581.25,-605"/>
<text text-anchor="middle" x="635" y="-617.95" font-family="Times,serif" font-size="14.00">team&#45;validator.ts</text>
</g>
<!-- sim/team&#45;validator.ts&#45;&gt;sim/dex.ts -->
<g id="edge53" class="edge">
<title>sim/team&#45;validator.ts&#45;&gt;sim/dex.ts</title>
<path fill="none" stroke="green" d="M648.57,-604.79C655.56,-594.81 663.37,-581.64 667,-568.5 671.38,-552.65 671.48,-547.32 667,-531.5 646.21,-458.16 634.81,-435.18 577,-385.5 551.69,-363.75 516.23,-349.76 489.37,-341.56"/>
<polygon fill="green" stroke="green" points="490.48,-338.24 479.9,-338.82 488.53,-344.96 490.48,-338.24"/>
</g>
<!-- sim/team&#45;validator.ts&#45;&gt;sim/dex&#45;formats.ts -->
<g id="edge57" class="edge">
<title>sim/team&#45;validator.ts&#45;&gt;sim/dex&#45;formats.ts</title>
<path fill="none" stroke="green" d="M649.73,-604.68C657.61,-594.66 666.91,-581.5 673,-568.5 690.66,-530.82 697,-519.61 697,-478 697,-478 697,-478 697,-403 697,-360.83 678.88,-314.87 665.39,-286.49"/>
<polygon fill="green" stroke="green" points="668.53,-284.95 660.98,-277.53 662.25,-288.04 668.53,-284.95"/>
</g>
<!-- sim/team&#45;validator.ts&#45;&gt;sim/teams.ts -->
<g id="edge55" class="edge">
<title>sim/team&#45;validator.ts&#45;&gt;sim/teams.ts</title>
<path fill="none" stroke="green" d="M633.06,-604.81C632.2,-597.14 631.16,-587.89 630.18,-579.24"/>
<polygon fill="green" stroke="green" points="633.69,-579.08 629.09,-569.53 626.73,-579.86 633.69,-579.08"/>
</g>
<!-- sim/team&#45;validator.ts&#45;&gt;sim/prng.ts -->
<g id="edge56" class="edge">
<title>sim/team&#45;validator.ts&#45;&gt;sim/prng.ts</title>
<path fill="none" stroke="green" d="M616.43,-604.64C606.82,-594.81 595.56,-581.84 588,-568.5 576.99,-549.07 569.52,-524.89 564.92,-506.41"/>
<polygon fill="green" stroke="green" points="568.33,-505.61 562.65,-496.67 561.51,-507.21 568.33,-505.61"/>
</g>
<!-- data/tags.ts -->
<g id="node25" class="node">
<title>data/tags.ts</title>
<polygon fill="none" stroke="black" points="722,-162.5 722,-198.5 776,-198.5 776,-162.5 722,-162.5"/>
<text text-anchor="middle" x="748.75" y="-175.45" font-family="Times,serif" font-size="14.00">tags.ts</text>
</g>
<!-- sim/team&#45;validator.ts&#45;&gt;data/tags.ts -->
<g id="edge54" class="edge">
<title>sim/team&#45;validator.ts&#45;&gt;data/tags.ts</title>
<path fill="none" stroke="green" d="M655.2,-604.7C682.01,-579.7 726,-530.64 726,-478 726,-478 726,-478 726,-330 726,-287.81 735.18,-239.66 741.94,-209.92"/>
<polygon fill="green" stroke="green" points="745.34,-210.75 744.22,-200.21 738.53,-209.15 745.34,-210.75"/>
</g>
<!-- sim/field.ts&#45;&gt;sim/dex.ts -->
<g id="edge36" class="edge">
<title>sim/field.ts&#45;&gt;sim/dex.ts</title>
<path fill="none" stroke="#b4b439" d="M414.07,-458.63C421.19,-434.2 434.26,-389.4 442.78,-360.17"/>
<polygon fill="#b4b439" stroke="#b4b439" points="446.05,-361.46 445.49,-350.88 439.33,-359.5 446.05,-361.46"/>
</g>
<!-- sim/field.ts&#45;&gt;sim/state.ts -->
<g id="edge34" class="edge">
<title>sim/field.ts&#45;&gt;sim/state.ts</title>
<path fill="none" stroke="#b4b439" d="M407.19,-495.03C404.43,-503.03 400.28,-512.77 395.87,-521.75"/>
<polygon fill="#b4b439" stroke="#b4b439" points="392.84,-519.98 391.32,-530.47 399.05,-523.22 392.84,-519.98"/>
</g>
<!-- sim/field.ts&#45;&gt;sim/pokemon.ts -->
<g id="edge35" class="edge">
<title>sim/field.ts&#45;&gt;sim/pokemon.ts</title>
<path fill="none" stroke="#b4b439" d="M433.71,-458.63C446.42,-449.69 462.12,-438.66 475.97,-428.92"/>
<polygon fill="#b4b439" stroke="#b4b439" points="477.79,-431.92 483.96,-423.31 473.77,-426.19 477.79,-431.92"/>
</g>
<!-- sim/dex&#45;formats.ts&#45;&gt;sim/dex&#45;conditions.ts -->
<g id="edge30" class="edge">
<title>sim/dex&#45;formats.ts&#45;&gt;sim/dex&#45;conditions.ts</title>
<path fill="none" stroke="#362c3f" d="M606.03,-239.68C577.62,-228.74 540.71,-214.51 510.48,-202.87"/>
<polygon fill="#362c3f" stroke="#362c3f" points="512.1,-199.74 501.51,-199.42 509.58,-206.28 512.1,-199.74"/>
</g>
<!-- sim/dex&#45;formats.ts&#45;&gt;sim/dex&#45;data.ts -->
<g id="edge29" class="edge">
<title>sim/dex&#45;formats.ts&#45;&gt;sim/dex&#45;data.ts</title>
<path fill="none" stroke="#362c3f" d="M650.7,-239.66C649.21,-206.31 641.35,-132.67 602,-89 580.75,-65.42 547.59,-52.02 519.94,-44.52"/>
<polygon fill="#362c3f" stroke="#362c3f" points="520.89,-41.15 510.34,-42.11 519.19,-47.94 520.89,-41.15"/>
</g>
<!-- sim/dex&#45;formats.ts&#45;&gt;data/tags.ts -->
<g id="edge31" class="edge">
<title>sim/dex&#45;formats.ts&#45;&gt;data/tags.ts</title>
<path fill="none" stroke="#362c3f" d="M697.68,-239.51C702.02,-237.1 706.2,-234.43 710,-231.5 718.48,-224.94 726.15,-216.14 732.4,-207.75"/>
<polygon fill="#362c3f" stroke="#362c3f" points="735.08,-210.03 737.95,-199.83 729.35,-206.01 735.08,-210.03"/>
</g>
<!-- sim/pokemon.ts&#45;&gt;sim/dex.ts -->
<g id="edge44" class="edge">
<title>sim/pokemon.ts&#45;&gt;sim/dex.ts</title>
<path fill="none" stroke="#06dbb7" d="M495.72,-385.81C488.69,-377.35 480.07,-366.98 472.28,-357.61"/>
<polygon fill="#06dbb7" stroke="#06dbb7" points="475.2,-355.65 466.12,-350.19 469.82,-360.12 475.2,-355.65"/>
</g>
<!-- sim/pokemon.ts&#45;&gt;sim/state.ts -->
<g id="edge43" class="edge">
<title>sim/pokemon.ts&#45;&gt;sim/state.ts</title>
<path fill="none" stroke="#06dbb7" d="M507.78,-422.22C499.6,-445.07 479.85,-483.89 469,-495.5 453.93,-511.63 433.03,-525.06 414.83,-534.44"/>
<polygon fill="#06dbb7" stroke="#06dbb7" points="413.3,-531.29 405.85,-538.81 416.37,-537.58 413.3,-531.29"/>
</g>
<!-- sim/dex&#45;conditions.ts&#45;&gt;sim/dex&#45;moves.ts -->
<g id="edge22" class="edge">
<title>sim/dex&#45;conditions.ts&#45;&gt;sim/dex&#45;moves.ts</title>
<path fill="none" stroke="#8a45f8" d="M474.12,-162.31C483.76,-153.66 495.61,-143 506.23,-133.46"/>
<polygon fill="#8a45f8" stroke="#8a45f8" points="508.55,-136.07 513.65,-126.79 503.88,-130.87 508.55,-136.07"/>
</g>
<!-- sim/dex&#45;conditions.ts&#45;&gt;sim/dex&#45;data.ts -->
<g id="edge21" class="edge">
<title>sim/dex&#45;conditions.ts&#45;&gt;sim/dex&#45;data.ts</title>
<path fill="none" stroke="#8a45f8" d="M456.93,-162.13C459.63,-137.8 464.58,-93.3 467.83,-64.06"/>
<polygon fill="#8a45f8" stroke="#8a45f8" points="471.27,-64.76 468.9,-54.44 464.31,-63.99 471.27,-64.76"/>
</g>
<!-- sim/teams.ts&#45;&gt;sim/dex.ts -->
<g id="edge32" class="edge">
<title>sim/teams.ts&#45;&gt;sim/dex.ts</title>
<path fill="none" stroke="#34f17c" d="M624.47,-531.61C618.77,-498.6 601.91,-426.48 559,-385.5 539.1,-366.5 511.16,-352.9 488.68,-344.17"/>
<polygon fill="#34f17c" stroke="#34f17c" points="490.15,-340.98 479.56,-340.8 487.72,-347.55 490.15,-340.98"/>
</g>
<!-- sim/teams.ts&#45;&gt;sim/prng.ts -->
<g id="edge33" class="edge">
<title>sim/teams.ts&#45;&gt;sim/prng.ts</title>
<path fill="none" stroke="#34f17c" d="M610.54,-531.81C602.35,-523.27 592.3,-512.77 583.25,-503.32"/>
<polygon fill="#34f17c" stroke="#34f17c" points="585.8,-500.92 576.36,-496.12 580.75,-505.76 585.8,-500.92"/>
</g>
<!-- server/sockets.ts -->
<g id="node11" class="node">
<title>server/sockets.ts</title>
<polygon fill="none" stroke="black" points="15.75,-682.5 15.75,-718.5 84.25,-718.5 84.25,-682.5 15.75,-682.5"/>
<text text-anchor="middle" x="50" y="-695.45" font-family="Times,serif" font-size="14.00">sockets.ts</text>
</g>
<!-- server/sockets.ts&#45;&gt;sim/battle.ts -->
<g id="edge4" class="edge">
<title>server/sockets.ts&#45;&gt;sim/battle.ts</title>
<path fill="none" stroke="#27f737" d="M84.41,-684.33C87.28,-683.42 90.17,-682.63 93,-682 164.69,-666.16 186.4,-690.24 258,-674 285.36,-667.79 314.41,-655.7 336.96,-644.96"/>
<polygon fill="#27f737" stroke="#27f737" points="338.34,-648.19 345.8,-640.66 335.27,-641.89 338.34,-648.19"/>
</g>
<!-- server/ip&#45;tools.ts -->
<g id="node22" class="node">
<title>server/ip&#45;tools.ts</title>
<polygon fill="none" stroke="black" points="16,-605 16,-641 86,-641 86,-605 16,-605"/>
<text text-anchor="middle" x="51" y="-617.95" font-family="Times,serif" font-size="14.00">ip&#45;tools.ts</text>
</g>
<!-- server/sockets.ts&#45;&gt;server/ip&#45;tools.ts -->
<g id="edge3" class="edge">
<title>server/sockets.ts&#45;&gt;server/ip&#45;tools.ts</title>
<path fill="none" stroke="#27f737" d="M50.23,-682.37C50.34,-673.55 50.49,-662.57 50.62,-652.51"/>
<polygon fill="#27f737" stroke="#27f737" points="54.12,-652.88 50.75,-642.84 47.12,-652.79 54.12,-652.88"/>
</g>
<!-- server/team&#45;validator&#45;async.ts -->
<g id="node12" class="node">
<title>server/team&#45;validator&#45;async.ts</title>
<polygon fill="none" stroke="black" points="102.25,-682.5 102.25,-718.5 245.75,-718.5 245.75,-682.5 102.25,-682.5"/>
<text text-anchor="middle" x="174" y="-695.45" font-family="Times,serif" font-size="14.00">team&#45;validator&#45;async.ts</text>
</g>
<!-- server/team&#45;validator&#45;async.ts&#45;&gt;sim/team&#45;validator.ts -->
<g id="edge51" class="edge">
<title>server/team&#45;validator&#45;async.ts&#45;&gt;sim/team&#45;validator.ts</title>
<path fill="none" stroke="#023889" d="M246.01,-694.12C294.06,-689.98 358.55,-683.37 415,-674 467.61,-665.27 526.48,-651.68 570.08,-640.88"/>
<polygon fill="#023889" stroke="#023889" points="570.78,-644.31 579.64,-638.49 569.09,-637.52 570.78,-644.31"/>
</g>
<!-- lib/process&#45;manager.ts -->
<g id="node15" class="node">
<title>lib/process&#45;manager.ts</title>
<polygon fill="none" stroke="black" points="751.88,-605 751.88,-641 872.12,-641 872.12,-605 751.88,-605"/>
<text text-anchor="middle" x="812" y="-617.95" font-family="Times,serif" font-size="14.00">process&#45;manager.ts</text>
</g>
<!-- server/team&#45;validator&#45;async.ts&#45;&gt;lib/process&#45;manager.ts -->
<g id="edge52" class="edge">
<title>server/team&#45;validator&#45;async.ts&#45;&gt;lib/process&#45;manager.ts</title>
<path fill="none" stroke="#023889" d="M245.91,-699.68C371.22,-699.4 624.4,-696.01 710,-674 732.56,-668.2 756.02,-657.11 774.74,-646.84"/>
<polygon fill="#023889" stroke="#023889" points="776.32,-649.97 783.3,-642 772.88,-643.87 776.32,-649.97"/>
</g>
<!-- sim/dex&#45;items.ts&#45;&gt;sim/dex&#45;conditions.ts -->
<g id="edge24" class="edge">
<title>sim/dex&#45;items.ts&#45;&gt;sim/dex&#45;conditions.ts</title>
<path fill="none" stroke="#1b095e" d="M390.06,-239.87C401.05,-230 415.05,-217.41 427.24,-206.45"/>
<polygon fill="#1b095e" stroke="#1b095e" points="429.5,-209.13 434.6,-199.84 424.82,-203.92 429.5,-209.13"/>
</g>
<!-- sim/dex&#45;items.ts&#45;&gt;sim/dex&#45;data.ts -->
<g id="edge25" class="edge">
<title>sim/dex&#45;items.ts&#45;&gt;sim/dex&#45;data.ts</title>
<path fill="none" stroke="#1b095e" d="M372.48,-239.63C374.73,-218.66 380.07,-182.64 392,-154 406.37,-119.49 431.32,-84.42 449.34,-61.48"/>
<polygon fill="#1b095e" stroke="#1b095e" points="451.88,-63.9 455.4,-53.9 446.42,-59.52 451.88,-63.9"/>
</g>
<!-- sim/dex&#45;abilities.ts&#45;&gt;sim/dex&#45;conditions.ts -->
<g id="edge26" class="edge">
<title>sim/dex&#45;abilities.ts&#45;&gt;sim/dex&#45;conditions.ts</title>
<path fill="none" stroke="#782171" d="M488.24,-239.87C483,-230.67 476.42,-219.11 470.5,-208.71"/>
<polygon fill="#782171" stroke="#782171" points="473.61,-207.1 465.62,-200.14 467.52,-210.56 473.61,-207.1"/>
</g>
<!-- sim/dex&#45;abilities.ts&#45;&gt;sim/dex&#45;data.ts -->
<g id="edge27" class="edge">
<title>sim/dex&#45;abilities.ts&#45;&gt;sim/dex&#45;data.ts</title>
<path fill="none" stroke="#782171" d="M514.83,-239.58C516.53,-237.03 517.99,-234.31 519,-231.5 530.63,-199.08 534.53,-184.74 519,-154 509.54,-135.28 491.48,-144.18 481,-126 470.25,-107.35 468.11,-82.94 468.46,-64.16"/>
<polygon fill="#782171" stroke="#782171" points="471.95,-64.42 468.91,-54.27 464.96,-64.1 471.95,-64.42"/>
</g>
<!-- lib/fs.ts -->
<g id="node20" class="node">
<title>lib/fs.ts</title>
<polygon fill="none" stroke="black" points="801,-532 801,-568 855,-568 855,-532 801,-532"/>
<text text-anchor="middle" x="827.75" y="-544.95" font-family="Times,serif" font-size="14.00">fs.ts</text>
</g>
<!-- lib/process&#45;manager.ts&#45;&gt;lib/fs.ts -->
<g id="edge59" class="edge">
<title>lib/process&#45;manager.ts&#45;&gt;lib/fs.ts</title>
<path fill="none" stroke="#263ecd" d="M815.87,-604.81C817.6,-597.14 819.69,-587.89 821.64,-579.24"/>
<polygon fill="#263ecd" stroke="#263ecd" points="825.05,-580.03 823.83,-569.51 818.22,-578.49 825.05,-580.03"/>
</g>
<!-- lib/streams.ts -->
<g id="node26" class="node">
<title>lib/streams.ts</title>
<polygon fill="none" stroke="black" points="764.62,-459 764.62,-495 835.38,-495 835.38,-459 764.62,-459"/>
<text text-anchor="middle" x="800" y="-471.95" font-family="Times,serif" font-size="14.00">streams.ts</text>
</g>
<!-- lib/process&#45;manager.ts&#45;&gt;lib/streams.ts -->
<g id="edge58" class="edge">
<title>lib/process&#45;manager.ts&#45;&gt;lib/streams.ts</title>
<path fill="none" stroke="#263ecd" d="M803.69,-604.62C799.26,-594.36 794.26,-580.99 792,-568.5 788.29,-547.97 790.55,-524.5 793.6,-506.6"/>
<polygon fill="#263ecd" stroke="#263ecd" points="797,-507.44 795.43,-496.96 790.13,-506.13 797,-507.44"/>
</g>
<!-- sim/dex&#45;moves.ts&#45;&gt;sim/dex&#45;data.ts -->
<g id="edge23" class="edge">
<title>sim/dex&#45;moves.ts&#45;&gt;sim/dex&#45;data.ts</title>
<path fill="none" stroke="#98d0a8" d="M518.75,-89.31C511.24,-80.85 502.04,-70.48 493.73,-61.11"/>
<polygon fill="#98d0a8" stroke="#98d0a8" points="496.37,-58.82 487.11,-53.66 491.13,-63.46 496.37,-58.82"/>
</g>
<!-- sim/battle&#45;queue.ts&#45;&gt;sim/battle.ts -->
<g id="edge49" class="edge">
<title>sim/battle&#45;queue.ts&#45;&gt;sim/battle.ts</title>
<path fill="none" stroke="#fc3145" d="M483.15,-568.49C464.09,-579.25 438.31,-593.02 416.88,-603.9"/>
<polygon fill="#fc3145" stroke="#fc3145" points="415.48,-600.69 408.11,-608.3 418.62,-606.94 415.48,-600.69"/>
</g>
<!-- sim/battle&#45;actions.ts&#45;&gt;sim/dex.ts -->
<g id="edge50" class="edge">
<title>sim/battle&#45;actions.ts&#45;&gt;sim/dex.ts</title>
<path fill="none" stroke="#5e5885" d="M367.91,-385.63C381.89,-376.61 399.19,-365.44 414.37,-355.64"/>
<polygon fill="#5e5885" stroke="#5e5885" points="416.21,-358.62 422.72,-350.26 412.42,-352.74 416.21,-358.62"/>
</g>
<!-- sim/dex&#45;species.ts&#45;&gt;sim/dex&#45;data.ts -->
<g id="edge28" class="edge">
<title>sim/dex&#45;species.ts&#45;&gt;sim/dex&#45;data.ts</title>
<path fill="none" stroke="#e894ce" d="M324.35,-162.06C334.44,-142.42 352.95,-110.44 376,-89 389.77,-76.19 407.17,-65.26 423.3,-56.69"/>
<polygon fill="#e894ce" stroke="#e894ce" points="424.48,-60.02 431.79,-52.35 421.29,-53.79 424.48,-60.02"/>
</g>
<!-- lib/fs.ts&#45;&gt;lib/streams.ts -->
<g id="edge60" class="edge">
<title>lib/fs.ts&#45;&gt;lib/streams.ts</title>
<path fill="none" stroke="#78f436" d="M821.22,-531.81C818.13,-523.96 814.38,-514.47 810.91,-505.66"/>
<polygon fill="#78f436" stroke="#78f436" points="814.2,-504.46 807.27,-496.44 807.68,-507.02 814.2,-504.46"/>
</g>
<!-- server/index.ts -->
<g id="node21" class="node">
<title>server/index.ts</title>
<polygon fill="orange" stroke="black" points="82.62,-755.5 82.62,-791.5 141.38,-791.5 141.38,-755.5 82.62,-755.5"/>
<text text-anchor="middle" x="112" y="-768.45" font-family="Times,serif" font-size="14.00">index.ts</text>
</g>
<!-- server/index.ts&#45;&gt;server/sockets.ts -->
<g id="edge1" class="edge">
<title>server/index.ts&#45;&gt;server/sockets.ts</title>
<path fill="none" stroke="orange" d="M96.99,-755.31C89.6,-746.85 80.55,-736.48 72.37,-727.11"/>
<polygon fill="orange" stroke="orange" points="75.08,-724.9 65.87,-719.67 69.81,-729.5 75.08,-724.9"/>
</g>
<!-- server/index.ts&#45;&gt;server/team&#45;validator&#45;async.ts -->
<g id="edge2" class="edge">
<title>server/index.ts&#45;&gt;server/team&#45;validator&#45;async.ts</title>
<path fill="none" stroke="orange" d="M127.01,-755.31C134.4,-746.85 143.45,-736.48 151.63,-727.11"/>
<polygon fill="orange" stroke="orange" points="154.19,-729.5 158.13,-719.67 148.92,-724.9 154.19,-729.5"/>
</g>
</g>
</svg>
