<?xml version="1.0" encoding="UTF-8" standalone="no"?>
<!DOCTYPE svg PUBLIC "-//W3C//DTD SVG 1.1//EN"
 "http://www.w3.org/Graphics/SVG/1.1/DTD/svg11.dtd">
<!-- Generated by graphviz version 11.0.0 (20240428.1522)
 -->
<!-- Title: dependency&#45;cruiser output Pages: 1 -->
<svg width="263pt" height="91pt"
 viewBox="0.00 0.00 263.00 90.81" xmlns="http://www.w3.org/2000/svg" xmlns:xlink="http://www.w3.org/1999/xlink">
<g id="graph0" class="graph" transform="scale(1 1) rotate(0) translate(4 86.81)">
<title>dependency&#45;cruiser output</title>
<polygon fill="white" stroke="none" points="-4,4 -4,-86.81 259,-86.81 259,4 -4,4"/>
<!-- config/ -->
<g id="node1" class="node">
<title>config/</title>
<g id="a_node1"><a xlink:href="config/" xlink:title="config">
<polygon fill="#ffffcc" stroke="black" points="121,-82.81 68.97,-82.81 67,-80.84 67,-65.06 119.03,-65.06 121,-67.03 121,-82.81"/>
<polyline fill="none" stroke="black" points="119.03,-80.84 67,-80.84"/>
<polyline fill="none" stroke="black" points="119.03,-80.84 119.03,-65.06"/>
<polyline fill="none" stroke="black" points="119.03,-80.84 121,-82.81"/>
<text text-anchor="start" x="81.62" y="-70.26" font-family="Helvetica,sans-Serif" font-size="9.00">config</text>
</a>
</g>
</g>
<!-- data/ -->
<g id="node2" class="node">
<title>data/</title>
<g id="a_node2"><a xlink:href="data/" xlink:title="data">
<polygon fill="#ffffcc" stroke="black" points="121,-52.81 68.97,-52.81 67,-50.84 67,-35.06 119.03,-35.06 121,-37.03 121,-52.81"/>
<polyline fill="none" stroke="black" points="119.03,-50.84 67,-50.84"/>
<polyline fill="none" stroke="black" points="119.03,-50.84 119.03,-35.06"/>
<polyline fill="none" stroke="black" points="119.03,-50.84 121,-52.81"/>
<text text-anchor="start" x="85" y="-40.26" font-family="Helvetica,sans-Serif" font-size="9.00">data</text>
</a>
</g>
</g>
<!-- lib/ -->
<g id="node3" class="node">
<title>lib/</title>
<g id="a_node3"><a xlink:href="lib/" xlink:title="lib">
<polygon fill="#ffffcc" stroke="black" points="255,-26.81 202.97,-26.81 201,-24.84 201,-9.06 253.03,-9.06 255,-11.03 255,-26.81"/>
<polyline fill="none" stroke="black" points="253.03,-24.84 201,-24.84"/>
<polyline fill="none" stroke="black" points="253.03,-24.84 253.03,-9.06"/>
<polyline fill="none" stroke="black" points="253.03,-24.84 255,-26.81"/>
<text text-anchor="start" x="223.12" y="-14.26" font-family="Helvetica,sans-Serif" font-size="9.00">lib</text>
</a>
</g>
</g>
<!-- data/&#45;&gt;lib/ -->
<g id="edge1" class="edge">
<title>data/&#45;&gt;lib/</title>
<path fill="none" stroke="#000000" stroke-width="2" stroke-opacity="0.200000" d="M121.37,-42.57C140.16,-41.18 165.9,-38.4 188,-32.93 191.14,-32.16 194.37,-31.2 197.57,-30.14"/>
<polygon fill="#000000" fill-opacity="0.200000" stroke="#000000" stroke-width="2" stroke-opacity="0.200000" points="198.06,-32.19 203,-28.19 196.65,-28.24 198.06,-32.19"/>
</g>
<!-- sim/ -->
<g id="node4" class="node">
<title>sim/</title>
<g id="a_node4"><a xlink:href="sim/" xlink:title="sim">
<polygon fill="#ffffcc" stroke="black" points="188,-26.81 135.97,-26.81 134,-24.84 134,-9.06 186.03,-9.06 188,-11.03 188,-26.81"/>
<polyline fill="none" stroke="black" points="186.03,-24.84 134,-24.84"/>
<polyline fill="none" stroke="black" points="186.03,-24.84 186.03,-9.06"/>
<polyline fill="none" stroke="black" points="186.03,-24.84 188,-26.81"/>
<text text-anchor="start" x="153.88" y="-14.26" font-family="Helvetica,sans-Serif" font-size="9.00">sim</text>
</a>
</g>
</g>
<!-- data/&#45;&gt;sim/ -->
<g id="edge2" class="edge">
<title>data/&#45;&gt;sim/</title>
<path fill="none" stroke="#000000" stroke-width="2" stroke-opacity="0.200000" d="M108.78,-34.66C113.76,-32.23 119.61,-29.64 125.55,-27.22"/>
<polygon fill="#000000" fill-opacity="0.200000" stroke="#000000" stroke-width="2" stroke-opacity="0.200000" points="126,-29.3 130.82,-25.16 124.47,-25.39 126,-29.3"/>
</g>
<!-- sim/&#45;&gt;data/ -->
<g id="edge8" class="edge">
<title>sim/&#45;&gt;data/</title>
<path fill="none" stroke="#000000" stroke-width="2" stroke-opacity="0.200000" d="M146.06,-27.28C141.23,-29.64 135.58,-32.14 129.84,-34.49"/>
<polygon fill="#000000" fill-opacity="0.200000" stroke="#000000" stroke-width="2" stroke-opacity="0.200000" points="129.07,-32.53 124.26,-36.68 130.61,-36.44 129.07,-32.53"/>
</g>
<!-- sim/&#45;&gt;lib/ -->
<g id="edge7" class="edge">
<title>sim/&#45;&gt;lib/</title>
<path fill="none" stroke="#000000" stroke-width="2" stroke-opacity="0.200000" d="M188.44,-17.93C189.58,-17.93 190.74,-17.93 191.9,-17.93"/>
<polygon fill="#000000" fill-opacity="0.200000" stroke="#000000" stroke-width="2" stroke-opacity="0.200000" points="191.77,-20.03 197.77,-17.93 191.77,-15.83 191.77,-20.03"/>
</g>
<!-- server/ -->
<g id="node5" class="node">
<title>server/</title>
<g id="a_node5"><a xlink:href="server/" xlink:title="no&#45;orphans">
<polygon fill="#ccffcc" stroke="orange" points="54,-38.81 1.97,-38.81 0,-36.84 0,-21.06 52.03,-21.06 54,-23.03 54,-38.81"/>
<polyline fill="none" stroke="orange" points="52.03,-36.84 0,-36.84"/>
<polyline fill="none" stroke="orange" points="52.03,-36.84 52.03,-21.06"/>
<polyline fill="none" stroke="orange" points="52.03,-36.84 54,-38.81"/>
<text text-anchor="start" x="14.25" y="-26.26" font-family="Helvetica,sans-Serif" font-size="9.00" fill="orange">server</text>
</a>
</g>
</g>
<!-- server/&#45;&gt;config/ -->
<g id="edge5" class="edge">
<title>server/&#45;&gt;config/</title>
<path fill="none" stroke="#000000" stroke-width="2" stroke-opacity="0.200000" d="M39.69,-39.19C47.31,-45.07 57.55,-52.73 67,-58.93 67.56,-59.3 68.12,-59.66 68.69,-60.03"/>
<polygon fill="#000000" fill-opacity="0.200000" stroke="#000000" stroke-width="2" stroke-opacity="0.200000" points="67.52,-61.78 73.74,-63.12 69.71,-58.19 67.52,-61.78"/>
</g>
<!-- server/&#45;&gt;data/ -->
<g id="edge6" class="edge">
<title>server/&#45;&gt;data/</title>
<path fill="none" stroke="#000000" stroke-width="2" stroke-opacity="0.200000" d="M54.44,-35.63C55.71,-35.9 57,-36.18 58.29,-36.46"/>
<polygon fill="#000000" fill-opacity="0.200000" stroke="#000000" stroke-width="2" stroke-opacity="0.200000" points="57.53,-38.44 63.84,-37.65 58.41,-34.34 57.53,-38.44"/>
</g>
<!-- server/&#45;&gt;lib/ -->
<g id="edge3" class="edge">
<title>server/&#45;&gt;lib/</title>
<path fill="none" stroke="#000000" stroke-width="2" stroke-opacity="0.200000" d="M51.9,-20.64C83.21,-9.68 139.81,6.01 188,-2.93 191.61,-3.6 195.32,-4.6 198.94,-5.76"/>
<polygon fill="#000000" fill-opacity="0.200000" stroke="#000000" stroke-width="2" stroke-opacity="0.200000" points="197.96,-7.64 204.32,-7.68 199.38,-3.68 197.96,-7.64"/>
</g>
<!-- server/&#45;&gt;sim/ -->
<g id="edge4" class="edge">
<title>server/&#45;&gt;sim/</title>
<path fill="none" stroke="#000000" stroke-width="2" stroke-opacity="0.200000" d="M54.39,-27.53C74.63,-25.7 102.75,-23.14 124.88,-21.13"/>
<polygon fill="#000000" fill-opacity="0.200000" stroke="#000000" stroke-width="2" stroke-opacity="0.200000" points="124.85,-23.24 130.64,-20.6 124.47,-19.06 124.85,-23.24"/>
</g>
</g>
</svg>
