<?xml version="1.0" encoding="UTF-8" standalone="no"?>
<!DOCTYPE svg PUBLIC "-//W3C//DTD SVG 1.1//EN"
 "http://www.w3.org/Graphics/SVG/1.1/DTD/svg11.dtd">
<!-- Generated by graphviz version 11.0.0 (20240428.1522)
 -->
<!-- Title: G Pages: 1 -->
<svg width="2617pt" height="791pt"
 viewBox="0.00 0.00 2616.95 791.20" xmlns="http://www.w3.org/2000/svg" xmlns:xlink="http://www.w3.org/1999/xlink">
<g id="graph0" class="graph" transform="scale(1 1) rotate(0) translate(21.6 769.6)">
<title>G</title>
<polygon fill="#111111" stroke="none" points="-21.6,21.6 -21.6,-769.6 2595.35,-769.6 2595.35,21.6 -21.6,21.6"/>
<!-- ../data/tags.ts -->
<g id="node1" class="node">
<title>../data/tags.ts</title>
<path fill="none" stroke="#cfffac" d="M1468.33,-563.88C1468.33,-563.88 1387.17,-563.88 1387.17,-563.88 1383.21,-563.88 1379.25,-559.92 1379.25,-555.96 1379.25,-555.96 1379.25,-548.04 1379.25,-548.04 1379.25,-544.08 1383.21,-540.12 1387.17,-540.12 1387.17,-540.12 1468.33,-540.12 1468.33,-540.12 1472.29,-540.12 1476.25,-544.08 1476.25,-548.04 1476.25,-548.04 1476.25,-555.96 1476.25,-555.96 1476.25,-559.92 1472.29,-563.88 1468.33,-563.88"/>
<text text-anchor="middle" x="1427.75" y="-546.58" font-family="Arial" font-size="14.00" fill="#cfffac">../data/tags.ts</text>
</g>
<!-- ../lib/crashlogger.ts -->
<g id="node2" class="node">
<title>../lib/crashlogger.ts</title>
<path fill="none" stroke="#cfffac" d="M2291.21,-584.88C2291.21,-584.88 2178.54,-584.88 2178.54,-584.88 2174.58,-584.88 2170.62,-580.92 2170.62,-576.96 2170.62,-576.96 2170.62,-569.04 2170.62,-569.04 2170.62,-565.08 2174.58,-561.12 2178.54,-561.12 2178.54,-561.12 2291.21,-561.12 2291.21,-561.12 2295.17,-561.12 2299.12,-565.08 2299.12,-569.04 2299.12,-569.04 2299.12,-576.96 2299.12,-576.96 2299.12,-580.92 2295.17,-584.88 2291.21,-584.88"/>
<text text-anchor="middle" x="2234.88" y="-567.58" font-family="Arial" font-size="14.00" fill="#cfffac">../lib/crashlogger.ts</text>
</g>
<!-- ../lib/dashycode.ts -->
<g id="node3" class="node">
<title>../lib/dashycode.ts</title>
<path fill="none" stroke="#cfffac" d="M2109.08,-423.88C2109.08,-423.88 2000.92,-423.88 2000.92,-423.88 1996.96,-423.88 1993,-419.92 1993,-415.96 1993,-415.96 1993,-408.04 1993,-408.04 1993,-404.08 1996.96,-400.12 2000.92,-400.12 2000.92,-400.12 2109.08,-400.12 2109.08,-400.12 2113.04,-400.12 2117,-404.08 2117,-408.04 2117,-408.04 2117,-415.96 2117,-415.96 2117,-419.92 2113.04,-423.88 2109.08,-423.88"/>
<text text-anchor="middle" x="2055" y="-406.57" font-family="Arial" font-size="14.00" fill="#cfffac">../lib/dashycode.ts</text>
</g>
<!-- ../lib/fs.ts -->
<g id="node4" class="node">
<title>../lib/fs.ts</title>
<path fill="none" stroke="#c6c5fe" d="M2418.21,-544.88C2418.21,-544.88 2364.79,-544.88 2364.79,-544.88 2360.83,-544.88 2356.88,-540.92 2356.88,-536.96 2356.88,-536.96 2356.88,-529.04 2356.88,-529.04 2356.88,-525.08 2360.83,-521.12 2364.79,-521.12 2364.79,-521.12 2418.21,-521.12 2418.21,-521.12 2422.17,-521.12 2426.12,-525.08 2426.12,-529.04 2426.12,-529.04 2426.12,-536.96 2426.12,-536.96 2426.12,-540.92 2422.17,-544.88 2418.21,-544.88"/>
<text text-anchor="middle" x="2391.5" y="-527.58" font-family="Arial" font-size="14.00" fill="#c6c5fe">../lib/fs.ts</text>
</g>
<!-- ../lib/streams.ts -->
<g id="node5" class="node">
<title>../lib/streams.ts</title>
<path fill="none" stroke="#cfffac" d="M2565.83,-544.88C2565.83,-544.88 2474.17,-544.88 2474.17,-544.88 2470.21,-544.88 2466.25,-540.92 2466.25,-536.96 2466.25,-536.96 2466.25,-529.04 2466.25,-529.04 2466.25,-525.08 2470.21,-521.12 2474.17,-521.12 2474.17,-521.12 2565.83,-521.12 2565.83,-521.12 2569.79,-521.12 2573.75,-525.08 2573.75,-529.04 2573.75,-529.04 2573.75,-536.96 2573.75,-536.96 2573.75,-540.92 2569.79,-544.88 2565.83,-544.88"/>
<text text-anchor="middle" x="2520" y="-527.58" font-family="Arial" font-size="14.00" fill="#cfffac">../lib/streams.ts</text>
</g>
<!-- ../lib/fs.ts&#45;&gt;../lib/streams.ts -->
<g id="edge1" class="edge">
<title>../lib/fs.ts&#45;&gt;../lib/streams.ts</title>
<path fill="none" stroke="#757575" d="M2426.4,-533C2435.13,-533 2444.82,-533 2454.55,-533"/>
<polygon fill="#757575" stroke="#757575" points="2454.42,-536.5 2464.42,-533 2454.42,-529.5 2454.42,-536.5"/>
</g>
<!-- ../lib/index.ts -->
<g id="node6" class="node">
<title>../lib/index.ts</title>
<path fill="none" stroke="#c6c5fe" d="M1949.08,-514.88C1949.08,-514.88 1873.92,-514.88 1873.92,-514.88 1869.96,-514.88 1866,-510.92 1866,-506.96 1866,-506.96 1866,-499.04 1866,-499.04 1866,-495.08 1869.96,-491.12 1873.92,-491.12 1873.92,-491.12 1949.08,-491.12 1949.08,-491.12 1953.04,-491.12 1957,-495.08 1957,-499.04 1957,-499.04 1957,-506.96 1957,-506.96 1957,-510.92 1953.04,-514.88 1949.08,-514.88"/>
<text text-anchor="middle" x="1911.5" y="-497.57" font-family="Arial" font-size="14.00" fill="#c6c5fe">../lib/index.ts</text>
</g>
<!-- ../lib/index.ts&#45;&gt;../lib/crashlogger.ts -->
<g id="edge2" class="edge">
<title>../lib/index.ts&#45;&gt;../lib/crashlogger.ts</title>
<path fill="none" stroke="#757575" d="M1926.47,-515.18C1941.69,-527.64 1967.29,-546.36 1993,-555 2046.55,-572.99 2110.43,-577.03 2158.95,-576.82"/>
<polygon fill="#757575" stroke="#757575" points="2158.84,-580.32 2168.8,-576.71 2158.76,-573.32 2158.84,-580.32"/>
</g>
<!-- ../lib/index.ts&#45;&gt;../lib/dashycode.ts -->
<g id="edge3" class="edge">
<title>../lib/index.ts&#45;&gt;../lib/dashycode.ts</title>
<path fill="none" stroke="#757575" d="M1923.65,-490.75C1938.24,-475.36 1965.25,-449.02 1993,-433 1995.59,-431.5 1998.31,-430.09 2001.1,-428.76"/>
<polygon fill="#757575" stroke="#757575" points="2002.22,-432.09 2010,-424.9 1999.44,-425.66 2002.22,-432.09"/>
</g>
<!-- ../lib/index.ts&#45;&gt;../lib/fs.ts -->
<g id="edge4" class="edge">
<title>../lib/index.ts&#45;&gt;../lib/fs.ts</title>
<path fill="none" stroke="#757575" d="M1957.2,-504.87C1998.64,-506.69 2062.01,-509.65 2117,-513 2197.35,-517.9 2290.88,-525.05 2345.12,-529.34"/>
<polygon fill="#757575" stroke="#757575" points="2344.65,-532.82 2354.9,-530.12 2345.21,-525.84 2344.65,-532.82"/>
</g>
<!-- ../lib/index.ts&#45;&gt;../lib/streams.ts -->
<g id="edge10" class="edge">
<title>../lib/index.ts&#45;&gt;../lib/streams.ts</title>
<path fill="none" stroke="#757575" d="M1915.02,-490.9C1921.77,-461.99 1943.22,-389.04 1993,-359 2116.2,-284.64 2181.75,-305.17 2316.75,-355 2401.3,-386.21 2473.14,-471.27 2503.51,-511.44"/>
<polygon fill="#757575" stroke="#757575" points="2500.66,-513.46 2509.42,-519.41 2506.28,-509.29 2500.66,-513.46"/>
</g>
<!-- ../lib/net.ts -->
<g id="node7" class="node">
<title>../lib/net.ts</title>
<path fill="none" stroke="#c6c5fe" d="M2422.33,-693.88C2422.33,-693.88 2360.67,-693.88 2360.67,-693.88 2356.71,-693.88 2352.75,-689.92 2352.75,-685.96 2352.75,-685.96 2352.75,-678.04 2352.75,-678.04 2352.75,-674.08 2356.71,-670.12 2360.67,-670.12 2360.67,-670.12 2422.33,-670.12 2422.33,-670.12 2426.29,-670.12 2430.25,-674.08 2430.25,-678.04 2430.25,-678.04 2430.25,-685.96 2430.25,-685.96 2430.25,-689.92 2426.29,-693.88 2422.33,-693.88"/>
<text text-anchor="middle" x="2391.5" y="-676.58" font-family="Arial" font-size="14.00" fill="#c6c5fe">../lib/net.ts</text>
</g>
<!-- ../lib/index.ts&#45;&gt;../lib/net.ts -->
<g id="edge5" class="edge">
<title>../lib/index.ts&#45;&gt;../lib/net.ts</title>
<path fill="none" stroke="#757575" d="M1913.74,-515.24C1917.86,-548.57 1934.34,-641.01 1993,-679 2100.74,-748.77 2261.76,-718.74 2341.76,-697.1"/>
<polygon fill="#757575" stroke="#757575" points="2342.34,-700.57 2351.04,-694.52 2340.47,-693.83 2342.34,-700.57"/>
</g>
<!-- ../lib/postgres.ts -->
<g id="node8" class="node">
<title>../lib/postgres.ts</title>
<path fill="none" stroke="#c6c5fe" d="M2102.33,-465.88C2102.33,-465.88 2007.67,-465.88 2007.67,-465.88 2003.71,-465.88 1999.75,-461.92 1999.75,-457.96 1999.75,-457.96 1999.75,-450.04 1999.75,-450.04 1999.75,-446.08 2003.71,-442.12 2007.67,-442.12 2007.67,-442.12 2102.33,-442.12 2102.33,-442.12 2106.29,-442.12 2110.25,-446.08 2110.25,-450.04 2110.25,-450.04 2110.25,-457.96 2110.25,-457.96 2110.25,-461.92 2106.29,-465.88 2102.33,-465.88"/>
<text text-anchor="middle" x="2055" y="-448.57" font-family="Arial" font-size="14.00" fill="#c6c5fe">../lib/postgres.ts</text>
</g>
<!-- ../lib/index.ts&#45;&gt;../lib/postgres.ts -->
<g id="edge6" class="edge">
<title>../lib/index.ts&#45;&gt;../lib/postgres.ts</title>
<path fill="none" stroke="#757575" d="M1948.21,-490.64C1966.22,-484.4 1988.29,-476.75 2007.6,-470.07"/>
<polygon fill="#757575" stroke="#757575" points="2008.57,-473.44 2016.87,-466.86 2006.28,-466.82 2008.57,-473.44"/>
</g>
<!-- ../lib/process&#45;manager.ts -->
<g id="node9" class="node">
<title>../lib/process&#45;manager.ts</title>
<path fill="none" stroke="#c6c5fe" d="M2308.83,-664.88C2308.83,-664.88 2160.92,-664.88 2160.92,-664.88 2156.96,-664.88 2153,-660.92 2153,-656.96 2153,-656.96 2153,-649.04 2153,-649.04 2153,-645.08 2156.96,-641.12 2160.92,-641.12 2160.92,-641.12 2308.83,-641.12 2308.83,-641.12 2312.79,-641.12 2316.75,-645.08 2316.75,-649.04 2316.75,-649.04 2316.75,-656.96 2316.75,-656.96 2316.75,-660.92 2312.79,-664.88 2308.83,-664.88"/>
<text text-anchor="middle" x="2234.88" y="-647.58" font-family="Arial" font-size="14.00" fill="#c6c5fe">../lib/process&#45;manager.ts</text>
</g>
<!-- ../lib/index.ts&#45;&gt;../lib/process&#45;manager.ts -->
<g id="edge7" class="edge">
<title>../lib/index.ts&#45;&gt;../lib/process&#45;manager.ts</title>
<path fill="none" stroke="#757575" d="M1914.71,-515.22C1920.86,-545.17 1941.26,-622.05 1993,-653 2049.84,-687 2128.54,-678.93 2180.3,-667.83"/>
<polygon fill="#757575" stroke="#757575" points="2180.79,-671.31 2189.77,-665.69 2179.24,-664.49 2180.79,-671.31"/>
</g>
<!-- ../lib/repl.ts -->
<g id="node10" class="node">
<title>../lib/repl.ts</title>
<path fill="none" stroke="#c6c5fe" d="M2087.71,-545.88C2087.71,-545.88 2022.29,-545.88 2022.29,-545.88 2018.33,-545.88 2014.38,-541.92 2014.38,-537.96 2014.38,-537.96 2014.38,-530.04 2014.38,-530.04 2014.38,-526.08 2018.33,-522.12 2022.29,-522.12 2022.29,-522.12 2087.71,-522.12 2087.71,-522.12 2091.67,-522.12 2095.62,-526.08 2095.62,-530.04 2095.62,-530.04 2095.62,-537.96 2095.62,-537.96 2095.62,-541.92 2091.67,-545.88 2087.71,-545.88"/>
<text text-anchor="middle" x="2055" y="-528.58" font-family="Arial" font-size="14.00" fill="#c6c5fe">../lib/repl.ts</text>
</g>
<!-- ../lib/index.ts&#45;&gt;../lib/repl.ts -->
<g id="edge8" class="edge">
<title>../lib/index.ts&#45;&gt;../lib/repl.ts</title>
<path fill="none" stroke="#757575" d="M1957.27,-512.81C1971.85,-516 1988.14,-519.57 2003.14,-522.86"/>
<polygon fill="#757575" stroke="#757575" points="2002.31,-526.26 2012.82,-524.98 2003.8,-519.42 2002.31,-526.26"/>
</g>
<!-- ../lib/sql.ts -->
<g id="node11" class="node">
<title>../lib/sql.ts</title>
<path fill="none" stroke="#ff6c60" d="M2085.08,-625.88C2085.08,-625.88 2024.92,-625.88 2024.92,-625.88 2020.96,-625.88 2017,-621.92 2017,-617.96 2017,-617.96 2017,-610.04 2017,-610.04 2017,-606.08 2020.96,-602.12 2024.92,-602.12 2024.92,-602.12 2085.08,-602.12 2085.08,-602.12 2089.04,-602.12 2093,-606.08 2093,-610.04 2093,-610.04 2093,-617.96 2093,-617.96 2093,-621.92 2089.04,-625.88 2085.08,-625.88"/>
<text text-anchor="middle" x="2055" y="-608.58" font-family="Arial" font-size="14.00" fill="#ff6c60">../lib/sql.ts</text>
</g>
<!-- ../lib/index.ts&#45;&gt;../lib/sql.ts -->
<g id="edge9" class="edge">
<title>../lib/index.ts&#45;&gt;../lib/sql.ts</title>
<path fill="none" stroke="#757575" d="M1921.4,-515.2C1935.06,-533.2 1962.8,-566.99 1993,-588 1997.66,-591.24 2002.8,-594.2 2008.05,-596.87"/>
<polygon fill="#757575" stroke="#757575" points="2006.28,-599.91 2016.82,-600.98 2009.25,-593.57 2006.28,-599.91"/>
</g>
<!-- ../lib/utils.ts -->
<g id="node12" class="node">
<title>../lib/utils.ts</title>
<path fill="none" stroke="#cfffac" d="M2268.33,-387.88C2268.33,-387.88 2201.42,-387.88 2201.42,-387.88 2197.46,-387.88 2193.5,-383.92 2193.5,-379.96 2193.5,-379.96 2193.5,-372.04 2193.5,-372.04 2193.5,-368.08 2197.46,-364.12 2201.42,-364.12 2201.42,-364.12 2268.33,-364.12 2268.33,-364.12 2272.29,-364.12 2276.25,-368.08 2276.25,-372.04 2276.25,-372.04 2276.25,-379.96 2276.25,-379.96 2276.25,-383.92 2272.29,-387.88 2268.33,-387.88"/>
<text text-anchor="middle" x="2234.88" y="-370.57" font-family="Arial" font-size="14.00" fill="#cfffac">../lib/utils.ts</text>
</g>
<!-- ../lib/index.ts&#45;&gt;../lib/utils.ts -->
<g id="edge11" class="edge">
<title>../lib/index.ts&#45;&gt;../lib/utils.ts</title>
<path fill="none" stroke="#757575" d="M1917.07,-490.8C1926.82,-466.75 1952.13,-413.59 1993,-391 2051.47,-358.69 2130.54,-360.8 2181.88,-367"/>
<polygon fill="#757575" stroke="#757575" points="2181.15,-370.44 2191.52,-368.27 2182.06,-363.5 2181.15,-370.44"/>
</g>
<!-- ../lib/net.ts&#45;&gt;../lib/streams.ts -->
<g id="edge12" class="edge">
<title>../lib/net.ts&#45;&gt;../lib/streams.ts</title>
<path fill="none" stroke="#757575" d="M2402.85,-669.81C2424.44,-644.38 2474.49,-585.43 2501.3,-553.85"/>
<polygon fill="#757575" stroke="#757575" points="2503.72,-556.4 2507.53,-546.52 2498.39,-551.87 2503.72,-556.4"/>
</g>
<!-- ../lib/postgres.ts&#45;&gt;../lib/fs.ts -->
<g id="edge13" class="edge">
<title>../lib/postgres.ts&#45;&gt;../lib/fs.ts</title>
<path fill="none" stroke="#757575" d="M2110.54,-451.36C2164.62,-450.58 2248.98,-454.39 2316.75,-480 2336.47,-487.45 2355.71,-501.58 2369.59,-513.37"/>
<polygon fill="#757575" stroke="#757575" points="2366.94,-515.7 2376.76,-519.69 2371.57,-510.45 2366.94,-515.7"/>
</g>
<!-- ../lib/postgres.ts&#45;&gt;../lib/streams.ts -->
<g id="edge14" class="edge">
<title>../lib/postgres.ts&#45;&gt;../lib/streams.ts</title>
<path fill="none" stroke="#757575" d="M2110.56,-445.43C2163.75,-438.73 2246.64,-432.71 2316.75,-447 2380.93,-460.08 2449.98,-494.29 2488.51,-515.41"/>
<polygon fill="#757575" stroke="#757575" points="2486.32,-518.19 2496.76,-519.99 2489.72,-512.08 2486.32,-518.19"/>
</g>
<!-- ../lib/postgres.ts&#45;&gt;../lib/utils.ts -->
<g id="edge15" class="edge">
<title>../lib/postgres.ts&#45;&gt;../lib/utils.ts</title>
<path fill="none" stroke="#757575" d="M2098.17,-441.64C2104.64,-439.13 2111.12,-436.25 2117,-433 2134.98,-423.06 2135.03,-413.95 2153,-404 2162.16,-398.93 2172.41,-394.52 2182.46,-390.81"/>
<polygon fill="#757575" stroke="#757575" points="2183.5,-394.15 2191.78,-387.54 2181.19,-387.54 2183.5,-394.15"/>
</g>
<!-- ../lib/process&#45;manager.ts&#45;&gt;../lib/fs.ts -->
<g id="edge16" class="edge">
<title>../lib/process&#45;manager.ts&#45;&gt;../lib/fs.ts</title>
<path fill="none" stroke="#757575" d="M2289.77,-640.64C2299.24,-637.12 2308.64,-632.65 2316.75,-627 2343.84,-608.14 2365.74,-576.41 2378.44,-555.09"/>
<polygon fill="#757575" stroke="#757575" points="2381.37,-557.02 2383.32,-546.61 2375.3,-553.53 2381.37,-557.02"/>
</g>
<!-- ../lib/process&#45;manager.ts&#45;&gt;../lib/streams.ts -->
<g id="edge17" class="edge">
<title>../lib/process&#45;manager.ts&#45;&gt;../lib/streams.ts</title>
<path fill="none" stroke="#757575" d="M2267.86,-640.63C2282.76,-634.79 2300.71,-627.66 2316.75,-621 2374.41,-597.06 2440.67,-567.91 2481.18,-549.91"/>
<polygon fill="#757575" stroke="#757575" points="2482.55,-553.13 2490.26,-545.87 2479.7,-546.73 2482.55,-553.13"/>
</g>
<!-- ../lib/repl.ts&#45;&gt;../lib/crashlogger.ts -->
<g id="edge18" class="edge">
<title>../lib/repl.ts&#45;&gt;../lib/crashlogger.ts</title>
<path fill="none" stroke="#757575" d="M2095.92,-542.75C2116.7,-547.31 2142.67,-553 2166.46,-558.22"/>
<polygon fill="#757575" stroke="#757575" points="2165.57,-561.61 2176.09,-560.33 2167.07,-554.77 2165.57,-561.61"/>
</g>
<!-- ../lib/repl.ts&#45;&gt;../lib/fs.ts -->
<g id="edge19" class="edge">
<title>../lib/repl.ts&#45;&gt;../lib/fs.ts</title>
<path fill="none" stroke="#757575" d="M2096.02,-533.88C2158.67,-533.69 2279.54,-533.33 2345.27,-533.14"/>
<polygon fill="#757575" stroke="#757575" points="2344.98,-536.64 2354.97,-533.11 2344.96,-529.64 2344.98,-536.64"/>
</g>
<!-- ../lib/sql.ts&#45;&gt;../lib/fs.ts -->
<g id="edge20" class="edge">
<title>../lib/sql.ts&#45;&gt;../lib/fs.ts</title>
<path fill="none" stroke="#757575" d="M2093.44,-618.02C2145.57,-622.12 2242.02,-624.18 2316.75,-594 2338.57,-585.19 2358.81,-567.46 2372.55,-553.38"/>
<polygon fill="#757575" stroke="#757575" points="2374.9,-555.99 2379.19,-546.29 2369.8,-551.2 2374.9,-555.99"/>
</g>
<!-- ../lib/sql.ts&#45;&gt;../lib/process&#45;manager.ts -->
<g id="edge21" class="edge">
<title>../lib/sql.ts&#45;&gt;../lib/process&#45;manager.ts</title>
<path fill="none" stroke="#757575" d="M2093.29,-622.18C2114.49,-626.82 2141.69,-632.79 2166.5,-638.23"/>
<polygon fill="#757575" stroke="#757575" points="2165.71,-641.64 2176.22,-640.36 2167.2,-634.8 2165.71,-641.64"/>
</g>
<!-- ../lib/sql.ts&#45;&gt;../lib/sql.ts -->
<g id="edge22" class="edge">
<title>../lib/sql.ts&#45;&gt;../lib/sql.ts</title>
<path fill="none" stroke="#757575" d="M2030.99,-626.28C2023.17,-635.09 2031.18,-643.88 2055,-643.88 2067.66,-643.88 2075.85,-641.4 2079.57,-637.75"/>
<polygon fill="#757575" stroke="#757575" points="2083.07,-637.6 2079.08,-627.79 2076.08,-637.95 2083.07,-637.6"/>
</g>
<!-- ../sim/battle&#45;actions.ts -->
<g id="node13" class="node">
<title>../sim/battle&#45;actions.ts</title>
<path fill="none" stroke="#c6c5fe" d="M668.33,-89.88C668.33,-89.88 536.92,-89.88 536.92,-89.88 532.96,-89.88 529,-85.92 529,-81.96 529,-81.96 529,-74.04 529,-74.04 529,-70.08 532.96,-66.12 536.92,-66.12 536.92,-66.12 668.33,-66.12 668.33,-66.12 672.29,-66.12 676.25,-70.08 676.25,-74.04 676.25,-74.04 676.25,-81.96 676.25,-81.96 676.25,-85.92 672.29,-89.88 668.33,-89.88"/>
<text text-anchor="middle" x="602.62" y="-72.58" font-family="Arial" font-size="14.00" fill="#c6c5fe">../sim/battle&#45;actions.ts</text>
</g>
<!-- ../sim/dex.ts -->
<g id="node14" class="node">
<title>../sim/dex.ts</title>
<path fill="none" stroke="#c6c5fe" d="M1129.21,-292.88C1129.21,-292.88 1056.29,-292.88 1056.29,-292.88 1052.33,-292.88 1048.38,-288.92 1048.38,-284.96 1048.38,-284.96 1048.38,-277.04 1048.38,-277.04 1048.38,-273.08 1052.33,-269.12 1056.29,-269.12 1056.29,-269.12 1129.21,-269.12 1129.21,-269.12 1133.17,-269.12 1137.12,-273.08 1137.12,-277.04 1137.12,-277.04 1137.12,-284.96 1137.12,-284.96 1137.12,-288.92 1133.17,-292.88 1129.21,-292.88"/>
<text text-anchor="middle" x="1092.75" y="-275.57" font-family="Arial" font-size="14.00" fill="#c6c5fe">../sim/dex.ts</text>
</g>
<!-- ../sim/battle&#45;actions.ts&#45;&gt;../sim/dex.ts -->
<g id="edge23" class="edge">
<title>../sim/battle&#45;actions.ts&#45;&gt;../sim/dex.ts</title>
<path fill="none" stroke="#757575" d="M676.56,-70.58C765,-65.64 914.06,-70.84 1009.75,-147 1047.05,-176.69 1071.64,-228.31 1083.49,-258.07"/>
<polygon fill="#757575" stroke="#757575" points="1080.16,-259.15 1087,-267.25 1086.7,-256.66 1080.16,-259.15"/>
</g>
<!-- ../sim/dex.ts&#45;&gt;../lib/index.ts -->
<g id="edge49" class="edge">
<title>../sim/dex.ts&#45;&gt;../lib/index.ts</title>
<path fill="none" stroke="#757575" d="M1098.29,-293.18C1108.17,-317.81 1134.12,-373.36 1175.75,-399 1233.46,-434.55 1692.83,-481.93 1854.47,-497.67"/>
<polygon fill="#757575" stroke="#757575" points="1853.79,-501.12 1864.08,-498.6 1854.47,-494.15 1853.79,-501.12"/>
</g>
<!-- ../sim/dex&#45;abilities.ts -->
<g id="node23" class="node">
<title>../sim/dex&#45;abilities.ts</title>
<path fill="none" stroke="#c6c5fe" d="M1306.46,-289.88C1306.46,-289.88 1184.04,-289.88 1184.04,-289.88 1180.08,-289.88 1176.12,-285.92 1176.12,-281.96 1176.12,-281.96 1176.12,-274.04 1176.12,-274.04 1176.12,-270.08 1180.08,-266.12 1184.04,-266.12 1184.04,-266.12 1306.46,-266.12 1306.46,-266.12 1310.42,-266.12 1314.38,-270.08 1314.38,-274.04 1314.38,-274.04 1314.38,-281.96 1314.38,-281.96 1314.38,-285.92 1310.42,-289.88 1306.46,-289.88"/>
<text text-anchor="middle" x="1245.25" y="-272.57" font-family="Arial" font-size="14.00" fill="#c6c5fe">../sim/dex&#45;abilities.ts</text>
</g>
<!-- ../sim/dex.ts&#45;&gt;../sim/dex&#45;abilities.ts -->
<g id="edge50" class="edge">
<title>../sim/dex.ts&#45;&gt;../sim/dex&#45;abilities.ts</title>
<path fill="none" stroke="#757575" d="M1137.28,-280.13C1145.86,-279.96 1155.11,-279.78 1164.46,-279.59"/>
<polygon fill="#757575" stroke="#757575" points="1164.42,-283.09 1174.35,-279.39 1164.28,-276.09 1164.42,-283.09"/>
</g>
<!-- ../sim/dex&#45;conditions.ts -->
<g id="node24" class="node">
<title>../sim/dex&#45;conditions.ts</title>
<path fill="none" stroke="#c6c5fe" d="M1496.83,-369.88C1496.83,-369.88 1358.67,-369.88 1358.67,-369.88 1354.71,-369.88 1350.75,-365.92 1350.75,-361.96 1350.75,-361.96 1350.75,-354.04 1350.75,-354.04 1350.75,-350.08 1354.71,-346.12 1358.67,-346.12 1358.67,-346.12 1496.83,-346.12 1496.83,-346.12 1500.79,-346.12 1504.75,-350.08 1504.75,-354.04 1504.75,-354.04 1504.75,-361.96 1504.75,-361.96 1504.75,-365.92 1500.79,-369.88 1496.83,-369.88"/>
<text text-anchor="middle" x="1427.75" y="-352.57" font-family="Arial" font-size="14.00" fill="#c6c5fe">../sim/dex&#45;conditions.ts</text>
</g>
<!-- ../sim/dex.ts&#45;&gt;../sim/dex&#45;conditions.ts -->
<g id="edge51" class="edge">
<title>../sim/dex.ts&#45;&gt;../sim/dex&#45;conditions.ts</title>
<path fill="none" stroke="#757575" d="M1105.76,-293.29C1120.66,-307.64 1147.58,-330.73 1175.75,-341 1227.71,-359.95 1289.69,-364.31 1339.05,-363.88"/>
<polygon fill="#757575" stroke="#757575" points="1338.89,-367.38 1348.83,-363.72 1338.78,-360.38 1338.89,-367.38"/>
</g>
<!-- ../sim/dex&#45;data.ts -->
<g id="node25" class="node">
<title>../sim/dex&#45;data.ts</title>
<path fill="none" stroke="#c6c5fe" d="M1822.08,-348.88C1822.08,-348.88 1718.42,-348.88 1718.42,-348.88 1714.46,-348.88 1710.5,-344.92 1710.5,-340.96 1710.5,-340.96 1710.5,-333.04 1710.5,-333.04 1710.5,-329.08 1714.46,-325.12 1718.42,-325.12 1718.42,-325.12 1822.08,-325.12 1822.08,-325.12 1826.04,-325.12 1830,-329.08 1830,-333.04 1830,-333.04 1830,-340.96 1830,-340.96 1830,-344.92 1826.04,-348.88 1822.08,-348.88"/>
<text text-anchor="middle" x="1770.25" y="-331.57" font-family="Arial" font-size="14.00" fill="#c6c5fe">../sim/dex&#45;data.ts</text>
</g>
<!-- ../sim/dex.ts&#45;&gt;../sim/dex&#45;data.ts -->
<g id="edge52" class="edge">
<title>../sim/dex.ts&#45;&gt;../sim/dex&#45;data.ts</title>
<path fill="none" stroke="#757575" d="M1127.58,-268.74C1142.19,-264.07 1159.6,-259.32 1175.75,-257 1236.9,-248.23 1253.13,-252.65 1314.75,-257 1475.84,-268.36 1516.87,-272.93 1674.5,-308 1690.44,-311.55 1707.6,-316.45 1722.87,-321.22"/>
<polygon fill="#757575" stroke="#757575" points="1721.58,-324.48 1732.17,-324.19 1723.7,-317.81 1721.58,-324.48"/>
</g>
<!-- ../sim/dex&#45;moves.ts -->
<g id="node26" class="node">
<title>../sim/dex&#45;moves.ts</title>
<path fill="none" stroke="#c6c5fe" d="M1666.58,-407.88C1666.58,-407.88 1548.67,-407.88 1548.67,-407.88 1544.71,-407.88 1540.75,-403.92 1540.75,-399.96 1540.75,-399.96 1540.75,-392.04 1540.75,-392.04 1540.75,-388.08 1544.71,-384.12 1548.67,-384.12 1548.67,-384.12 1666.58,-384.12 1666.58,-384.12 1670.54,-384.12 1674.5,-388.08 1674.5,-392.04 1674.5,-392.04 1674.5,-399.96 1674.5,-399.96 1674.5,-403.92 1670.54,-407.88 1666.58,-407.88"/>
<text text-anchor="middle" x="1607.62" y="-390.57" font-family="Arial" font-size="14.00" fill="#c6c5fe">../sim/dex&#45;moves.ts</text>
</g>
<!-- ../sim/dex.ts&#45;&gt;../sim/dex&#45;moves.ts -->
<g id="edge55" class="edge">
<title>../sim/dex.ts&#45;&gt;../sim/dex&#45;moves.ts</title>
<path fill="none" stroke="#757575" d="M1101.25,-293.27C1113.88,-312.67 1141.41,-349.89 1175.75,-366 1289.72,-419.48 1439.52,-415.72 1529.14,-406.79"/>
<polygon fill="#757575" stroke="#757575" points="1529.48,-410.27 1539.06,-405.75 1528.75,-403.31 1529.48,-410.27"/>
</g>
<!-- ../sim/dex&#45;formats.ts -->
<g id="node27" class="node">
<title>../sim/dex&#45;formats.ts</title>
<path fill="none" stroke="#c6c5fe" d="M1306.83,-505.88C1306.83,-505.88 1183.67,-505.88 1183.67,-505.88 1179.71,-505.88 1175.75,-501.92 1175.75,-497.96 1175.75,-497.96 1175.75,-490.04 1175.75,-490.04 1175.75,-486.08 1179.71,-482.12 1183.67,-482.12 1183.67,-482.12 1306.83,-482.12 1306.83,-482.12 1310.79,-482.12 1314.75,-486.08 1314.75,-490.04 1314.75,-490.04 1314.75,-497.96 1314.75,-497.96 1314.75,-501.92 1310.79,-505.88 1306.83,-505.88"/>
<text text-anchor="middle" x="1245.25" y="-488.57" font-family="Arial" font-size="14.00" fill="#c6c5fe">../sim/dex&#45;formats.ts</text>
</g>
<!-- ../sim/dex.ts&#45;&gt;../sim/dex&#45;formats.ts -->
<g id="edge53" class="edge">
<title>../sim/dex.ts&#45;&gt;../sim/dex&#45;formats.ts</title>
<path fill="none" stroke="#757575" d="M1097.19,-293.36C1105.99,-323.23 1131.81,-400.48 1175.75,-450 1184.89,-460.3 1197,-469.14 1208.49,-476.13"/>
<polygon fill="#757575" stroke="#757575" points="1206.62,-479.09 1217.03,-481.04 1210.1,-473.02 1206.62,-479.09"/>
</g>
<!-- ../sim/dex&#45;items.ts -->
<g id="node28" class="node">
<title>../sim/dex&#45;items.ts</title>
<path fill="none" stroke="#c6c5fe" d="M1300.46,-331.88C1300.46,-331.88 1190.04,-331.88 1190.04,-331.88 1186.08,-331.88 1182.12,-327.92 1182.12,-323.96 1182.12,-323.96 1182.12,-316.04 1182.12,-316.04 1182.12,-312.08 1186.08,-308.12 1190.04,-308.12 1190.04,-308.12 1300.46,-308.12 1300.46,-308.12 1304.42,-308.12 1308.38,-312.08 1308.38,-316.04 1308.38,-316.04 1308.38,-323.96 1308.38,-323.96 1308.38,-327.92 1304.42,-331.88 1300.46,-331.88"/>
<text text-anchor="middle" x="1245.25" y="-314.57" font-family="Arial" font-size="14.00" fill="#c6c5fe">../sim/dex&#45;items.ts</text>
</g>
<!-- ../sim/dex.ts&#45;&gt;../sim/dex&#45;items.ts -->
<g id="edge54" class="edge">
<title>../sim/dex.ts&#45;&gt;../sim/dex&#45;items.ts</title>
<path fill="none" stroke="#757575" d="M1137.28,-292.28C1152.38,-296.19 1169.55,-300.64 1185.66,-304.82"/>
<polygon fill="#757575" stroke="#757575" points="1184.58,-308.15 1195.14,-307.27 1186.33,-301.38 1184.58,-308.15"/>
</g>
<!-- ../sim/dex&#45;species.ts -->
<g id="node29" class="node">
<title>../sim/dex&#45;species.ts</title>
<path fill="none" stroke="#c6c5fe" d="M1489.33,-211.88C1489.33,-211.88 1366.17,-211.88 1366.17,-211.88 1362.21,-211.88 1358.25,-207.92 1358.25,-203.96 1358.25,-203.96 1358.25,-196.04 1358.25,-196.04 1358.25,-192.08 1362.21,-188.12 1366.17,-188.12 1366.17,-188.12 1489.33,-188.12 1489.33,-188.12 1493.29,-188.12 1497.25,-192.08 1497.25,-196.04 1497.25,-196.04 1497.25,-203.96 1497.25,-203.96 1497.25,-207.92 1493.29,-211.88 1489.33,-211.88"/>
<text text-anchor="middle" x="1427.75" y="-194.57" font-family="Arial" font-size="14.00" fill="#c6c5fe">../sim/dex&#45;species.ts</text>
</g>
<!-- ../sim/dex.ts&#45;&gt;../sim/dex&#45;species.ts -->
<g id="edge56" class="edge">
<title>../sim/dex.ts&#45;&gt;../sim/dex&#45;species.ts</title>
<path fill="none" stroke="#757575" d="M1106.73,-268.74C1121.95,-255.19 1148.57,-233.97 1175.75,-224 1230.37,-203.98 1295.93,-198.27 1346.34,-197.42"/>
<polygon fill="#757575" stroke="#757575" points="1346.36,-200.92 1356.32,-197.32 1346.29,-193.92 1346.36,-200.92"/>
</g>
<!-- ../sim/battle&#45;queue.ts -->
<g id="node15" class="node">
<title>../sim/battle&#45;queue.ts</title>
<path fill="none" stroke="#ff6c60" d="M480.58,-373.88C480.58,-373.88 354.42,-373.88 354.42,-373.88 350.46,-373.88 346.5,-369.92 346.5,-365.96 346.5,-365.96 346.5,-358.04 346.5,-358.04 346.5,-354.08 350.46,-350.12 354.42,-350.12 354.42,-350.12 480.58,-350.12 480.58,-350.12 484.54,-350.12 488.5,-354.08 488.5,-358.04 488.5,-358.04 488.5,-365.96 488.5,-365.96 488.5,-369.92 484.54,-373.88 480.58,-373.88"/>
<text text-anchor="middle" x="417.5" y="-356.57" font-family="Arial" font-size="14.00" fill="#ff6c60">../sim/battle&#45;queue.ts</text>
</g>
<!-- ../sim/battle.ts -->
<g id="node16" class="node">
<title>../sim/battle.ts</title>
<path fill="none" stroke="#ff6c60" d="M302.58,-324.88C302.58,-324.88 218.42,-324.88 218.42,-324.88 214.46,-324.88 210.5,-320.92 210.5,-316.96 210.5,-316.96 210.5,-309.04 210.5,-309.04 210.5,-305.08 214.46,-301.12 218.42,-301.12 218.42,-301.12 302.58,-301.12 302.58,-301.12 306.54,-301.12 310.5,-305.08 310.5,-309.04 310.5,-309.04 310.5,-316.96 310.5,-316.96 310.5,-320.92 306.54,-324.88 302.58,-324.88"/>
<text text-anchor="middle" x="260.5" y="-307.57" font-family="Arial" font-size="14.00" fill="#ff6c60">../sim/battle.ts</text>
</g>
<!-- ../sim/battle&#45;queue.ts&#45;&gt;../sim/battle.ts -->
<g id="edge24" class="edge">
<title>../sim/battle&#45;queue.ts&#45;&gt;../sim/battle.ts</title>
<path fill="none" stroke="#757575" d="M356.6,-349.66C335.78,-343.45 313.17,-336 295.22,-329.34"/>
<polygon fill="#757575" stroke="#757575" points="296.71,-326.17 286.12,-325.86 294.21,-332.7 296.71,-326.17"/>
</g>
<!-- ../sim/battle.ts&#45;&gt;../lib/index.ts -->
<g id="edge25" class="edge">
<title>../sim/battle.ts&#45;&gt;../lib/index.ts</title>
<path fill="none" stroke="#757575" d="M266.9,-325.04C293.79,-382.94 419.2,-630 601.62,-630 601.62,-630 601.62,-630 1608.62,-630 1710.11,-630 1740.23,-621.34 1830,-574 1854.34,-561.17 1877.38,-539.52 1892.53,-523.49"/>
<polygon fill="#757575" stroke="#757575" points="1894.88,-526.11 1899.06,-516.37 1889.72,-521.37 1894.88,-526.11"/>
</g>
<!-- ../sim/battle.ts&#45;&gt;../sim/battle&#45;actions.ts -->
<g id="edge26" class="edge">
<title>../sim/battle.ts&#45;&gt;../sim/battle&#45;actions.ts</title>
<path fill="none" stroke="#757575" d="M262.3,-300.75C265.43,-263.93 280.2,-153.68 346.5,-104 394.82,-67.8 463.53,-62.65 517.48,-65.82"/>
<polygon fill="#757575" stroke="#757575" points="517.02,-69.3 527.24,-66.51 517.51,-62.32 517.02,-69.3"/>
</g>
<!-- ../sim/battle.ts&#45;&gt;../sim/dex.ts -->
<g id="edge28" class="edge">
<title>../sim/battle.ts&#45;&gt;../sim/dex.ts</title>
<path fill="none" stroke="#757575" d="M261.37,-300.76C261.66,-259.32 268.73,-123.49 346.5,-62 435.84,8.64 487.74,-38 601.62,-38 601.62,-38 601.62,-38 794,-38 892.96,-38 934.36,-28.91 1009.75,-93 1060.78,-136.38 1081.09,-217.51 1088.27,-257.49"/>
<polygon fill="#757575" stroke="#757575" points="1084.8,-257.92 1089.89,-267.22 1091.7,-256.78 1084.8,-257.92"/>
</g>
<!-- ../sim/battle.ts&#45;&gt;../sim/battle&#45;queue.ts -->
<g id="edge27" class="edge">
<title>../sim/battle.ts&#45;&gt;../sim/battle&#45;queue.ts</title>
<path fill="none" stroke="#757575" d="M310.97,-322.3C334.4,-328.99 361.78,-337.87 382.78,-345.66"/>
<polygon fill="#757575" stroke="#757575" points="381.42,-348.88 392.01,-349.19 383.93,-342.35 381.42,-348.88"/>
</g>
<!-- ../sim/field.ts -->
<g id="node17" class="node">
<title>../sim/field.ts</title>
<path fill="none" stroke="#ff6c60" d="M455.46,-275.88C455.46,-275.88 379.54,-275.88 379.54,-275.88 375.58,-275.88 371.62,-271.92 371.62,-267.96 371.62,-267.96 371.62,-260.04 371.62,-260.04 371.62,-256.08 375.58,-252.12 379.54,-252.12 379.54,-252.12 455.46,-252.12 455.46,-252.12 459.42,-252.12 463.38,-256.08 463.38,-260.04 463.38,-260.04 463.38,-267.96 463.38,-267.96 463.38,-271.92 459.42,-275.88 455.46,-275.88"/>
<text text-anchor="middle" x="417.5" y="-258.57" font-family="Arial" font-size="14.00" fill="#ff6c60">../sim/field.ts</text>
</g>
<!-- ../sim/battle.ts&#45;&gt;../sim/field.ts -->
<g id="edge29" class="edge">
<title>../sim/battle.ts&#45;&gt;../sim/field.ts</title>
<path fill="none" stroke="#757575" d="M300.61,-300.64C320.62,-294.31 345.2,-286.54 366.56,-279.79"/>
<polygon fill="#757575" stroke="#757575" points="367.48,-283.17 375.96,-276.82 365.37,-276.49 367.48,-283.17"/>
</g>
<!-- ../sim/pokemon.ts -->
<g id="node18" class="node">
<title>../sim/pokemon.ts</title>
<path fill="none" stroke="#ff6c60" d="M656.33,-210.88C656.33,-210.88 548.92,-210.88 548.92,-210.88 544.96,-210.88 541,-206.92 541,-202.96 541,-202.96 541,-195.04 541,-195.04 541,-191.08 544.96,-187.12 548.92,-187.12 548.92,-187.12 656.33,-187.12 656.33,-187.12 660.29,-187.12 664.25,-191.08 664.25,-195.04 664.25,-195.04 664.25,-202.96 664.25,-202.96 664.25,-206.92 660.29,-210.88 656.33,-210.88"/>
<text text-anchor="middle" x="602.62" y="-193.57" font-family="Arial" font-size="14.00" fill="#ff6c60">../sim/pokemon.ts</text>
</g>
<!-- ../sim/battle.ts&#45;&gt;../sim/pokemon.ts -->
<g id="edge30" class="edge">
<title>../sim/battle.ts&#45;&gt;../sim/pokemon.ts</title>
<path fill="none" stroke="#757575" d="M272.25,-300.87C287.21,-284.85 315.92,-257.02 346.5,-243 404.45,-216.43 476.51,-205.8 529.25,-201.6"/>
<polygon fill="#757575" stroke="#757575" points="529.3,-205.1 539.02,-200.88 528.79,-198.12 529.3,-205.1"/>
</g>
<!-- ../sim/prng.ts -->
<g id="node19" class="node">
<title>../sim/prng.ts</title>
<path fill="none" stroke="#cfffac" d="M1131.83,-431.88C1131.83,-431.88 1053.67,-431.88 1053.67,-431.88 1049.71,-431.88 1045.75,-427.92 1045.75,-423.96 1045.75,-423.96 1045.75,-416.04 1045.75,-416.04 1045.75,-412.08 1049.71,-408.12 1053.67,-408.12 1053.67,-408.12 1131.83,-408.12 1131.83,-408.12 1135.79,-408.12 1139.75,-412.08 1139.75,-416.04 1139.75,-416.04 1139.75,-423.96 1139.75,-423.96 1139.75,-427.92 1135.79,-431.88 1131.83,-431.88"/>
<text text-anchor="middle" x="1092.75" y="-414.57" font-family="Arial" font-size="14.00" fill="#cfffac">../sim/prng.ts</text>
</g>
<!-- ../sim/battle.ts&#45;&gt;../sim/prng.ts -->
<g id="edge31" class="edge">
<title>../sim/battle.ts&#45;&gt;../sim/prng.ts</title>
<path fill="none" stroke="#757575" d="M268.55,-325.31C281.19,-346.12 309.85,-387.82 346.5,-407 447.8,-460.01 487.29,-440 601.62,-440 601.62,-440 601.62,-440 794,-440 877.72,-440 974.38,-432.03 1034.29,-426.15"/>
<polygon fill="#757575" stroke="#757575" points="1034.29,-429.67 1043.89,-425.2 1033.59,-422.71 1034.29,-429.67"/>
</g>
<!-- ../sim/side.ts -->
<g id="node20" class="node">
<title>../sim/side.ts</title>
<path fill="none" stroke="#ff6c60" d="M995.46,-179.88C995.46,-179.88 919.54,-179.88 919.54,-179.88 915.58,-179.88 911.62,-175.92 911.62,-171.96 911.62,-171.96 911.62,-164.04 911.62,-164.04 911.62,-160.08 915.58,-156.12 919.54,-156.12 919.54,-156.12 995.46,-156.12 995.46,-156.12 999.42,-156.12 1003.38,-160.08 1003.38,-164.04 1003.38,-164.04 1003.38,-171.96 1003.38,-171.96 1003.38,-175.92 999.42,-179.88 995.46,-179.88"/>
<text text-anchor="middle" x="957.5" y="-162.57" font-family="Arial" font-size="14.00" fill="#ff6c60">../sim/side.ts</text>
</g>
<!-- ../sim/battle.ts&#45;&gt;../sim/side.ts -->
<g id="edge32" class="edge">
<title>../sim/battle.ts&#45;&gt;../sim/side.ts</title>
<path fill="none" stroke="#757575" d="M264.87,-300.89C274.29,-275.23 303.04,-218.21 346.5,-193 531.51,-85.68 803.55,-126.34 910.71,-152.83"/>
<polygon fill="#757575" stroke="#757575" points="909.73,-156.2 920.29,-155.29 911.47,-149.42 909.73,-156.2"/>
</g>
<!-- ../sim/state.ts -->
<g id="node21" class="node">
<title>../sim/state.ts</title>
<path fill="none" stroke="#ff6c60" d="M833.21,-297.88C833.21,-297.88 752.79,-297.88 752.79,-297.88 748.83,-297.88 744.88,-293.92 744.88,-289.96 744.88,-289.96 744.88,-282.04 744.88,-282.04 744.88,-278.08 748.83,-274.12 752.79,-274.12 752.79,-274.12 833.21,-274.12 833.21,-274.12 837.17,-274.12 841.12,-278.08 841.12,-282.04 841.12,-282.04 841.12,-289.96 841.12,-289.96 841.12,-293.92 837.17,-297.88 833.21,-297.88"/>
<text text-anchor="middle" x="793" y="-280.57" font-family="Arial" font-size="14.00" fill="#ff6c60">../sim/state.ts</text>
</g>
<!-- ../sim/battle.ts&#45;&gt;../sim/state.ts -->
<g id="edge33" class="edge">
<title>../sim/battle.ts&#45;&gt;../sim/state.ts</title>
<path fill="none" stroke="#757575" d="M310.94,-306.71C389.41,-302.13 547.26,-298.57 680.75,-289 697.75,-287.78 716.17,-285.99 733.04,-284.52"/>
<polygon fill="#757575" stroke="#757575" points="733.25,-288.01 742.92,-283.69 732.66,-281.04 733.25,-288.01"/>
</g>
<!-- ../sim/teams.ts -->
<g id="node22" class="node">
<title>../sim/teams.ts</title>
<path fill="none" stroke="#c6c5fe" d="M1001.83,-411.88C1001.83,-411.88 913.17,-411.88 913.17,-411.88 909.21,-411.88 905.25,-407.92 905.25,-403.96 905.25,-403.96 905.25,-396.04 905.25,-396.04 905.25,-392.08 909.21,-388.12 913.17,-388.12 913.17,-388.12 1001.83,-388.12 1001.83,-388.12 1005.79,-388.12 1009.75,-392.08 1009.75,-396.04 1009.75,-396.04 1009.75,-403.96 1009.75,-403.96 1009.75,-407.92 1005.79,-411.88 1001.83,-411.88"/>
<text text-anchor="middle" x="957.5" y="-394.57" font-family="Arial" font-size="14.00" fill="#c6c5fe">../sim/teams.ts</text>
</g>
<!-- ../sim/battle.ts&#45;&gt;../sim/teams.ts -->
<g id="edge34" class="edge">
<title>../sim/battle.ts&#45;&gt;../sim/teams.ts</title>
<path fill="none" stroke="#757575" d="M271.49,-325.21C285.99,-341.88 314.63,-371.06 346.5,-383 445.19,-419.97 758.91,-409.74 893.83,-403.35"/>
<polygon fill="#757575" stroke="#757575" points="893.83,-406.86 903.65,-402.88 893.49,-399.86 893.83,-406.86"/>
</g>
<!-- ../sim/field.ts&#45;&gt;../sim/dex.ts -->
<g id="edge57" class="edge">
<title>../sim/field.ts&#45;&gt;../sim/dex.ts</title>
<path fill="none" stroke="#757575" d="M463.62,-263.06C544.81,-261.61 720.86,-259.51 869.25,-265 926.39,-267.12 991.63,-272.11 1036.62,-275.96"/>
<polygon fill="#757575" stroke="#757575" points="1036.12,-279.43 1046.39,-276.81 1036.72,-272.46 1036.12,-279.43"/>
</g>
<!-- ../sim/field.ts&#45;&gt;../sim/pokemon.ts -->
<g id="edge58" class="edge">
<title>../sim/field.ts&#45;&gt;../sim/pokemon.ts</title>
<path fill="none" stroke="#757575" d="M451.36,-251.65C472.25,-243.86 499.9,-233.67 524.5,-225 533.89,-221.69 543.96,-218.23 553.62,-214.96"/>
<polygon fill="#757575" stroke="#757575" points="554.5,-218.35 562.85,-211.84 552.26,-211.72 554.5,-218.35"/>
</g>
<!-- ../sim/field.ts&#45;&gt;../sim/state.ts -->
<g id="edge59" class="edge">
<title>../sim/field.ts&#45;&gt;../sim/state.ts</title>
<path fill="none" stroke="#757575" d="M463.55,-262.07C531.1,-263.33 658.64,-270.68 733.36,-277.47"/>
<polygon fill="#757575" stroke="#757575" points="732.64,-280.92 742.93,-278.37 733.3,-273.95 732.64,-280.92"/>
</g>
<!-- ../sim/pokemon.ts&#45;&gt;../sim/dex.ts -->
<g id="edge60" class="edge">
<title>../sim/pokemon.ts&#45;&gt;../sim/dex.ts</title>
<path fill="none" stroke="#757575" d="M664.46,-195.48C745.36,-192.69 891.85,-194.25 1009.75,-232 1030.55,-238.66 1051.64,-251.43 1067.23,-262.27"/>
<polygon fill="#757575" stroke="#757575" points="1064.78,-264.81 1074.94,-267.81 1068.86,-259.13 1064.78,-264.81"/>
</g>
<!-- ../sim/pokemon.ts&#45;&gt;../sim/state.ts -->
<g id="edge61" class="edge">
<title>../sim/pokemon.ts&#45;&gt;../sim/state.ts</title>
<path fill="none" stroke="#757575" d="M642.2,-211.24C678.56,-226.28 732.15,-251.24 764.41,-268.32"/>
<polygon fill="#757575" stroke="#757575" points="762.68,-271.36 773.14,-273.06 766.02,-265.21 762.68,-271.36"/>
</g>
<!-- ../sim/side.ts&#45;&gt;../lib/index.ts -->
<g id="edge62" class="edge">
<title>../sim/side.ts&#45;&gt;../lib/index.ts</title>
<path fill="none" stroke="#757575" d="M1003.53,-165.96C1059.82,-163.59 1159.14,-160 1244.25,-160 1244.25,-160 1244.25,-160 1608.62,-160 1683.56,-160 1807.34,-286.2 1830,-316 1869.77,-368.3 1894.23,-443.24 1904.64,-480.37"/>
<polygon fill="#757575" stroke="#757575" points="1901.14,-480.82 1907.13,-489.56 1907.89,-478.99 1901.14,-480.82"/>
</g>
<!-- ../sim/side.ts&#45;&gt;../sim/dex.ts -->
<g id="edge64" class="edge">
<title>../sim/side.ts&#45;&gt;../sim/dex.ts</title>
<path fill="none" stroke="#757575" d="M987.2,-180.37C994.84,-184.24 1002.88,-188.86 1009.75,-194 1035.49,-213.25 1060.09,-241.04 1075.51,-260"/>
<polygon fill="#757575" stroke="#757575" points="1072.59,-261.95 1081.56,-267.58 1078.06,-257.58 1072.59,-261.95"/>
</g>
<!-- ../sim/side.ts&#45;&gt;../sim/battle.ts -->
<g id="edge63" class="edge">
<title>../sim/side.ts&#45;&gt;../sim/battle.ts</title>
<path fill="none" stroke="#757575" d="M911.26,-162.13C804.48,-144.48 531.83,-103.49 346.5,-211 313.76,-229.99 289.37,-267.03 275.3,-291.05"/>
<polygon fill="#757575" stroke="#757575" points="272.43,-289.02 270.5,-299.44 278.5,-292.5 272.43,-289.02"/>
</g>
<!-- ../sim/side.ts&#45;&gt;../sim/pokemon.ts -->
<g id="edge65" class="edge">
<title>../sim/side.ts&#45;&gt;../sim/pokemon.ts</title>
<path fill="none" stroke="#757575" d="M911.3,-171.97C851.87,-177.19 746.76,-186.43 676.15,-192.63"/>
<polygon fill="#757575" stroke="#757575" points="675.85,-189.14 666.2,-193.5 676.46,-196.11 675.85,-189.14"/>
</g>
<!-- ../sim/side.ts&#45;&gt;../sim/state.ts -->
<g id="edge66" class="edge">
<title>../sim/side.ts&#45;&gt;../sim/state.ts</title>
<path fill="none" stroke="#757575" d="M944.92,-180.09C920.62,-201.06 863.49,-243.17 826.91,-267.66"/>
<polygon fill="#757575" stroke="#757575" points="825.32,-264.51 818.89,-272.94 829.17,-270.36 825.32,-264.51"/>
</g>
<!-- ../sim/state.ts&#45;&gt;../sim/dex.ts -->
<g id="edge68" class="edge">
<title>../sim/state.ts&#45;&gt;../sim/dex.ts</title>
<path fill="none" stroke="#757575" d="M841.51,-285.2C894.7,-284.31 980.76,-282.86 1036.8,-281.92"/>
<polygon fill="#757575" stroke="#757575" points="1036.83,-285.42 1046.77,-281.76 1036.71,-278.42 1036.83,-285.42"/>
</g>
<!-- ../sim/state.ts&#45;&gt;../sim/battle.ts -->
<g id="edge67" class="edge">
<title>../sim/state.ts&#45;&gt;../sim/battle.ts</title>
<path fill="none" stroke="#757575" d="M755.98,-298.37C734.23,-302.13 705.94,-305.19 680.75,-307 553.26,-316.14 403.54,-319.8 321.98,-318.3"/>
<polygon fill="#757575" stroke="#757575" points="322.52,-314.81 312.45,-318.08 322.37,-321.81 322.52,-314.81"/>
</g>
<!-- ../sim/state.ts&#45;&gt;../sim/field.ts -->
<g id="edge69" class="edge">
<title>../sim/state.ts&#45;&gt;../sim/field.ts</title>
<path fill="none" stroke="#757575" d="M744.43,-287.88C675.57,-286.47 548.35,-279.08 474.87,-272.32"/>
<polygon fill="#757575" stroke="#757575" points="475.35,-268.85 465.06,-271.38 474.68,-275.82 475.35,-268.85"/>
</g>
<!-- ../sim/state.ts&#45;&gt;../sim/pokemon.ts -->
<g id="edge70" class="edge">
<title>../sim/state.ts&#45;&gt;../sim/pokemon.ts</title>
<path fill="none" stroke="#757575" d="M753.36,-273.73C717.08,-258.72 663.68,-233.86 631.42,-216.79"/>
<polygon fill="#757575" stroke="#757575" points="633.14,-213.74 622.68,-212.05 629.8,-219.9 633.14,-213.74"/>
</g>
<!-- ../sim/state.ts&#45;&gt;../sim/prng.ts -->
<g id="edge71" class="edge">
<title>../sim/state.ts&#45;&gt;../sim/prng.ts</title>
<path fill="none" stroke="#757575" d="M823.9,-298.26C865.77,-315.57 944.1,-348.47 1009.75,-379 1025.78,-386.45 1043.33,-395.16 1058.07,-402.62"/>
<polygon fill="#757575" stroke="#757575" points="1056.39,-405.69 1066.89,-407.11 1059.57,-399.46 1056.39,-405.69"/>
</g>
<!-- ../sim/state.ts&#45;&gt;../sim/side.ts -->
<g id="edge72" class="edge">
<title>../sim/state.ts&#45;&gt;../sim/side.ts</title>
<path fill="none" stroke="#757575" d="M805.69,-273.81C830.07,-252.8 887.13,-210.75 923.65,-186.31"/>
<polygon fill="#757575" stroke="#757575" points="925.22,-189.46 931.65,-181.04 921.37,-183.62 925.22,-189.46"/>
</g>
<!-- ../sim/teams.ts&#45;&gt;../sim/dex.ts -->
<g id="edge79" class="edge">
<title>../sim/teams.ts&#45;&gt;../sim/dex.ts</title>
<path fill="none" stroke="#757575" d="M987.58,-387.64C995.14,-383.8 1003.04,-379.19 1009.75,-374 1036.66,-353.16 1061.61,-322.59 1076.76,-302.25"/>
<polygon fill="#757575" stroke="#757575" points="1079.42,-304.54 1082.48,-294.4 1073.76,-300.42 1079.42,-304.54"/>
</g>
<!-- ../sim/teams.ts&#45;&gt;../sim/prng.ts -->
<g id="edge80" class="edge">
<title>../sim/teams.ts&#45;&gt;../sim/prng.ts</title>
<path fill="none" stroke="#757575" d="M1010.02,-407.73C1017.98,-408.93 1026.25,-410.17 1034.33,-411.38"/>
<polygon fill="#757575" stroke="#757575" points="1033.68,-414.82 1044.09,-412.85 1034.72,-407.9 1033.68,-414.82"/>
</g>
<!-- ../sim/dex&#45;abilities.ts&#45;&gt;../sim/dex&#45;conditions.ts -->
<g id="edge35" class="edge">
<title>../sim/dex&#45;abilities.ts&#45;&gt;../sim/dex&#45;conditions.ts</title>
<path fill="none" stroke="#757575" d="M1290.9,-290.36C1298.93,-292.96 1307.16,-295.87 1314.75,-299 1343.34,-310.79 1374.34,-327.45 1396.46,-340.05"/>
<polygon fill="#757575" stroke="#757575" points="1394.54,-342.98 1404.95,-344.95 1398.03,-336.92 1394.54,-342.98"/>
</g>
<!-- ../sim/dex&#45;abilities.ts&#45;&gt;../sim/dex&#45;data.ts -->
<g id="edge36" class="edge">
<title>../sim/dex&#45;abilities.ts&#45;&gt;../sim/dex&#45;data.ts</title>
<path fill="none" stroke="#757575" d="M1314.87,-285.61C1399.45,-295 1547.58,-311.52 1674.5,-326 1682.42,-326.9 1690.71,-327.86 1698.95,-328.81"/>
<polygon fill="#757575" stroke="#757575" points="1698.28,-332.25 1708.61,-329.92 1699.08,-325.3 1698.28,-332.25"/>
</g>
<!-- ../sim/dex&#45;conditions.ts&#45;&gt;../sim/dex&#45;data.ts -->
<g id="edge37" class="edge">
<title>../sim/dex&#45;conditions.ts&#45;&gt;../sim/dex&#45;data.ts</title>
<path fill="none" stroke="#757575" d="M1505.16,-353.29C1563.13,-349.71 1642.2,-344.84 1698.68,-341.35"/>
<polygon fill="#757575" stroke="#757575" points="1698.74,-344.86 1708.51,-340.75 1698.31,-337.87 1698.74,-344.86"/>
</g>
<!-- ../sim/dex&#45;conditions.ts&#45;&gt;../sim/dex&#45;moves.ts -->
<g id="edge38" class="edge">
<title>../sim/dex&#45;conditions.ts&#45;&gt;../sim/dex&#45;moves.ts</title>
<path fill="none" stroke="#757575" d="M1486.5,-370.34C1502.89,-373.84 1520.91,-377.69 1537.88,-381.31"/>
<polygon fill="#757575" stroke="#757575" points="1536.87,-384.68 1547.38,-383.34 1538.33,-377.83 1536.87,-384.68"/>
</g>
<!-- ../sim/dex&#45;data.ts&#45;&gt;../lib/index.ts -->
<g id="edge39" class="edge">
<title>../sim/dex&#45;data.ts&#45;&gt;../lib/index.ts</title>
<path fill="none" stroke="#757575" d="M1782.75,-349.26C1794.76,-362.18 1814.05,-383.22 1830,-402 1852.93,-429 1878.21,-461.14 1894.22,-481.79"/>
<polygon fill="#757575" stroke="#757575" points="1891.27,-483.7 1900.15,-489.48 1896.81,-479.42 1891.27,-483.7"/>
</g>
<!-- ../sim/dex&#45;moves.ts&#45;&gt;../lib/index.ts -->
<g id="edge46" class="edge">
<title>../sim/dex&#45;moves.ts&#45;&gt;../lib/index.ts</title>
<path fill="none" stroke="#757575" d="M1662.92,-408.32C1708.4,-419.44 1774.59,-437.48 1830,-460 1847.29,-467.03 1865.72,-476.69 1880.57,-485.08"/>
<polygon fill="#757575" stroke="#757575" points="1878.5,-487.93 1888.91,-489.88 1881.99,-481.86 1878.5,-487.93"/>
</g>
<!-- ../sim/dex&#45;moves.ts&#45;&gt;../sim/dex&#45;data.ts -->
<g id="edge47" class="edge">
<title>../sim/dex&#45;moves.ts&#45;&gt;../sim/dex&#45;data.ts</title>
<path fill="none" stroke="#757575" d="M1642.3,-383.63C1666.28,-374.82 1698.77,-362.89 1724.87,-353.3"/>
<polygon fill="#757575" stroke="#757575" points="1726.02,-356.61 1734.2,-349.87 1723.61,-350.04 1726.02,-356.61"/>
</g>
<!-- ../sim/dex&#45;formats.ts&#45;&gt;../data/tags.ts -->
<g id="edge40" class="edge">
<title>../sim/dex&#45;formats.ts&#45;&gt;../data/tags.ts</title>
<path fill="none" stroke="#757575" d="M1284.53,-506.3C1311.69,-515.03 1348.38,-526.82 1377.69,-536.24"/>
<polygon fill="#757575" stroke="#757575" points="1376.49,-539.53 1387.08,-539.25 1378.63,-532.86 1376.49,-539.53"/>
</g>
<!-- ../sim/dex&#45;formats.ts&#45;&gt;../lib/index.ts -->
<g id="edge41" class="edge">
<title>../sim/dex&#45;formats.ts&#45;&gt;../lib/index.ts</title>
<path fill="none" stroke="#757575" d="M1315.15,-494.93C1447.13,-496.72 1733.24,-500.6 1854.44,-502.24"/>
<polygon fill="#757575" stroke="#757575" points="1854.09,-505.74 1864.13,-502.37 1854.18,-498.74 1854.09,-505.74"/>
</g>
<!-- ../sim/dex&#45;formats.ts&#45;&gt;../sim/dex&#45;conditions.ts -->
<g id="edge42" class="edge">
<title>../sim/dex&#45;formats.ts&#45;&gt;../sim/dex&#45;conditions.ts</title>
<path fill="none" stroke="#757575" d="M1262.59,-481.69C1294.27,-457.82 1364.23,-405.11 1401.78,-376.82"/>
<polygon fill="#757575" stroke="#757575" points="1403.49,-379.91 1409.37,-371.09 1399.28,-374.32 1403.49,-379.91"/>
</g>
<!-- ../sim/dex&#45;formats.ts&#45;&gt;../sim/dex&#45;data.ts -->
<g id="edge43" class="edge">
<title>../sim/dex&#45;formats.ts&#45;&gt;../sim/dex&#45;data.ts</title>
<path fill="none" stroke="#757575" d="M1315.19,-492.48C1402.68,-488.18 1556.41,-472.53 1674.5,-417 1704.8,-402.75 1733.26,-376.28 1750.93,-357.7"/>
<polygon fill="#757575" stroke="#757575" points="1753.45,-360.14 1757.67,-350.42 1748.31,-355.38 1753.45,-360.14"/>
</g>
<!-- ../sim/dex&#45;items.ts&#45;&gt;../sim/dex&#45;conditions.ts -->
<g id="edge44" class="edge">
<title>../sim/dex&#45;items.ts&#45;&gt;../sim/dex&#45;conditions.ts</title>
<path fill="none" stroke="#757575" d="M1304.85,-332.34C1321.49,-335.84 1339.77,-339.69 1356.99,-343.31"/>
<polygon fill="#757575" stroke="#757575" points="1356.14,-346.71 1366.65,-345.35 1357.59,-339.86 1356.14,-346.71"/>
</g>
<!-- ../sim/dex&#45;items.ts&#45;&gt;../sim/dex&#45;data.ts -->
<g id="edge45" class="edge">
<title>../sim/dex&#45;items.ts&#45;&gt;../sim/dex&#45;data.ts</title>
<path fill="none" stroke="#757575" d="M1308.82,-322.03C1406.85,-325.22 1596.04,-331.37 1698.75,-334.71"/>
<polygon fill="#757575" stroke="#757575" points="1698.61,-338.21 1708.72,-335.03 1698.84,-331.21 1698.61,-338.21"/>
</g>
<!-- ../sim/dex&#45;species.ts&#45;&gt;../sim/dex&#45;data.ts -->
<g id="edge48" class="edge">
<title>../sim/dex&#45;species.ts&#45;&gt;../sim/dex&#45;data.ts</title>
<path fill="none" stroke="#757575" d="M1497.59,-194.03C1549.16,-192.6 1619.93,-197.26 1674.5,-226 1712.72,-246.13 1742.06,-288.69 1757.4,-314.87"/>
<polygon fill="#757575" stroke="#757575" points="1754.21,-316.35 1762.18,-323.33 1760.31,-312.91 1754.21,-316.35"/>
</g>
<!-- ../sim/team&#45;validator.ts -->
<g id="node30" class="node">
<title>../sim/team&#45;validator.ts</title>
<path fill="none" stroke="#c6c5fe" d="M861.33,-527.88C861.33,-527.88 724.67,-527.88 724.67,-527.88 720.71,-527.88 716.75,-523.92 716.75,-519.96 716.75,-519.96 716.75,-512.04 716.75,-512.04 716.75,-508.08 720.71,-504.12 724.67,-504.12 724.67,-504.12 861.33,-504.12 861.33,-504.12 865.29,-504.12 869.25,-508.08 869.25,-512.04 869.25,-512.04 869.25,-519.96 869.25,-519.96 869.25,-523.92 865.29,-527.88 861.33,-527.88"/>
<text text-anchor="middle" x="793" y="-510.57" font-family="Arial" font-size="14.00" fill="#c6c5fe">../sim/team&#45;validator.ts</text>
</g>
<!-- ../sim/team&#45;validator.ts&#45;&gt;../data/tags.ts -->
<g id="edge73" class="edge">
<title>../sim/team&#45;validator.ts&#45;&gt;../data/tags.ts</title>
<path fill="none" stroke="#757575" d="M869.7,-520.31C997.19,-527.56 1252.11,-542.06 1367.53,-548.63"/>
<polygon fill="#757575" stroke="#757575" points="1367.23,-552.12 1377.41,-549.19 1367.63,-545.13 1367.23,-552.12"/>
</g>
<!-- ../sim/team&#45;validator.ts&#45;&gt;../lib/index.ts -->
<g id="edge74" class="edge">
<title>../sim/team&#45;validator.ts&#45;&gt;../lib/index.ts</title>
<path fill="none" stroke="#757575" d="M822.13,-528.21C874.26,-549.69 989.85,-592 1091.75,-592 1091.75,-592 1091.75,-592 1608.62,-592 1709.28,-592 1821.39,-545.91 1876.35,-520.07"/>
<polygon fill="#757575" stroke="#757575" points="1877.68,-523.31 1885.19,-515.84 1874.66,-517 1877.68,-523.31"/>
</g>
<!-- ../sim/team&#45;validator.ts&#45;&gt;../sim/dex.ts -->
<g id="edge76" class="edge">
<title>../sim/team&#45;validator.ts&#45;&gt;../sim/dex.ts</title>
<path fill="none" stroke="#757575" d="M801.32,-504.01C817.43,-478.37 858.32,-417.44 905.25,-379 949.44,-342.8 1009.13,-314.3 1048.95,-297.57"/>
<polygon fill="#757575" stroke="#757575" points="1050.07,-300.89 1057.98,-293.85 1047.4,-294.42 1050.07,-300.89"/>
</g>
<!-- ../sim/team&#45;validator.ts&#45;&gt;../sim/prng.ts -->
<g id="edge77" class="edge">
<title>../sim/team&#45;validator.ts&#45;&gt;../sim/prng.ts</title>
<path fill="none" stroke="#757575" d="M842.91,-503.64C886.96,-492.11 953.28,-473.75 1009.75,-454 1024.33,-448.9 1040.06,-442.58 1053.8,-436.78"/>
<polygon fill="#757575" stroke="#757575" points="1055.13,-440.02 1062.95,-432.87 1052.38,-433.59 1055.13,-440.02"/>
</g>
<!-- ../sim/team&#45;validator.ts&#45;&gt;../sim/teams.ts -->
<g id="edge78" class="edge">
<title>../sim/team&#45;validator.ts&#45;&gt;../sim/teams.ts</title>
<path fill="none" stroke="#757575" d="M811.08,-503.81C839.56,-483.48 896.92,-442.53 930.46,-418.59"/>
<polygon fill="#757575" stroke="#757575" points="932.31,-421.57 938.41,-412.91 928.24,-415.87 932.31,-421.57"/>
</g>
<!-- ../sim/team&#45;validator.ts&#45;&gt;../sim/dex&#45;formats.ts -->
<g id="edge75" class="edge">
<title>../sim/team&#45;validator.ts&#45;&gt;../sim/dex&#45;formats.ts</title>
<path fill="none" stroke="#757575" d="M869.62,-512.31C951.19,-508.32 1080.57,-502 1163.93,-497.92"/>
<polygon fill="#757575" stroke="#757575" points="1164.05,-501.42 1173.87,-497.44 1163.71,-494.43 1164.05,-501.42"/>
</g>
<!-- index.ts -->
<g id="node31" class="node">
<title>index.ts</title>
<path fill="none" stroke="#c6c5fe" d="M54.58,-719.88C54.58,-719.88 7.92,-719.88 7.92,-719.88 3.96,-719.88 0,-715.92 0,-711.96 0,-711.96 0,-704.04 0,-704.04 0,-700.08 3.96,-696.12 7.92,-696.12 7.92,-696.12 54.58,-696.12 54.58,-696.12 58.54,-696.12 62.5,-700.08 62.5,-704.04 62.5,-704.04 62.5,-711.96 62.5,-711.96 62.5,-715.92 58.54,-719.88 54.58,-719.88"/>
<text text-anchor="middle" x="31.25" y="-702.58" font-family="Arial" font-size="14.00" fill="#c6c5fe">index.ts</text>
</g>
<!-- index.ts&#45;&gt;../lib/index.ts -->
<g id="edge81" class="edge">
<title>index.ts&#45;&gt;../lib/index.ts</title>
<path fill="none" stroke="#757575" d="M62.83,-716.88C106.18,-728.66 188.19,-748 259.5,-748 259.5,-748 259.5,-748 958.5,-748 1167.3,-748 1217.95,-710 1426.75,-710 1426.75,-710 1426.75,-710 1608.62,-710 1708.31,-710 1750.41,-734.01 1830,-674 1878.7,-637.28 1899.12,-563.73 1906.65,-526.19"/>
<polygon fill="#757575" stroke="#757575" points="1910,-527.32 1908.39,-516.85 1903.12,-526.04 1910,-527.32"/>
</g>
<!-- sockets.ts -->
<g id="node32" class="node">
<title>sockets.ts</title>
<path fill="none" stroke="#c6c5fe" d="M166.58,-502.88C166.58,-502.88 106.42,-502.88 106.42,-502.88 102.46,-502.88 98.5,-498.92 98.5,-494.96 98.5,-494.96 98.5,-487.04 98.5,-487.04 98.5,-483.08 102.46,-479.12 106.42,-479.12 106.42,-479.12 166.58,-479.12 166.58,-479.12 170.54,-479.12 174.5,-483.08 174.5,-487.04 174.5,-487.04 174.5,-494.96 174.5,-494.96 174.5,-498.92 170.54,-502.88 166.58,-502.88"/>
<text text-anchor="middle" x="136.5" y="-485.57" font-family="Arial" font-size="14.00" fill="#c6c5fe">sockets.ts</text>
</g>
<!-- index.ts&#45;&gt;sockets.ts -->
<g id="edge82" class="edge">
<title>index.ts&#45;&gt;sockets.ts</title>
<path fill="none" stroke="#757575" d="M38.1,-695.71C54.85,-660.5 103.21,-558.87 124.83,-513.42"/>
<polygon fill="#757575" stroke="#757575" points="127.93,-515.05 129.07,-504.52 121.61,-512.05 127.93,-515.05"/>
</g>
<!-- team&#45;validator&#45;async.ts -->
<g id="node33" class="node">
<title>team&#45;validator&#45;async.ts</title>
<path fill="none" stroke="#c6c5fe" d="M672.83,-719.88C672.83,-719.88 532.42,-719.88 532.42,-719.88 528.46,-719.88 524.5,-715.92 524.5,-711.96 524.5,-711.96 524.5,-704.04 524.5,-704.04 524.5,-700.08 528.46,-696.12 532.42,-696.12 532.42,-696.12 672.83,-696.12 672.83,-696.12 676.79,-696.12 680.75,-700.08 680.75,-704.04 680.75,-704.04 680.75,-711.96 680.75,-711.96 680.75,-715.92 676.79,-719.88 672.83,-719.88"/>
<text text-anchor="middle" x="602.62" y="-702.58" font-family="Arial" font-size="14.00" fill="#c6c5fe">team&#45;validator&#45;async.ts</text>
</g>
<!-- index.ts&#45;&gt;team&#45;validator&#45;async.ts -->
<g id="edge83" class="edge">
<title>index.ts&#45;&gt;team&#45;validator&#45;async.ts</title>
<path fill="none" stroke="#757575" d="M62.86,-708C146.72,-708 382.53,-708 512.65,-708"/>
<polygon fill="#757575" stroke="#757575" points="512.62,-711.5 522.62,-708 512.62,-704.5 512.62,-711.5"/>
</g>
<!-- sockets.ts&#45;&gt;../lib/index.ts -->
<g id="edge85" class="edge">
<title>sockets.ts&#45;&gt;../lib/index.ts</title>
<path fill="none" stroke="#757575" d="M138.4,-478.86C144.71,-403.25 189.04,0 416.5,0 416.5,0 416.5,0 1608.62,0 1835.47,0 1896.1,-380.78 1908.02,-479.73"/>
<polygon fill="#757575" stroke="#757575" points="1904.53,-480.02 1909.15,-489.56 1911.49,-479.23 1904.53,-480.02"/>
</g>
<!-- sockets.ts&#45;&gt;../sim/battle.ts -->
<g id="edge86" class="edge">
<title>sockets.ts&#45;&gt;../sim/battle.ts</title>
<path fill="none" stroke="#757575" d="M145.89,-478.77C166.34,-448.92 219.03,-372.05 244.83,-334.41"/>
<polygon fill="#757575" stroke="#757575" points="247.43,-336.8 250.2,-326.57 241.66,-332.84 247.43,-336.8"/>
</g>
<!-- ip&#45;tools.ts -->
<g id="node34" class="node">
<title>ip&#45;tools.ts</title>
<path fill="none" stroke="#c6c5fe" d="M1636.58,-681.88C1636.58,-681.88 1578.67,-681.88 1578.67,-681.88 1574.71,-681.88 1570.75,-677.92 1570.75,-673.96 1570.75,-673.96 1570.75,-666.04 1570.75,-666.04 1570.75,-662.08 1574.71,-658.12 1578.67,-658.12 1578.67,-658.12 1636.58,-658.12 1636.58,-658.12 1640.54,-658.12 1644.5,-662.08 1644.5,-666.04 1644.5,-666.04 1644.5,-673.96 1644.5,-673.96 1644.5,-677.92 1640.54,-681.88 1636.58,-681.88"/>
<text text-anchor="middle" x="1607.62" y="-664.58" font-family="Arial" font-size="14.00" fill="#c6c5fe">ip&#45;tools.ts</text>
</g>
<!-- sockets.ts&#45;&gt;ip&#45;tools.ts -->
<g id="edge87" class="edge">
<title>sockets.ts&#45;&gt;ip&#45;tools.ts</title>
<path fill="none" stroke="#757575" d="M147.19,-503.17C180.21,-543.16 293.17,-668 416.5,-668 416.5,-668 416.5,-668 1246.25,-668 1358.33,-668 1490.01,-668.98 1558.98,-669.57"/>
<polygon fill="#757575" stroke="#757575" points="1558.76,-673.07 1568.79,-669.65 1558.82,-666.07 1558.76,-673.07"/>
</g>
<!-- team&#45;validator&#45;async.ts&#45;&gt;../lib/process&#45;manager.ts -->
<g id="edge88" class="edge">
<title>team&#45;validator&#45;async.ts&#45;&gt;../lib/process&#45;manager.ts</title>
<path fill="none" stroke="#757575" d="M681.02,-714.27C826.82,-725.53 1152.23,-748 1426.75,-748 1426.75,-748 1426.75,-748 1912.5,-748 2021,-748 2141.96,-697.59 2199.65,-670.21"/>
<polygon fill="#757575" stroke="#757575" points="2201.15,-673.38 2208.63,-665.88 2198.11,-667.07 2201.15,-673.38"/>
</g>
<!-- team&#45;validator&#45;async.ts&#45;&gt;../sim/team&#45;validator.ts -->
<g id="edge89" class="edge">
<title>team&#45;validator&#45;async.ts&#45;&gt;../sim/team&#45;validator.ts</title>
<path fill="none" stroke="#757575" d="M615.7,-695.7C647.4,-663.38 733.29,-575.84 772.27,-536.1"/>
<polygon fill="#757575" stroke="#757575" points="774.71,-538.62 779.21,-529.03 769.71,-533.72 774.71,-538.62"/>
</g>
<!-- ip&#45;tools.ts&#45;&gt;../lib/index.ts -->
<g id="edge84" class="edge">
<title>ip&#45;tools.ts&#45;&gt;../lib/index.ts</title>
<path fill="none" stroke="#757575" d="M1644.93,-675.14C1691.76,-679.81 1773.84,-681.15 1830,-644 1872.11,-616.14 1894.7,-558.24 1904.47,-525.98"/>
<polygon fill="#757575" stroke="#757575" points="1907.82,-527.01 1907.19,-516.44 1901.08,-525.1 1907.82,-527.01"/>
</g>
</g>
</svg>
